<?xml version="1.0" standalone="no"?>
<!DOCTYPE svg PUBLIC "-//W3C//DTD SVG 20010904//EN"
 "http://www.w3.org/TR/2001/REC-SVG-20010904/DTD/svg10.dtd">
<svg version="1.0" xmlns="http://www.w3.org/2000/svg"
 width="68.000000pt" height="68.000000pt" viewBox="0 0 68.000000 68.000000"
 preserveAspectRatio="xMidYMid meet">

<g transform="translate(0.000000,68.000000) scale(0.100000,-0.100000)"
fill="#000000" stroke="none">
<path d="M273 649 c-38 -11 -48 -28 -56 -87 -4 -37 -1 -50 25 -88 16 -24 34
-44 39 -44 5 0 9 -4 9 -10 0 -5 -13 -10 -28 -10 -31 0 -67 -28 -77 -60 -4 -14
-15 -20 -35 -20 -18 0 -33 -7 -39 -18 -11 -21 -5 -34 24 -50 19 -11 19 -11 -6
-12 -57 0 -86 -66 -49 -112 l20 -26 -25 -6 c-28 -7 -51 -46 -41 -71 5 -13 20
-15 88 -13 l83 3 0 30 c0 24 -7 33 -32 46 -45 22 -24 39 48 39 64 0 100 -23
54 -34 -15 -4 -30 -17 -36 -33 -18 -47 -7 -53 86 -53 l86 0 -3 32 c-2 26 -10
37 -35 49 -24 12 -29 19 -21 27 18 18 123 15 138 -3 10 -12 10 -15 -3 -15 -25
0 -47 -29 -47 -61 l0 -29 85 0 85 0 0 28 c0 29 -26 62 -49 62 -8 0 -5 11 9 30
19 26 20 35 10 64 -11 33 -48 55 -70 41 -19 -12 -10 7 13 25 18 15 20 22 11
37 -6 10 -25 19 -43 21 -19 2 -31 9 -31 18 0 24 -47 64 -75 64 -14 0 -25 2
-25 5 0 3 18 28 40 56 32 41 38 54 30 69 -6 10 -10 32 -10 48 0 16 -8 36 -18
45 -23 21 -88 29 -129 16z m117 -125 c0 -104 -120 -115 -136 -13 l-6 36 45 7
c25 4 51 14 58 22 19 23 39 -2 39 -52z m-52 -131 c-4 -22 -22 -20 -26 1 -2 10
3 16 13 16 10 0 15 -7 13 -17z m-43 -23 c10 -11 23 -20 30 -20 7 0 20 9 30 20
22 24 42 25 67 3 40 -36 25 -43 -102 -43 -109 0 -119 1 -113 18 15 43 59 54
88 22z m185 -116 c0 -3 -5 -25 -11 -50 -11 -43 -12 -44 -51 -44 -21 0 -37 4
-34 9 3 5 1 22 -5 39 -20 59 -101 50 -113 -12 -6 -34 -9 -36 -45 -36 -23 0
-38 5 -39 13 -1 6 -5 29 -8 50 l-6 37 156 0 c86 0 156 -3 156 -6z"/>
<path d="M280 530 c0 -5 5 -10 10 -10 6 0 10 5 10 10 0 6 -4 10 -10 10 -5 0
-10 -4 -10 -10z"/>
<path d="M350 530 c0 -5 5 -10 10 -10 6 0 10 5 10 10 0 6 -4 10 -10 10 -5 0
-10 -4 -10 -10z"/>
<path d="M316 521 c-4 -7 -5 -15 -2 -18 9 -9 19 4 14 18 -4 11 -6 11 -12 0z"/>
<path d="M300 470 c0 -5 9 -10 19 -10 11 0 23 5 26 10 4 6 -5 10 -19 10 -14 0
-26 -4 -26 -10z"/>
<path d="M510 642 c-14 -11 -25 -35 -30 -63 -4 -24 -9 -51 -11 -59 -3 -11 11
-17 59 -24 61 -9 65 -8 90 17 19 19 26 37 26 63 0 68 -82 108 -134 66z m20
-68 c0 -8 -4 -12 -10 -9 -5 3 -10 10 -10 16 0 5 5 9 10 9 6 0 10 -7 10 -16z
m40 0 c0 -8 -4 -12 -10 -9 -5 3 -10 10 -10 16 0 5 5 9 10 9 6 0 10 -7 10 -16z
m40 6 c0 -5 -4 -10 -10 -10 -5 0 -10 5 -10 10 0 6 5 10 10 10 6 0 10 -4 10
-10z"/>
</g>
</svg>
