<svg width="512" height="512" version="1.1" xmlns="http://www.w3.org/2000/svg" desc="Created with imagetracer.js version 1.2.6" ><path fill="rgb(0,0,0)" stroke="rgb(0,0,0)" stroke-width="1" opacity="0" d="M 0 0 L 512 0 L 512 512 L 0 512 L 0 0 Z M 254 8 L 12 81 L 8 86 L 8 139 L 9 141 L 14 144 L 32 144 L 32 163 L 33 165 L 38 168 L 48 168 L 48 169 L 48 368 L 30 368 L 28 369 L 24 374 L 24 392 L 14 392 L 12 393 L 8 398 L 8 474 L 13 485 Q 19 493 31 496 L 482 496 L 493 491 Q 501 485 504 474 L 504 398 L 503 396 L 499 392 L 488 392 L 488 374 L 487 372 L 483 368 L 465 368 L 464 368 L 464 168 L 475 168 L 477 167 L 480 163 L 480 144 L 499 144 L 501 143 L 504 139 L 504 86 L 503 84 L 501 81 L 493 78 L 263 9 L 254 8 Z " /><path fill="rgb(0,0,0)" stroke="rgb(0,0,0)" stroke-width="1" opacity="0" d="M 253.5 25 L 259.5 25 L 488 94 L 488 127.5 L 487.5 128 L 24 128 L 24 94.5 L 25.5 94 L 253.5 25 Z " /><path fill="rgb(0,0,0)" stroke="rgb(0,0,0)" stroke-width="1" opacity="0" d="M 48 144 L 463.5 144 L 464 144.5 L 464 152 L 48.5 152 L 48 151.5 L 48 144 Z " /><path fill="rgb(0,0,0)" stroke="rgb(0,0,0)" stroke-width="1" opacity="0" d="M 64 168 L 95.5 168 L 96 168.5 L 96 368 L 64.5 368 L 64 367.5 L 64 168 Z " /><path fill="rgb(0,0,0)" stroke="rgb(0,0,0)" stroke-width="1" opacity="0" d="M 112 168 L 400 168 L 400 368 L 381.5 368 L 377 371.5 L 376 373.5 L 376 392 L 136.5 392 L 136 391.5 L 136 373.5 L 132.5 369 L 130.5 368 L 112 368 L 112 168 Z M 248 200 L 233 203 L 225 206 Q 212 211 203 220 L 186 241 L 179 257 L 176 272 L 176 290 L 179 304 Q 185 321 196 334 Q 214 354 247 360 L 265 360 L 280 357 Q 297 351 310 340 L 326 320 L 333 304 L 336 289 L 336 271 L 333 257 Q 327 239 316 227 Q 303 212 283 204 L 266 200 L 248 200 Z " /><path fill="rgb(0,0,0)" stroke="rgb(0,0,0)" stroke-width="1" opacity="0" d="M 416 168 L 447.5 168 L 448 168.5 L 448 368 L 416.5 368 L 416 367.5 L 416 168 Z " /><path fill="rgb(0,0,0)" stroke="rgb(0,0,0)" stroke-width="1" opacity="0" d="M 249.5 216 L 262.5 216 L 281.5 221 Q 295.5 227.5 305 238.5 Q 313.9 248.6 318 263.5 L 320 273.5 L 320 286.5 L 318 296.5 L 312 311.5 L 297.5 329 Q 287.4 337.9 272.5 342 L 262.5 344 L 249.5 344 L 239.5 342 L 224.5 336 L 207 321.5 Q 199.4 312.6 195 300.5 L 192 286.5 L 192 273.5 L 195 259.5 L 200 248.5 L 214.5 231 L 230.5 221 L 249.5 216 Z M 254 240 L 252 241 Q 248 243 248 248 L 238 248 L 236 249 L 232 254 L 232 283 L 233 285 L 238 288 L 264 288 L 264 289 L 264 296 L 238 296 L 236 297 L 232 302 L 233 309 L 238 312 L 248 312 L 249 317 L 254 320 L 261 319 Q 264 317 264 312 L 275 312 L 277 311 L 280 307 L 280 278 L 279 276 L 275 272 L 249 272 L 248 272 L 248 264 L 275 264 L 277 263 L 280 259 L 279 252 L 275 248 L 264 248 L 263 244 Q 261 239 254 240 Z " /><path fill="rgb(0,0,0)" stroke="rgb(0,0,0)" stroke-width="1" opacity="0" d="M 40 384 L 119.5 384 L 120 384.5 L 120 392 L 40.5 392 L 40 391.5 L 40 384 Z " /><path fill="rgb(0,0,0)" stroke="rgb(0,0,0)" stroke-width="1" opacity="0" d="M 392 384 L 471.5 384 L 472 384.5 L 472 392 L 392.5 392 L 392 391.5 L 392 384 Z " /><path fill="rgb(0,0,0)" stroke="rgb(0,0,0)" stroke-width="1" opacity="0" d="M 24 408 L 487.5 408 L 488 408.5 L 488 416 L 24.5 416 L 24 415.5 L 24 408 Z " /><path fill="rgb(0,0,0)" stroke="rgb(0,0,0)" stroke-width="1" opacity="0" d="M 24 432 L 209.5 432 L 211 433.5 L 216 450.5 L 219.5 455 L 221.5 456 L 290.5 456 L 295 452.5 L 302.5 432 L 487.5 432 L 488 432.5 L 488 470.5 L 482.5 478 L 478.5 480 L 33.5 480 L 25 473.5 L 24 470.5 L 24 432 Z " /><path fill="rgb(0,0,0)" stroke="rgb(0,0,0)" stroke-width="1" opacity="0" d="M 227.5 432 L 285 432.5 L 281.5 440 L 230.5 440 L 229 438.5 L 227.5 432 Z " /><path fill="rgb(0,0,0)" stroke="rgb(0,0,0)" stroke-width="1" opacity="0.792156862745098" d="M 254.5 24 L 258 24.5 L 254.5 25 L 254.5 24 Z " /><path fill="rgb(0,0,0)" stroke="rgb(0,0,0)" stroke-width="1" opacity="0.792156862745098" d="M 11.5 81 L 9.5 84 L 11.5 81 Z " /><path fill="rgb(0,0,0)" stroke="rgb(0,0,0)" stroke-width="1" opacity="0.792156862745098" d="M 500.5 81 L 502.5 84 L 500.5 81 Z " /><path fill="rgb(0,0,0)" stroke="rgb(0,0,0)" stroke-width="1" opacity="0.792156862745098" d="M 9.5 140 L 11.5 143 L 9.5 140 Z " /><path fill="rgb(0,0,0)" stroke="rgb(0,0,0)" stroke-width="1" opacity="0.792156862745098" d="M 502.5 140 L 500.5 143 L 502.5 140 Z " /><path fill="rgb(0,0,0)" stroke="rgb(0,0,0)" stroke-width="1" opacity="0.792156862745098" d="M 33.5 164 L 35.5 167 L 33.5 164 Z " /><path fill="rgb(0,0,0)" stroke="rgb(0,0,0)" stroke-width="1" opacity="0.792156862745098" d="M 478.5 164 L 476.5 167 L 478.5 164 Z " /><path fill="rgb(0,0,0)" stroke="rgb(0,0,0)" stroke-width="1" opacity="0.792156862745098" d="M 247.5 200 L 253 200.5 L 247.5 201 L 247.5 200 Z " /><path fill="rgb(0,0,0)" stroke="rgb(0,0,0)" stroke-width="1" opacity="0.792156862745098" d="M 260.5 200 L 266 200.5 L 260.5 201 L 260.5 200 Z " /><path fill="rgb(0,0,0)" stroke="rgb(0,0,0)" stroke-width="1" opacity="0.792156862745098" d="M 240.5 201 L 243 201.5 L 240.5 202 L 240.5 201 Z " /><path fill="rgb(0,0,0)" stroke="rgb(0,0,0)" stroke-width="1" opacity="0.792156862745098" d="M 269.5 201 L 272 201.5 L 269.5 202 L 269.5 201 Z " /><path fill="rgb(0,0,0)" stroke="rgb(0,0,0)" stroke-width="1" opacity="0.792156862745098" d="M 211.5 213 L 210.5 215 L 211.5 213 Z " /><path fill="rgb(0,0,0)" stroke="rgb(0,0,0)" stroke-width="1" opacity="0.792156862745098" d="M 300.5 213 L 301.5 215 L 300.5 213 Z " /><path fill="rgb(0,0,0)" stroke="rgb(0,0,0)" stroke-width="1" opacity="0.792156862745098" d="M 207.5 216 L 206.5 218 L 207.5 216 Z " /><path fill="rgb(0,0,0)" stroke="rgb(0,0,0)" stroke-width="1" opacity="0.792156862745098" d="M 246.5 216 L 249 216.5 L 246.5 217 L 246.5 216 Z " /><path fill="rgb(0,0,0)" stroke="rgb(0,0,0)" stroke-width="1" opacity="0.792156862745098" d="M 263.5 216 L 267 216.5 L 263.5 217 L 263.5 216 Z " /><path fill="rgb(0,0,0)" stroke="rgb(0,0,0)" stroke-width="1" opacity="0.792156862745098" d="M 304.5 216 L 306.5 219 L 304.5 216 Z " /><path fill="rgb(0,0,0)" stroke="rgb(0,0,0)" stroke-width="1" opacity="0.792156862745098" d="M 202.5 220 L 196.5 227 L 202.5 220 Z " /><path fill="rgb(0,0,0)" stroke="rgb(0,0,0)" stroke-width="1" opacity="0.792156862745098" d="M 309.5 220 L 315.5 227 L 309.5 220 Z " /><path fill="rgb(0,0,0)" stroke="rgb(0,0,0)" stroke-width="1" opacity="0.792156862745098" d="M 223.5 224 L 222.5 226 L 223.5 224 Z " /><path fill="rgb(0,0,0)" stroke="rgb(0,0,0)" stroke-width="1" opacity="0.792156862745098" d="M 288.5 224 L 289.5 226 L 288.5 224 Z " /><path fill="rgb(0,0,0)" stroke="rgb(0,0,0)" stroke-width="1" opacity="0.792156862745098" d="M 220.5 226 L 219.5 228 L 220.5 226 Z " /><path fill="rgb(0,0,0)" stroke="rgb(0,0,0)" stroke-width="1" opacity="0.792156862745098" d="M 291.5 226 L 292.5 228 L 291.5 226 Z " /><path fill="rgb(0,0,0)" stroke="rgb(0,0,0)" stroke-width="1" opacity="0.792156862745098" d="M 217.5 228 L 215.5 231 L 217.5 228 Z " /><path fill="rgb(0,0,0)" stroke="rgb(0,0,0)" stroke-width="1" opacity="0.792156862745098" d="M 294.5 228 L 296.5 231 L 294.5 228 Z " /><path fill="rgb(0,0,0)" stroke="rgb(0,0,0)" stroke-width="1" opacity="0.792156862745098" d="M 317.5 229 L 319.5 232 L 317.5 229 Z " /><path fill="rgb(0,0,0)" stroke="rgb(0,0,0)" stroke-width="1" opacity="0.792156862745098" d="M 193.5 230 L 192.5 232 L 193.5 230 Z " /><path fill="rgb(0,0,0)" stroke="rgb(0,0,0)" stroke-width="1" opacity="0.792156862745098" d="M 300.5 233 L 301.5 235 L 300.5 233 Z " /><path fill="rgb(0,0,0)" stroke="rgb(0,0,0)" stroke-width="1" opacity="0.792156862745098" d="M 190.5 234 L 189.5 236 L 190.5 234 Z " /><path fill="rgb(0,0,0)" stroke="rgb(0,0,0)" stroke-width="1" opacity="0.792156862745098" d="M 321.5 234 L 322.5 236 L 321.5 234 Z " /><path fill="rgb(0,0,0)" stroke="rgb(0,0,0)" stroke-width="1" opacity="0.792156862745098" d="M 206.5 239 L 204.5 242 L 206.5 239 Z " /><path fill="rgb(0,0,0)" stroke="rgb(0,0,0)" stroke-width="1" opacity="0.792156862745098" d="M 305.5 239 L 307.5 242 L 305.5 239 Z " /><path fill="rgb(0,0,0)" stroke="rgb(0,0,0)" stroke-width="1" opacity="0.792156862745098" d="M 251.5 241 L 249.5 244 L 251.5 241 Z " /><path fill="rgb(0,0,0)" stroke="rgb(0,0,0)" stroke-width="1" opacity="0.792156862745098" d="M 260.5 241 L 262.5 244 L 260.5 241 Z " /><path fill="rgb(0,0,0)" stroke="rgb(0,0,0)" stroke-width="1" opacity="0.792156862745098" d="M 203.5 243 L 202.5 245 L 203.5 243 Z " /><path fill="rgb(0,0,0)" stroke="rgb(0,0,0)" stroke-width="1" opacity="0.792156862745098" d="M 308.5 243 L 309.5 245 L 308.5 243 Z " /><path fill="rgb(0,0,0)" stroke="rgb(0,0,0)" stroke-width="1" opacity="0.792156862745098" d="M 201.5 246 L 200.5 248 L 201.5 246 Z " /><path fill="rgb(0,0,0)" stroke="rgb(0,0,0)" stroke-width="1" opacity="0.792156862745098" d="M 310.5 246 L 311.5 248 L 310.5 246 Z " /><path fill="rgb(0,0,0)" stroke="rgb(0,0,0)" stroke-width="1" opacity="0.792156862745098" d="M 235.5 249 L 233.5 252 L 235.5 249 Z " /><path fill="rgb(0,0,0)" stroke="rgb(0,0,0)" stroke-width="1" opacity="0.792156862745098" d="M 276.5 249 L 278.5 252 L 276.5 249 Z " /><path fill="rgb(0,0,0)" stroke="rgb(0,0,0)" stroke-width="1" opacity="0.792156862745098" d="M 278.5 260 L 276.5 263 L 278.5 260 Z " /><path fill="rgb(0,0,0)" stroke="rgb(0,0,0)" stroke-width="1" opacity="0.792156862745098" d="M 177.5 264 L 178 266.5 L 177 266.5 L 177.5 264 Z " /><path fill="rgb(0,0,0)" stroke="rgb(0,0,0)" stroke-width="1" opacity="0.792156862745098" d="M 334.5 264 L 335 266.5 L 334 266.5 L 334.5 264 Z " /><path fill="rgb(0,0,0)" stroke="rgb(0,0,0)" stroke-width="1" opacity="0.792156862745098" d="M 319.5 269 L 320 272.5 L 319 272.5 L 319.5 269 Z " /><path fill="rgb(0,0,0)" stroke="rgb(0,0,0)" stroke-width="1" opacity="0.792156862745098" d="M 192.5 270 L 193 272.5 L 192 272.5 L 192.5 270 Z " /><path fill="rgb(0,0,0)" stroke="rgb(0,0,0)" stroke-width="1" opacity="0.792156862745098" d="M 335.5 270 L 336 275.5 L 335 275.5 L 335.5 270 Z " /><path fill="rgb(0,0,0)" stroke="rgb(0,0,0)" stroke-width="1" opacity="0.792156862745098" d="M 176.5 271 L 177 276.5 L 176 276.5 L 176.5 271 Z " /><path fill="rgb(0,0,0)" stroke="rgb(0,0,0)" stroke-width="1" opacity="0.792156862745098" d="M 276.5 273 L 278.5 276 L 276.5 273 Z " /><path fill="rgb(0,0,0)" stroke="rgb(0,0,0)" stroke-width="1" opacity="0.792156862745098" d="M 335.5 283 L 336 288.5 L 335 288.5 L 335.5 283 Z " /><path fill="rgb(0,0,0)" stroke="rgb(0,0,0)" stroke-width="1" opacity="0.792156862745098" d="M 176.5 284 L 177 289.5 L 176 289.5 L 176.5 284 Z " /><path fill="rgb(0,0,0)" stroke="rgb(0,0,0)" stroke-width="1" opacity="0.792156862745098" d="M 233.5 284 L 235.5 287 L 233.5 284 Z " /><path fill="rgb(0,0,0)" stroke="rgb(0,0,0)" stroke-width="1" opacity="0.792156862745098" d="M 192.5 287 L 193 290.5 L 192 290.5 L 192.5 287 Z " /><path fill="rgb(0,0,0)" stroke="rgb(0,0,0)" stroke-width="1" opacity="0.792156862745098" d="M 319.5 287 L 320 290.5 L 319 290.5 L 319.5 287 Z " /><path fill="rgb(0,0,0)" stroke="rgb(0,0,0)" stroke-width="1" opacity="0.792156862745098" d="M 177.5 293 L 178 295.5 L 177 295.5 L 177.5 293 Z " /><path fill="rgb(0,0,0)" stroke="rgb(0,0,0)" stroke-width="1" opacity="0.792156862745098" d="M 334.5 293 L 335 295.5 L 334 295.5 L 334.5 293 Z " /><path fill="rgb(0,0,0)" stroke="rgb(0,0,0)" stroke-width="1" opacity="0.792156862745098" d="M 235.5 297 L 233.5 300 L 235.5 297 Z " /><path fill="rgb(0,0,0)" stroke="rgb(0,0,0)" stroke-width="1" opacity="0.792156862745098" d="M 233.5 308 L 235.5 311 L 233.5 308 Z " /><path fill="rgb(0,0,0)" stroke="rgb(0,0,0)" stroke-width="1" opacity="0.792156862745098" d="M 278.5 308 L 276.5 311 L 278.5 308 Z " /><path fill="rgb(0,0,0)" stroke="rgb(0,0,0)" stroke-width="1" opacity="0.792156862745098" d="M 200.5 312 L 201.5 314 L 200.5 312 Z " /><path fill="rgb(0,0,0)" stroke="rgb(0,0,0)" stroke-width="1" opacity="0.792156862745098" d="M 202.5 315 L 203.5 317 L 202.5 315 Z " /><path fill="rgb(0,0,0)" stroke="rgb(0,0,0)" stroke-width="1" opacity="0.792156862745098" d="M 309.5 315 L 308.5 317 L 309.5 315 Z " /><path fill="rgb(0,0,0)" stroke="rgb(0,0,0)" stroke-width="1" opacity="0.792156862745098" d="M 249.5 316 L 251.5 319 L 249.5 316 Z " /><path fill="rgb(0,0,0)" stroke="rgb(0,0,0)" stroke-width="1" opacity="0.792156862745098" d="M 262.5 316 L 260.5 319 L 262.5 316 Z " /><path fill="rgb(0,0,0)" stroke="rgb(0,0,0)" stroke-width="1" opacity="0.792156862745098" d="M 204.5 318 L 206.5 321 L 204.5 318 Z " /><path fill="rgb(0,0,0)" stroke="rgb(0,0,0)" stroke-width="1" opacity="0.792156862745098" d="M 186.5 319 L 187.5 321 L 186.5 319 Z " /><path fill="rgb(0,0,0)" stroke="rgb(0,0,0)" stroke-width="1" opacity="0.792156862745098" d="M 306.5 319 L 305.5 321 L 306.5 319 Z " /><path fill="rgb(0,0,0)" stroke="rgb(0,0,0)" stroke-width="1" opacity="0.792156862745098" d="M 325.5 319 L 324.5 321 L 325.5 319 Z " /><path fill="rgb(0,0,0)" stroke="rgb(0,0,0)" stroke-width="1" opacity="0.792156862745098" d="M 189.5 324 L 190.5 326 L 189.5 324 Z " /><path fill="rgb(0,0,0)" stroke="rgb(0,0,0)" stroke-width="1" opacity="0.792156862745098" d="M 209.5 324 L 210.5 326 L 209.5 324 Z " /><path fill="rgb(0,0,0)" stroke="rgb(0,0,0)" stroke-width="1" opacity="0.792156862745098" d="M 322.5 324 L 321.5 326 L 322.5 324 Z " /><path fill="rgb(0,0,0)" stroke="rgb(0,0,0)" stroke-width="1" opacity="0.792156862745098" d="M 192.5 328 L 194.5 331 L 192.5 328 Z " /><path fill="rgb(0,0,0)" stroke="rgb(0,0,0)" stroke-width="1" opacity="0.792156862745098" d="M 319.5 328 L 317.5 331 L 319.5 328 Z " /><path fill="rgb(0,0,0)" stroke="rgb(0,0,0)" stroke-width="1" opacity="0.792156862745098" d="M 215.5 329 L 217.5 332 L 215.5 329 Z " /><path fill="rgb(0,0,0)" stroke="rgb(0,0,0)" stroke-width="1" opacity="0.792156862745098" d="M 296.5 329 L 295.5 331 L 296.5 329 Z " /><path fill="rgb(0,0,0)" stroke="rgb(0,0,0)" stroke-width="1" opacity="0.792156862745098" d="M 219.5 332 L 220.5 334 L 219.5 332 Z " /><path fill="rgb(0,0,0)" stroke="rgb(0,0,0)" stroke-width="1" opacity="0.792156862745098" d="M 292.5 332 L 291.5 334 L 292.5 332 Z " /><path fill="rgb(0,0,0)" stroke="rgb(0,0,0)" stroke-width="1" opacity="0.792156862745098" d="M 196.5 333 L 202.5 340 L 196.5 333 Z " /><path fill="rgb(0,0,0)" stroke="rgb(0,0,0)" stroke-width="1" opacity="0.792156862745098" d="M 315.5 333 L 309.5 340 L 315.5 333 Z " /><path fill="rgb(0,0,0)" stroke="rgb(0,0,0)" stroke-width="1" opacity="0.792156862745098" d="M 222.5 334 L 223.5 336 L 222.5 334 Z " /><path fill="rgb(0,0,0)" stroke="rgb(0,0,0)" stroke-width="1" opacity="0.792156862745098" d="M 205.5 341 L 207.5 344 L 205.5 341 Z " /><path fill="rgb(0,0,0)" stroke="rgb(0,0,0)" stroke-width="1" opacity="0.792156862745098" d="M 305.5 342 L 304.5 344 L 305.5 342 Z " /><path fill="rgb(0,0,0)" stroke="rgb(0,0,0)" stroke-width="1" opacity="0.792156862745098" d="M 245.5 343 L 249 343.5 L 245.5 344 L 245.5 343 Z " /><path fill="rgb(0,0,0)" stroke="rgb(0,0,0)" stroke-width="1" opacity="0.792156862745098" d="M 263.5 343 L 267 343.5 L 263.5 344 L 263.5 343 Z " /><path fill="rgb(0,0,0)" stroke="rgb(0,0,0)" stroke-width="1" opacity="0.792156862745098" d="M 210.5 345 L 211.5 347 L 210.5 345 Z " /><path fill="rgb(0,0,0)" stroke="rgb(0,0,0)" stroke-width="1" opacity="0.792156862745098" d="M 301.5 345 L 300.5 347 L 301.5 345 Z " /><path fill="rgb(0,0,0)" stroke="rgb(0,0,0)" stroke-width="1" opacity="0.792156862745098" d="M 215.5 348 L 216.5 350 L 215.5 348 Z " /><path fill="rgb(0,0,0)" stroke="rgb(0,0,0)" stroke-width="1" opacity="0.792156862745098" d="M 240.5 358 L 243 358.5 L 240.5 359 L 240.5 358 Z " /><path fill="rgb(0,0,0)" stroke="rgb(0,0,0)" stroke-width="1" opacity="0.792156862745098" d="M 269.5 358 L 272 358.5 L 269.5 359 L 269.5 358 Z " /><path fill="rgb(0,0,0)" stroke="rgb(0,0,0)" stroke-width="1" opacity="0.792156862745098" d="M 246.5 359 L 252 359.5 L 246.5 360 L 246.5 359 Z " /><path fill="rgb(0,0,0)" stroke="rgb(0,0,0)" stroke-width="1" opacity="0.792156862745098" d="M 259.5 359 L 265 359.5 L 259.5 360 L 259.5 359 Z " /><path fill="rgb(0,0,0)" stroke="rgb(0,0,0)" stroke-width="1" opacity="0.792156862745098" d="M 27.5 369 L 25.5 372 L 27.5 369 Z " /><path fill="rgb(0,0,0)" stroke="rgb(0,0,0)" stroke-width="1" opacity="0.792156862745098" d="M 132.5 369 L 134.5 372 L 132.5 369 Z " /><path fill="rgb(0,0,0)" stroke="rgb(0,0,0)" stroke-width="1" opacity="0.792156862745098" d="M 379.5 369 L 377.5 372 L 379.5 369 Z " /><path fill="rgb(0,0,0)" stroke="rgb(0,0,0)" stroke-width="1" opacity="0.792156862745098" d="M 484.5 369 L 486.5 372 L 484.5 369 Z " /><path fill="rgb(0,0,0)" stroke="rgb(0,0,0)" stroke-width="1" opacity="0.792156862745098" d="M 11.5 393 L 9.5 396 L 11.5 393 Z " /><path fill="rgb(0,0,0)" stroke="rgb(0,0,0)" stroke-width="1" opacity="0.792156862745098" d="M 500.5 393 L 502.5 396 L 500.5 393 Z " /><path fill="rgb(0,0,0)" stroke="rgb(0,0,0)" stroke-width="1" opacity="0.792156862745098" d="M 217.5 452 L 219.5 455 L 217.5 452 Z " /><path fill="rgb(0,0,0)" stroke="rgb(0,0,0)" stroke-width="1" opacity="0.792156862745098" d="M 294.5 452 L 292.5 455 L 294.5 452 Z " /><path fill="rgb(0,0,0)" stroke="rgb(0,0,0)" stroke-width="1" opacity="0.792156862745098" d="M 8.5 470 L 9 473.5 L 8 473.5 L 8.5 470 Z " /><path fill="rgb(0,0,0)" stroke="rgb(0,0,0)" stroke-width="1" opacity="0.792156862745098" d="M 503.5 470 L 504 473.5 L 503 473.5 L 503.5 470 Z " /><path fill="rgb(0,0,0)" stroke="rgb(0,0,0)" stroke-width="1" opacity="0.792156862745098" d="M 487.5 471 L 488 472.5 L 486 473.5 L 487.5 471 Z " /><path fill="rgb(0,0,0)" stroke="rgb(0,0,0)" stroke-width="1" opacity="0.792156862745098" d="M 26.5 475 L 28.5 478 L 26.5 475 Z " /><path fill="rgb(0,0,0)" stroke="rgb(0,0,0)" stroke-width="1" opacity="0.792156862745098" d="M 485.5 475 L 483.5 478 L 485.5 475 Z " /><path fill="rgb(0,0,0)" stroke="rgb(0,0,0)" stroke-width="1" opacity="0.792156862745098" d="M 30.5 478 L 33 479.5 L 31.5 480 L 30.5 478 Z " /><path fill="rgb(0,0,0)" stroke="rgb(0,0,0)" stroke-width="1" opacity="0.792156862745098" d="M 481.5 478 L 480.5 480 L 479 479.5 L 481.5 478 Z " /><path fill="rgb(0,0,0)" stroke="rgb(0,0,0)" stroke-width="1" opacity="0.792156862745098" d="M 11.5 481 L 12.5 483 L 11.5 481 Z " /><path fill="rgb(0,0,0)" stroke="rgb(0,0,0)" stroke-width="1" opacity="0.792156862745098" d="M 500.5 481 L 499.5 483 L 500.5 481 Z " /><path fill="rgb(0,0,0)" stroke="rgb(0,0,0)" stroke-width="1" opacity="0.792156862745098" d="M 13.5 484 L 15.5 487 L 13.5 484 Z " /><path fill="rgb(0,0,0)" stroke="rgb(0,0,0)" stroke-width="1" opacity="0.792156862745098" d="M 498.5 484 L 496.5 487 L 498.5 484 Z " /><path fill="rgb(0,0,0)" stroke="rgb(0,0,0)" stroke-width="1" opacity="0.792156862745098" d="M 17.5 488 L 19.5 491 L 17.5 488 Z " /><path fill="rgb(0,0,0)" stroke="rgb(0,0,0)" stroke-width="1" opacity="0.792156862745098" d="M 494.5 488 L 492.5 491 L 494.5 488 Z " /><path fill="rgb(0,0,0)" stroke="rgb(0,0,0)" stroke-width="1" opacity="0.792156862745098" d="M 21.5 491 L 22.5 493 L 21.5 491 Z " /><path fill="rgb(0,0,0)" stroke="rgb(0,0,0)" stroke-width="1" opacity="0.792156862745098" d="M 490.5 491 L 489.5 493 L 490.5 491 Z " /><path fill="rgb(0,0,0)" stroke="rgb(0,0,0)" stroke-width="1" opacity="0.792156862745098" d="M 30.5 495 L 34 495.5 L 30.5 496 L 30.5 495 Z " /><path fill="rgb(0,0,0)" stroke="rgb(0,0,0)" stroke-width="1" opacity="0.792156862745098" d="M 478.5 495 L 482 495.5 L 478.5 496 L 478.5 495 Z " /><path fill="rgb(0,0,0)" stroke="rgb(0,0,0)" stroke-width="1" opacity="1" d="M 255.5 8 L 497.5 80 L 503 84.5 L 504 87.5 L 504 136.5 L 499.5 143 L 496.5 144 L 480 144 L 480 160.5 L 475.5 167 L 464 168 L 464 367.5 L 464.5 368 L 480.5 368 L 487 372.5 L 488 375.5 L 488 392 Q 499 390.2 503 396.5 L 504 399.5 L 504 469.5 L 502 478.5 L 496 488 L 486.5 494 L 477.5 496 L 34.5 496 L 25.5 494 L 16 488 L 10 478.5 L 8 469.5 L 8 399.5 L 12.5 393 L 24 392 L 24 375.5 L 28.5 369 L 31.5 368 L 48 368 L 48 168.5 L 47.5 168 L 39.5 168 L 33 163.5 L 32 160.5 L 32 144 L 15.5 144 L 9 139.5 L 8 136.5 L 8 87.5 L 12.5 81 L 255.5 8 Z M 255 24 L 28 93 L 24 94 L 24 128 L 488 128 L 488 128 L 488 93 L 445 81 L 435 77 L 265 26 L 255 24 Z M 48 144 L 48 152 L 49 152 L 464 152 L 464 145 L 464 144 L 48 144 Z M 64 168 L 64 368 L 65 368 L 96 368 L 96 169 L 96 168 L 64 168 Z M 112 168 L 112 368 L 129 368 L 132 369 L 136 376 L 136 392 L 137 392 L 376 392 L 376 376 L 377 373 L 384 368 L 400 368 L 400 168 L 112 168 Z M 416 168 L 416 368 L 417 368 L 448 368 L 448 169 L 448 168 L 416 168 Z M 40 384 L 40 392 L 41 392 L 120 392 L 120 385 L 120 384 L 40 384 Z M 392 384 L 392 392 L 393 392 L 472 392 L 472 385 L 472 384 L 392 384 Z M 24 408 L 24 416 L 25 416 L 488 416 L 488 409 L 488 408 L 24 408 Z M 24 432 L 24 473 L 26 476 L 32 480 L 481 480 L 484 478 L 488 473 L 488 433 L 488 432 L 301 432 L 295 452 L 289 456 L 224 456 L 221 455 L 216 450 L 211 435 L 211 432 L 24 432 Z M 227 432 L 229 438 L 230 440 L 283 440 L 285 434 L 285 432 L 227 432 Z " /><path fill="rgb(0,0,0)" stroke="rgb(0,0,0)" stroke-width="1" opacity="1" d="M 253.5 200 L 268.5 201 L 286.5 206 Q 305 214 317 228.5 Q 334.8 247.2 336 282.5 L 335 283.5 L 334 297.5 L 329 312.5 Q 320.9 330.4 306.5 342 Q 287.6 359.1 252.5 360 L 251.5 359 L 238.5 358 L 223.5 353 Q 206.3 345.2 195 331.5 L 182 310.5 L 177 292.5 L 176 277.5 L 177 276.5 L 178 262.5 L 182 249.5 Q 190.4 230.4 205.5 218 L 225.5 206 L 238.5 202 L 252.5 201 L 253.5 200 Z M 247 216 L 232 220 L 224 224 L 210 234 L 200 248 L 196 256 L 192 271 L 192 291 L 194 299 Q 199 314 209 325 Q 222 339 246 344 L 267 344 L 275 342 Q 287 338 296 331 Q 314 317 320 291 L 320 270 L 318 262 Q 313 245 302 235 Q 291 223 275 218 L 267 216 L 247 216 Z " /><path fill="rgb(0,0,0)" stroke="rgb(0,0,0)" stroke-width="1" opacity="1" d="M 255.5 240 Q 261.1 240.5 263 244.5 L 264.5 248 Q 275.6 246.4 279 252.5 L 280 256.5 L 275.5 263 L 272.5 264 L 248 264 L 248 271.5 L 248.5 272 L 272.5 272 L 279 276.5 L 280 279.5 L 280 304.5 L 275.5 311 L 264.5 312 L 263 313.5 Q 263.5 318.5 259.5 319 L 255.5 320 L 249 315.5 L 247.5 312 Q 236.4 313.6 233 307.5 L 232 303.5 L 236.5 297 L 239.5 296 L 264 296 L 264 288.5 L 263.5 288 L 239.5 288 L 233 283.5 L 232 280.5 L 232 255.5 L 236.5 249 L 247.5 248 L 249 246.5 Q 248.5 241.5 252.5 241 L 255.5 240 Z " /></svg>