<?xml version="1.0" standalone="no"?>
<!DOCTYPE svg PUBLIC "-//W3C//DTD SVG 20010904//EN"
 "http://www.w3.org/TR/2001/REC-SVG-20010904/DTD/svg10.dtd">
<svg version="1.0" xmlns="http://www.w3.org/2000/svg"
 width="512.000000pt" height="512.000000pt" viewBox="0 0 512.000000 512.000000"
 preserveAspectRatio="xMidYMid meet">

<g transform="translate(0.000000,512.000000) scale(0.100000,-0.100000)"
fill="#000000" stroke="none">
<path d="M1580 4786 c-26 -6 -62 -22 -80 -33 -19 -12 -283 -271 -586 -575
-484 -486 -554 -559 -570 -603 -18 -48 -19 -107 -19 -1530 l0 -1480 26 -56
c33 -71 87 -125 158 -158 l56 -26 660 -2 c409 -1 646 2 622 8 -123 29 -224
140 -243 266 l-6 43 -479 0 -479 0 0 1360 0 1359 438 3 437 3 56 26 c71 33
125 87 158 158 l26 56 3 438 3 437 879 0 880 0 0 -656 c0 -730 -3 -698 68
-752 51 -39 133 -39 184 0 72 55 69 17 66 790 l-3 693 -26 56 c-33 71 -87 125
-158 158 l-56 26 -985 2 c-756 1 -996 -1 -1030 -11z m-140 -821 l0 -285 -287
0 -288 0 285 285 c157 157 286 285 287 285 2 0 3 -128 3 -285z"/>
</g>
</svg>
