<?xml version="1.0" standalone="no"?>
<!DOCTYPE svg PUBLIC "-//W3C//DTD SVG 20010904//EN"
 "http://www.w3.org/TR/2001/REC-SVG-20010904/DTD/svg10.dtd">
<svg version="1.0" xmlns="http://www.w3.org/2000/svg"
 width="50.000000pt" height="50.000000pt" viewBox="0 0 50.000000 50.000000"
 preserveAspectRatio="xMidYMid meet">

<g transform="translate(0.000000,50.000000) scale(0.100000,-0.100000)"
fill="#000000" stroke="none">
<path d="M90 476 c0 -20 4 -22 26 -18 36 7 77 -33 72 -70 -6 -38 12 -35 51 7
17 19 39 35 49 35 23 0 42 -19 42 -41 0 -26 -68 -108 -95 -115 -45 -11 -26
-24 35 -24 54 0 60 2 60 21 0 18 5 20 48 17 38 -2 47 -6 46 -20 -1 -13 6 -18
27 -18 l29 0 0 125 0 125 -195 0 -195 0 0 -24z"/>
<path d="M86 424 c-31 -30 -9 -84 34 -84 24 0 50 26 50 50 0 24 -26 50 -50 50
-10 0 -26 -7 -34 -16z"/>
<path d="M245 374 c-28 -34 -35 -36 -100 -41 -38 -3 -76 -10 -82 -16 -8 -5
-13 -33 -13 -66 l0 -57 43 -12 c34 -11 49 -11 70 -1 23 10 27 18 27 54 0 38 3
44 30 55 37 15 94 85 86 105 -9 24 -29 17 -61 -21z"/>
<path d="M210 220 c0 -19 7 -20 145 -20 138 0 145 1 145 20 0 19 -7 20 -145
20 -138 0 -145 -1 -145 -20z"/>
<path d="M40 155 c-7 -8 -10 -27 -7 -42 3 -16 0 -34 -8 -43 -7 -8 -15 -26 -17
-40 l-3 -25 245 0 245 0 -3 25 c-2 14 -9 31 -15 39 -7 8 -12 30 -12 49 0 41
-25 63 -53 46 -11 -7 -17 -24 -17 -47 0 -20 -6 -42 -12 -48 -19 -19 -38 5 -38
48 0 42 -25 65 -52 47 -12 -7 -18 -24 -18 -47 0 -43 -19 -67 -38 -48 -6 6 -12
28 -12 48 0 42 -25 65 -52 47 -12 -7 -18 -24 -18 -47 0 -45 -17 -66 -39 -48
-10 9 -13 22 -9 42 9 49 -37 80 -67 44z"/>
</g>
</svg>
