<?xml version="1.0" standalone="no"?>
<!DOCTYPE svg PUBLIC "-//W3C//DTD SVG 20010904//EN"
 "http://www.w3.org/TR/2001/REC-SVG-20010904/DTD/svg10.dtd">
<svg version="1.0" xmlns="http://www.w3.org/2000/svg"
 width="68.000000pt" height="68.000000pt" viewBox="0 0 68.000000 68.000000"
 preserveAspectRatio="xMidYMid meet">

<g transform="translate(0.000000,68.000000) scale(0.100000,-0.100000)"
fill="#000000" stroke="none">
<path d="M45 636 l-25 -25 0 -241 c0 -303 -16 -280 186 -280 141 0 147 -1 176
-25 69 -58 163 -52 229 14 59 59 64 141 14 215 -24 35 -25 45 -25 175 0 200
23 185 -284 189 l-246 3 -25 -25z m103 -59 c2 -12 -3 -17 -17 -17 -12 0 -21 6
-21 13 0 31 32 34 38 4z m221 14 c27 -17 -1 -31 -65 -31 -47 0 -64 4 -64 13 0
8 3 17 7 20 9 10 106 8 122 -2z m138 -7 c6 -16 -15 -37 -29 -28 -4 3 -8 14 -8
25 0 23 28 26 37 3z m73 -165 c0 -74 -2 -80 -17 -73 -18 9 -95 10 -188 3 -47
-4 -50 -6 -53 -33 -2 -16 1 -33 6 -38 6 -6 6 -22 0 -46 -9 -34 -7 -67 7 -104
7 -17 -4 -18 -132 -18 -95 0 -143 4 -151 12 -8 8 -12 66 -12 195 l0 183 270 0
270 0 0 -81z m-97 -91 c4 -10 8 -10 15 1 12 17 52 5 52 -15 0 -10 6 -13 19 -9
22 7 44 -16 35 -39 -4 -10 -1 -16 9 -16 21 0 33 -40 16 -51 -11 -7 -11 -11 -2
-17 16 -10 5 -52 -14 -52 -8 0 -11 -5 -8 -11 10 -14 -24 -49 -41 -42 -8 3 -14
-1 -14 -10 0 -23 -107 -21 -119 2 -5 9 -13 12 -17 8 -11 -11 -43 23 -37 39 3
8 -1 14 -10 14 -17 0 -29 47 -13 54 8 3 7 7 -1 13 -16 11 -5 53 14 53 9 0 13
6 10 14 -8 21 17 50 37 43 10 -4 16 -1 16 7 0 24 45 35 53 14z"/>
<path d="M331 456 c-7 -8 -11 -27 -9 -43 3 -25 7 -28 45 -31 39 -3 43 -1 49
24 4 15 2 34 -3 43 -13 21 -66 26 -82 7z"/>
<path d="M452 458 c-14 -14 -16 -47 -3 -66 5 -8 23 -12 47 -10 34 3 39 6 42
31 2 16 -2 35 -9 43 -14 17 -60 19 -77 2z"/>
<path d="M87 343 c-4 -3 -7 -21 -7 -39 0 -27 5 -35 24 -40 47 -11 61 -2 64 44
l3 42 -39 0 c-21 0 -42 -3 -45 -7z"/>
<path d="M207 343 c-12 -12 -7 -60 7 -72 8 -7 27 -11 43 -9 25 3 28 7 31 46
l3 42 -39 0 c-21 0 -42 -3 -45 -7z"/>
<path d="M92 232 c-8 -6 -12 -23 -10 -43 3 -32 5 -34 46 -37 l43 -3 -3 43 c-3
40 -5 43 -33 46 -16 1 -36 -2 -43 -6z"/>
<path d="M211 226 c-7 -8 -11 -27 -9 -43 3 -25 7 -28 46 -31 l43 -3 -3 43 c-3
40 -5 43 -34 46 -18 2 -36 -3 -43 -12z"/>
<path d="M480 245 c0 -24 -8 -44 -23 -59 l-24 -24 37 5 c22 3 40 1 44 -6 4 -6
11 -11 16 -11 6 0 1 16 -10 35 -11 20 -20 49 -20 65 0 17 -4 30 -10 30 -5 0
-10 -16 -10 -35z"/>
</g>
</svg>
