<svg width="512" height="512" version="1.1" xmlns="http://www.w3.org/2000/svg" desc="Created with imagetracer.js version 1.2.6" ><path fill="rgb(0,0,0)" stroke="rgb(0,0,0)" stroke-width="1" opacity="0" d="M 0 0 L 512 0 L 512 512 L 0 512 L 0 0 Z M 186 57 Q 175 59 169 65 Q 160 71 156 82 L 153 97 L 156 112 L 163 123 Q 172 133 188 136 L 204 135 L 218 128 Q 230 119 233 101 Q 234 83 226 74 Q 219 64 208 59 Q 199 55 186 57 Z M 158 148 Q 142 151 133 159 Q 119 169 115 189 L 112 233 L 111 234 L 111 245 L 110 246 L 110 257 L 109 258 L 109 269 L 108 270 Q 106 280 110 286 L 119 292 L 130 291 L 136 285 L 138 277 L 143 203 L 145 197 Q 146 194 151 195 L 152 198 L 152 441 L 155 448 Q 159 453 167 455 Q 175 456 180 452 Q 186 448 188 440 L 188 304 L 189 303 L 199 303 L 199 440 L 201 446 L 212 454 Q 223 456 228 451 Q 234 447 235 439 L 235 197 Q 236 194 240 194 L 244 202 L 254 256 L 258 267 L 267 272 Q 275 273 279 270 Q 283 267 285 261 L 285 255 L 283 250 L 271 189 Q 267 175 260 166 Q 253 157 244 152 L 230 148 L 158 148 Z M 336 230 L 323 236 L 315 244 L 310 255 Q 312 260 309 262 L 310 271 L 315 282 Q 322 291 336 295 L 349 295 L 361 290 Q 372 283 375 267 Q 376 251 369 244 Q 363 235 353 231 Q 346 229 336 230 Z M 281 274 L 276 276 L 270 283 L 270 292 L 278 306 Q 288 320 308 325 L 309 327 L 309 445 L 311 450 L 320 456 L 330 455 Q 336 451 338 443 L 338 380 L 339 379 L 346 379 L 346 446 L 348 450 L 356 455 Q 364 456 368 453 Q 372 450 374 444 L 374 337 L 376 336 L 380 348 L 381 366 L 383 373 L 390 378 L 398 377 L 403 371 L 403 349 Q 401 347 402 343 Q 399 328 391 318 Q 385 308 373 305 L 369 304 L 333 304 L 332 303 L 324 303 Q 311 301 304 294 Q 297 288 293 280 Q 290 274 281 274 Z " /><path fill="rgb(0,0,0)" stroke="rgb(0,0,0)" stroke-width="1" opacity="0.7529411764705882" d="M 185.5 57 L 188 57.5 L 185.5 58 L 185.5 57 Z " /><path fill="rgb(0,0,0)" stroke="rgb(0,0,0)" stroke-width="1" opacity="0.7529411764705882" d="M 198.5 57 L 201 57.5 L 198.5 58 L 198.5 57 Z " /><path fill="rgb(0,0,0)" stroke="rgb(0,0,0)" stroke-width="1" opacity="0.7529411764705882" d="M 216.5 64 L 217.5 66 L 216.5 64 Z " /><path fill="rgb(0,0,0)" stroke="rgb(0,0,0)" stroke-width="1" opacity="0.7529411764705882" d="M 168.5 65 L 162.5 72 L 168.5 65 Z " /><path fill="rgb(0,0,0)" stroke="rgb(0,0,0)" stroke-width="1" opacity="0.7529411764705882" d="M 223.5 71 L 225.5 74 L 223.5 71 Z " /><path fill="rgb(0,0,0)" stroke="rgb(0,0,0)" stroke-width="1" opacity="0.7529411764705882" d="M 160.5 74 L 159.5 76 L 160.5 74 Z " /><path fill="rgb(0,0,0)" stroke="rgb(0,0,0)" stroke-width="1" opacity="0.7529411764705882" d="M 154.5 87 L 155 89.5 L 154 89.5 L 154.5 87 Z " /><path fill="rgb(0,0,0)" stroke="rgb(0,0,0)" stroke-width="1" opacity="0.7529411764705882" d="M 232.5 91 L 233 100.5 L 232 100.5 L 232.5 91 Z " /><path fill="rgb(0,0,0)" stroke="rgb(0,0,0)" stroke-width="1" opacity="0.7529411764705882" d="M 158.5 115 L 159.5 117 L 158.5 115 Z " /><path fill="rgb(0,0,0)" stroke="rgb(0,0,0)" stroke-width="1" opacity="0.7529411764705882" d="M 160.5 118 L 161.5 120 L 160.5 118 Z " /><path fill="rgb(0,0,0)" stroke="rgb(0,0,0)" stroke-width="1" opacity="0.7529411764705882" d="M 224.5 120 L 217.5 128 L 224.5 120 Z " /><path fill="rgb(0,0,0)" stroke="rgb(0,0,0)" stroke-width="1" opacity="0.7529411764705882" d="M 163.5 122 L 167.5 127 L 163.5 122 Z " /><path fill="rgb(0,0,0)" stroke="rgb(0,0,0)" stroke-width="1" opacity="0.7529411764705882" d="M 170.5 128 L 171.5 130 L 170.5 128 Z " /><path fill="rgb(0,0,0)" stroke="rgb(0,0,0)" stroke-width="1" opacity="0.7529411764705882" d="M 212.5 130 L 211.5 132 L 210 131.5 L 212.5 130 Z " /><path fill="rgb(0,0,0)" stroke="rgb(0,0,0)" stroke-width="1" opacity="0.7529411764705882" d="M 187.5 135 L 193 135.5 L 187.5 136 L 187.5 135 Z " /><path fill="rgb(0,0,0)" stroke="rgb(0,0,0)" stroke-width="1" opacity="0.7529411764705882" d="M 194.5 135 L 199 135.5 L 194.5 136 L 194.5 135 Z " /><path fill="rgb(0,0,0)" stroke="rgb(0,0,0)" stroke-width="1" opacity="0.7529411764705882" d="M 157.5 148 L 162 148.5 L 157.5 149 L 157.5 148 Z " /><path fill="rgb(0,0,0)" stroke="rgb(0,0,0)" stroke-width="1" opacity="0.7529411764705882" d="M 225.5 148 L 230 148.5 L 225.5 149 L 225.5 148 Z " /><path fill="rgb(0,0,0)" stroke="rgb(0,0,0)" stroke-width="1" opacity="0.7529411764705882" d="M 141.5 153 L 140.5 155 L 141.5 153 Z " /><path fill="rgb(0,0,0)" stroke="rgb(0,0,0)" stroke-width="1" opacity="0.7529411764705882" d="M 248.5 155 L 249.5 157 L 248.5 155 Z " /><path fill="rgb(0,0,0)" stroke="rgb(0,0,0)" stroke-width="1" opacity="0.7529411764705882" d="M 136.5 156 L 135.5 158 L 136.5 156 Z " /><path fill="rgb(0,0,0)" stroke="rgb(0,0,0)" stroke-width="1" opacity="0.7529411764705882" d="M 251.5 157 L 259.5 166 L 251.5 157 Z " /><path fill="rgb(0,0,0)" stroke="rgb(0,0,0)" stroke-width="1" opacity="0.7529411764705882" d="M 132.5 159 L 126.5 166 L 132.5 159 Z " /><path fill="rgb(0,0,0)" stroke="rgb(0,0,0)" stroke-width="1" opacity="0.7529411764705882" d="M 124.5 168 L 123.5 170 L 124.5 168 Z " /><path fill="rgb(0,0,0)" stroke="rgb(0,0,0)" stroke-width="1" opacity="0.7529411764705882" d="M 261.5 168 L 262.5 170 L 261.5 168 Z " /><path fill="rgb(0,0,0)" stroke="rgb(0,0,0)" stroke-width="1" opacity="0.7529411764705882" d="M 115.5 188 L 116 191.5 L 115 191.5 L 115.5 188 Z " /><path fill="rgb(0,0,0)" stroke="rgb(0,0,0)" stroke-width="1" opacity="0.7529411764705882" d="M 147.5 194 L 150 194.5 L 147.5 195 L 147.5 194 Z " /><path fill="rgb(0,0,0)" stroke="rgb(0,0,0)" stroke-width="1" opacity="0.7529411764705882" d="M 236.5 194 L 235.5 196 L 236.5 194 Z " /><path fill="rgb(0,0,0)" stroke="rgb(0,0,0)" stroke-width="1" opacity="0.7529411764705882" d="M 240.5 194 L 241.5 196 L 240.5 194 Z " /><path fill="rgb(0,0,0)" stroke="rgb(0,0,0)" stroke-width="1" opacity="0.7529411764705882" d="M 234.5 197 L 235 438.5 L 234 438.5 L 234.5 197 Z " /><path fill="rgb(0,0,0)" stroke="rgb(0,0,0)" stroke-width="1" opacity="0.7529411764705882" d="M 272.5 197 L 273 199.5 L 272 199.5 L 272.5 197 Z " /><path fill="rgb(0,0,0)" stroke="rgb(0,0,0)" stroke-width="1" opacity="0.7529411764705882" d="M 114.5 198 L 115 203.5 L 114 203.5 L 114.5 198 Z " /><path fill="rgb(0,0,0)" stroke="rgb(0,0,0)" stroke-width="1" opacity="0.7529411764705882" d="M 143.5 199 L 144 201.5 L 143 201.5 L 143.5 199 Z " /><path fill="rgb(0,0,0)" stroke="rgb(0,0,0)" stroke-width="1" opacity="0.7529411764705882" d="M 152.5 199 L 153 440.5 L 152 440.5 L 152.5 199 Z " /><path fill="rgb(0,0,0)" stroke="rgb(0,0,0)" stroke-width="1" opacity="0.7529411764705882" d="M 273.5 202 L 274 204.5 L 273 204.5 L 273.5 202 Z " /><path fill="rgb(0,0,0)" stroke="rgb(0,0,0)" stroke-width="1" opacity="0.7529411764705882" d="M 244.5 203 L 245 205.5 L 244 205.5 L 244.5 203 Z " /><path fill="rgb(0,0,0)" stroke="rgb(0,0,0)" stroke-width="1" opacity="0.7529411764705882" d="M 142.5 208 L 143 213.5 L 142 213.5 L 142.5 208 Z " /><path fill="rgb(0,0,0)" stroke="rgb(0,0,0)" stroke-width="1" opacity="0.7529411764705882" d="M 245.5 208 L 246 210.5 L 245 210.5 L 245.5 208 Z " /><path fill="rgb(0,0,0)" stroke="rgb(0,0,0)" stroke-width="1" opacity="0.7529411764705882" d="M 113.5 210 L 114 214.5 L 113 214.5 L 113.5 210 Z " /><path fill="rgb(0,0,0)" stroke="rgb(0,0,0)" stroke-width="1" opacity="0.7529411764705882" d="M 246.5 213 L 247 215.5 L 246 215.5 L 246.5 213 Z " /><path fill="rgb(0,0,0)" stroke="rgb(0,0,0)" stroke-width="1" opacity="0.7529411764705882" d="M 276.5 216 L 277 218.5 L 276 218.5 L 276.5 216 Z " /><path fill="rgb(0,0,0)" stroke="rgb(0,0,0)" stroke-width="1" opacity="0.7529411764705882" d="M 247.5 218 L 248 220.5 L 247 220.5 L 247.5 218 Z " /><path fill="rgb(0,0,0)" stroke="rgb(0,0,0)" stroke-width="1" opacity="0.7529411764705882" d="M 141.5 220 L 142 226.5 L 141 226.5 L 141.5 220 Z " /><path fill="rgb(0,0,0)" stroke="rgb(0,0,0)" stroke-width="1" opacity="0.7529411764705882" d="M 112.5 221 L 113 226.5 L 112 226.5 L 112.5 221 Z " /><path fill="rgb(0,0,0)" stroke="rgb(0,0,0)" stroke-width="1" opacity="0.7529411764705882" d="M 277.5 221 L 278 223.5 L 277 223.5 L 277.5 221 Z " /><path fill="rgb(0,0,0)" stroke="rgb(0,0,0)" stroke-width="1" opacity="0.7529411764705882" d="M 248.5 223 L 249 225.5 L 248 225.5 L 248.5 223 Z " /><path fill="rgb(0,0,0)" stroke="rgb(0,0,0)" stroke-width="1" opacity="0.7529411764705882" d="M 249.5 228 L 250 230.5 L 249 230.5 L 249.5 228 Z " /><path fill="rgb(0,0,0)" stroke="rgb(0,0,0)" stroke-width="1" opacity="0.7529411764705882" d="M 335.5 230 L 339 230.5 L 335.5 231 L 335.5 230 Z " /><path fill="rgb(0,0,0)" stroke="rgb(0,0,0)" stroke-width="1" opacity="0.7529411764705882" d="M 346.5 230 L 349 230.5 L 346.5 231 L 346.5 230 Z " /><path fill="rgb(0,0,0)" stroke="rgb(0,0,0)" stroke-width="1" opacity="0.7529411764705882" d="M 111.5 233 L 112 238.5 L 111 238.5 L 111.5 233 Z " /><path fill="rgb(0,0,0)" stroke="rgb(0,0,0)" stroke-width="1" opacity="0.7529411764705882" d="M 140.5 233 L 141 238.5 L 140 238.5 L 140.5 233 Z " /><path fill="rgb(0,0,0)" stroke="rgb(0,0,0)" stroke-width="1" opacity="0.7529411764705882" d="M 250.5 233 L 251 235.5 L 250 235.5 L 250.5 233 Z " /><path fill="rgb(0,0,0)" stroke="rgb(0,0,0)" stroke-width="1" opacity="0.7529411764705882" d="M 280.5 235 L 281 237.5 L 280 237.5 L 280.5 235 Z " /><path fill="rgb(0,0,0)" stroke="rgb(0,0,0)" stroke-width="1" opacity="0.7529411764705882" d="M 360.5 235 L 361.5 237 L 360.5 235 Z " /><path fill="rgb(0,0,0)" stroke="rgb(0,0,0)" stroke-width="1" opacity="0.7529411764705882" d="M 322.5 236 L 320.5 239 L 322.5 236 Z " /><path fill="rgb(0,0,0)" stroke="rgb(0,0,0)" stroke-width="1" opacity="0.7529411764705882" d="M 251.5 238 L 252 240.5 L 251 240.5 L 251.5 238 Z " /><path fill="rgb(0,0,0)" stroke="rgb(0,0,0)" stroke-width="1" opacity="0.7529411764705882" d="M 281.5 240 L 282 242.5 L 281 242.5 L 281.5 240 Z " /><path fill="rgb(0,0,0)" stroke="rgb(0,0,0)" stroke-width="1" opacity="0.7529411764705882" d="M 318.5 240 L 315.5 244 L 318.5 240 Z " /><path fill="rgb(0,0,0)" stroke="rgb(0,0,0)" stroke-width="1" opacity="0.7529411764705882" d="M 367.5 242 L 368.5 244 L 367.5 242 Z " /><path fill="rgb(0,0,0)" stroke="rgb(0,0,0)" stroke-width="1" opacity="0.7529411764705882" d="M 252.5 243 L 253 245.5 L 252 245.5 L 252.5 243 Z " /><path fill="rgb(0,0,0)" stroke="rgb(0,0,0)" stroke-width="1" opacity="0.7529411764705882" d="M 110.5 245 L 111 250.5 L 110 250.5 L 110.5 245 Z " /><path fill="rgb(0,0,0)" stroke="rgb(0,0,0)" stroke-width="1" opacity="0.7529411764705882" d="M 139.5 246 L 140 251.5 L 139 251.5 L 139.5 246 Z " /><path fill="rgb(0,0,0)" stroke="rgb(0,0,0)" stroke-width="1" opacity="0.7529411764705882" d="M 253.5 248 L 254 250.5 L 253 250.5 L 253.5 248 Z " /><path fill="rgb(0,0,0)" stroke="rgb(0,0,0)" stroke-width="1" opacity="0.7529411764705882" d="M 254.5 253 L 255 255.5 L 254 255.5 L 254.5 253 Z " /><path fill="rgb(0,0,0)" stroke="rgb(0,0,0)" stroke-width="1" opacity="0.7529411764705882" d="M 284.5 254 L 285 260.5 L 284 260.5 L 284.5 254 Z " /><path fill="rgb(0,0,0)" stroke="rgb(0,0,0)" stroke-width="1" opacity="0.7529411764705882" d="M 109.5 257 L 110 262.5 L 109 262.5 L 109.5 257 Z " /><path fill="rgb(0,0,0)" stroke="rgb(0,0,0)" stroke-width="1" opacity="0.7529411764705882" d="M 138.5 258 L 139 264.5 L 138 264.5 L 138.5 258 Z " /><path fill="rgb(0,0,0)" stroke="rgb(0,0,0)" stroke-width="1" opacity="0.7529411764705882" d="M 374.5 258 L 375 266.5 L 374 266.5 L 374.5 258 Z " /><path fill="rgb(0,0,0)" stroke="rgb(0,0,0)" stroke-width="1" opacity="0.7529411764705882" d="M 309.5 261 L 310 263.5 L 309 263.5 L 309.5 261 Z " /><path fill="rgb(0,0,0)" stroke="rgb(0,0,0)" stroke-width="1" opacity="0.7529411764705882" d="M 282.5 265 L 278.5 270 L 282.5 265 Z " /><path fill="rgb(0,0,0)" stroke="rgb(0,0,0)" stroke-width="1" opacity="0.7529411764705882" d="M 258.5 266 L 260.5 269 L 258.5 266 Z " /><path fill="rgb(0,0,0)" stroke="rgb(0,0,0)" stroke-width="1" opacity="0.7529411764705882" d="M 108.5 269 L 109 274.5 L 108 274.5 L 108.5 269 Z " /><path fill="rgb(0,0,0)" stroke="rgb(0,0,0)" stroke-width="1" opacity="0.7529411764705882" d="M 262.5 269 L 263.5 271 L 262.5 269 Z " /><path fill="rgb(0,0,0)" stroke="rgb(0,0,0)" stroke-width="1" opacity="0.7529411764705882" d="M 137.5 271 L 138 276.5 L 137 276.5 L 137.5 271 Z " /><path fill="rgb(0,0,0)" stroke="rgb(0,0,0)" stroke-width="1" opacity="0.7529411764705882" d="M 280.5 274 L 284 274.5 L 280.5 275 L 280.5 274 Z " /><path fill="rgb(0,0,0)" stroke="rgb(0,0,0)" stroke-width="1" opacity="0.7529411764705882" d="M 286.5 275 L 289 276.5 L 287.5 276 L 286.5 275 Z " /><path fill="rgb(0,0,0)" stroke="rgb(0,0,0)" stroke-width="1" opacity="0.7529411764705882" d="M 275.5 276 L 274.5 278 L 275.5 276 Z " /><path fill="rgb(0,0,0)" stroke="rgb(0,0,0)" stroke-width="1" opacity="0.7529411764705882" d="M 290.5 277 L 292.5 280 L 290.5 277 Z " /><path fill="rgb(0,0,0)" stroke="rgb(0,0,0)" stroke-width="1" opacity="0.7529411764705882" d="M 272.5 279 L 271.5 281 L 272.5 279 Z " /><path fill="rgb(0,0,0)" stroke="rgb(0,0,0)" stroke-width="1" opacity="0.7529411764705882" d="M 293.5 281 L 294.5 283 L 293.5 281 Z " /><path fill="rgb(0,0,0)" stroke="rgb(0,0,0)" stroke-width="1" opacity="0.7529411764705882" d="M 315.5 281 L 317.5 284 L 315.5 281 Z " /><path fill="rgb(0,0,0)" stroke="rgb(0,0,0)" stroke-width="1" opacity="0.7529411764705882" d="M 368.5 281 L 367.5 283 L 368.5 281 Z " /><path fill="rgb(0,0,0)" stroke="rgb(0,0,0)" stroke-width="1" opacity="0.7529411764705882" d="M 135.5 284 L 134.5 286 L 135.5 284 Z " /><path fill="rgb(0,0,0)" stroke="rgb(0,0,0)" stroke-width="1" opacity="0.7529411764705882" d="M 296.5 286 L 298.5 289 L 296.5 286 Z " /><path fill="rgb(0,0,0)" stroke="rgb(0,0,0)" stroke-width="1" opacity="0.7529411764705882" d="M 320.5 286 L 322.5 289 L 320.5 286 Z " /><path fill="rgb(0,0,0)" stroke="rgb(0,0,0)" stroke-width="1" opacity="0.7529411764705882" d="M 361.5 288 L 360.5 290 L 361.5 288 Z " /><path fill="rgb(0,0,0)" stroke="rgb(0,0,0)" stroke-width="1" opacity="0.7529411764705882" d="M 130.5 289 L 129.5 291 L 130.5 289 Z " /><path fill="rgb(0,0,0)" stroke="rgb(0,0,0)" stroke-width="1" opacity="0.7529411764705882" d="M 304.5 294 L 305.5 296 L 304.5 294 Z " /><path fill="rgb(0,0,0)" stroke="rgb(0,0,0)" stroke-width="1" opacity="0.7529411764705882" d="M 335.5 294 L 338 294.5 L 335.5 295 L 335.5 294 Z " /><path fill="rgb(0,0,0)" stroke="rgb(0,0,0)" stroke-width="1" opacity="0.7529411764705882" d="M 346.5 294 L 349 294.5 L 346.5 295 L 346.5 294 Z " /><path fill="rgb(0,0,0)" stroke="rgb(0,0,0)" stroke-width="1" opacity="0.7529411764705882" d="M 307.5 296 L 308.5 298 L 307.5 296 Z " /><path fill="rgb(0,0,0)" stroke="rgb(0,0,0)" stroke-width="1" opacity="0.7529411764705882" d="M 275.5 301 L 276.5 303 L 275.5 301 Z " /><path fill="rgb(0,0,0)" stroke="rgb(0,0,0)" stroke-width="1" opacity="0.7529411764705882" d="M 189.5 302 L 198 302.5 L 189.5 303 L 189.5 302 Z " /><path fill="rgb(0,0,0)" stroke="rgb(0,0,0)" stroke-width="1" opacity="0.7529411764705882" d="M 187.5 303 L 188 439.5 L 187 439.5 L 187.5 303 Z " /><path fill="rgb(0,0,0)" stroke="rgb(0,0,0)" stroke-width="1" opacity="0.7529411764705882" d="M 199.5 303 L 200 439.5 L 199 439.5 L 199.5 303 Z " /><path fill="rgb(0,0,0)" stroke="rgb(0,0,0)" stroke-width="1" opacity="0.7529411764705882" d="M 326.5 303 L 332 303.5 L 326.5 304 L 326.5 303 Z " /><path fill="rgb(0,0,0)" stroke="rgb(0,0,0)" stroke-width="1" opacity="0.7529411764705882" d="M 340.5 304 L 369 304.5 L 340.5 305 L 340.5 304 Z " /><path fill="rgb(0,0,0)" stroke="rgb(0,0,0)" stroke-width="1" opacity="0.7529411764705882" d="M 278.5 305 L 280.5 308 L 278.5 305 Z " /><path fill="rgb(0,0,0)" stroke="rgb(0,0,0)" stroke-width="1" opacity="0.7529411764705882" d="M 380.5 308 L 381.5 310 L 380.5 308 Z " /><path fill="rgb(0,0,0)" stroke="rgb(0,0,0)" stroke-width="1" opacity="0.7529411764705882" d="M 383.5 310 L 385.5 313 L 383.5 310 Z " /><path fill="rgb(0,0,0)" stroke="rgb(0,0,0)" stroke-width="1" opacity="0.7529411764705882" d="M 286.5 313 L 288.5 316 L 286.5 313 Z " /><path fill="rgb(0,0,0)" stroke="rgb(0,0,0)" stroke-width="1" opacity="0.7529411764705882" d="M 389.5 316 L 390.5 318 L 389.5 316 Z " /><path fill="rgb(0,0,0)" stroke="rgb(0,0,0)" stroke-width="1" opacity="0.7529411764705882" d="M 291.5 317 L 292.5 319 L 291.5 317 Z " /><path fill="rgb(0,0,0)" stroke="rgb(0,0,0)" stroke-width="1" opacity="0.7529411764705882" d="M 373.5 337 L 374 443.5 L 373 443.5 L 373.5 337 Z " /><path fill="rgb(0,0,0)" stroke="rgb(0,0,0)" stroke-width="1" opacity="0.7529411764705882" d="M 402.5 348 L 403 353.5 L 402 353.5 L 402.5 348 Z " /><path fill="rgb(0,0,0)" stroke="rgb(0,0,0)" stroke-width="1" opacity="0.7529411764705882" d="M 380.5 349 L 381 351.5 L 380 351.5 L 380.5 349 Z " /><path fill="rgb(0,0,0)" stroke="rgb(0,0,0)" stroke-width="1" opacity="0.7529411764705882" d="M 381.5 357 L 382 365.5 L 381 365.5 L 381.5 357 Z " /><path fill="rgb(0,0,0)" stroke="rgb(0,0,0)" stroke-width="1" opacity="0.7529411764705882" d="M 401.5 372 L 400.5 374 L 401.5 372 Z " /><path fill="rgb(0,0,0)" stroke="rgb(0,0,0)" stroke-width="1" opacity="0.7529411764705882" d="M 398.5 375 L 397.5 377 L 398.5 375 Z " /><path fill="rgb(0,0,0)" stroke="rgb(0,0,0)" stroke-width="1" opacity="0.7529411764705882" d="M 389.5 377 L 392 377.5 L 389.5 378 L 389.5 377 Z " /><path fill="rgb(0,0,0)" stroke="rgb(0,0,0)" stroke-width="1" opacity="0.7529411764705882" d="M 338.5 378 L 345 378.5 L 338 379 L 337.5 443 L 337 379.5 L 338.5 378 Z " /><path fill="rgb(0,0,0)" stroke="rgb(0,0,0)" stroke-width="1" opacity="0.7529411764705882" d="M 309.5 442 L 310 444.5 L 309 444.5 L 309.5 442 Z " /><path fill="rgb(0,0,0)" stroke="rgb(0,0,0)" stroke-width="1" opacity="0.7529411764705882" d="M 201.5 445 L 202.5 447 L 201.5 445 Z " /><path fill="rgb(0,0,0)" stroke="rgb(0,0,0)" stroke-width="1" opacity="0.7529411764705882" d="M 231.5 446 L 227.5 451 L 231.5 446 Z " /><path fill="rgb(0,0,0)" stroke="rgb(0,0,0)" stroke-width="1" opacity="0.7529411764705882" d="M 155.5 447 L 158.5 451 L 155.5 447 Z " /><path fill="rgb(0,0,0)" stroke="rgb(0,0,0)" stroke-width="1" opacity="0.7529411764705882" d="M 371.5 448 L 370.5 450 L 371.5 448 Z " /><path fill="rgb(0,0,0)" stroke="rgb(0,0,0)" stroke-width="1" opacity="0.7529411764705882" d="M 311.5 449 L 315.5 454 L 311.5 449 Z " /><path fill="rgb(0,0,0)" stroke="rgb(0,0,0)" stroke-width="1" opacity="0.7529411764705882" d="M 348.5 449 L 351.5 453 L 348.5 449 Z " /><path fill="rgb(0,0,0)" stroke="rgb(0,0,0)" stroke-width="1" opacity="0.7529411764705882" d="M 206.5 450 L 207.5 452 L 206.5 450 Z " /><path fill="rgb(0,0,0)" stroke="rgb(0,0,0)" stroke-width="1" opacity="0.7529411764705882" d="M 225.5 451 L 224.5 453 L 225.5 451 Z " /><path fill="rgb(0,0,0)" stroke="rgb(0,0,0)" stroke-width="1" opacity="0.7529411764705882" d="M 368.5 451 L 367.5 453 L 368.5 451 Z " /><path fill="rgb(0,0,0)" stroke="rgb(0,0,0)" stroke-width="1" opacity="0.7529411764705882" d="M 330.5 453 L 329.5 455 L 330.5 453 Z " /><path fill="rgb(0,0,0)" stroke="rgb(0,0,0)" stroke-width="1" opacity="0.7529411764705882" d="M 166.5 454 L 173 454.5 L 166.5 455 L 166.5 454 Z " /><path fill="rgb(0,0,0)" stroke="rgb(0,0,0)" stroke-width="1" opacity="0.996078431372549" d="M 218.5 66 L 222.5 71 L 218.5 66 Z " /><path fill="rgb(0,0,0)" stroke="rgb(0,0,0)" stroke-width="1" opacity="0.996078431372549" d="M 225.5 118 L 224.5 120 L 225.5 118 Z " /><path fill="rgb(0,0,0)" stroke="rgb(0,0,0)" stroke-width="1" opacity="0.996078431372549" d="M 168.5 126 L 169.5 128 L 168.5 126 Z " /><path fill="rgb(0,0,0)" stroke="rgb(0,0,0)" stroke-width="1" opacity="0.996078431372549" d="M 216.5 127 L 215.5 129 L 216.5 127 Z " /><path fill="rgb(0,0,0)" stroke="rgb(0,0,0)" stroke-width="1" opacity="0.996078431372549" d="M 222.5 148 L 225 148.5 L 222.5 149 L 222.5 148 Z " /><path fill="rgb(0,0,0)" stroke="rgb(0,0,0)" stroke-width="1" opacity="0.996078431372549" d="M 134.5 158 L 133.5 160 L 134.5 158 Z " /><path fill="rgb(0,0,0)" stroke="rgb(0,0,0)" stroke-width="1" opacity="0.996078431372549" d="M 126.5 166 L 125.5 168 L 126.5 166 Z " /><path fill="rgb(0,0,0)" stroke="rgb(0,0,0)" stroke-width="1" opacity="0.996078431372549" d="M 259.5 166 L 260.5 168 L 259.5 166 Z " /><path fill="rgb(0,0,0)" stroke="rgb(0,0,0)" stroke-width="1" opacity="0.996078431372549" d="M 123.5 170 L 122.5 172 L 123.5 170 Z " /><path fill="rgb(0,0,0)" stroke="rgb(0,0,0)" stroke-width="1" opacity="0.996078431372549" d="M 150.5 194 L 151.5 196 L 150.5 194 Z " /><path fill="rgb(0,0,0)" stroke="rgb(0,0,0)" stroke-width="1" opacity="0.996078431372549" d="M 324.5 235 L 323.5 237 L 324.5 235 Z " /><path fill="rgb(0,0,0)" stroke="rgb(0,0,0)" stroke-width="1" opacity="0.996078431372549" d="M 362.5 237 L 366.5 242 L 362.5 237 Z " /><path fill="rgb(0,0,0)" stroke="rgb(0,0,0)" stroke-width="1" opacity="0.996078431372549" d="M 108.5 275 L 109 279.5 L 108 279.5 L 108.5 275 Z " /><path fill="rgb(0,0,0)" stroke="rgb(0,0,0)" stroke-width="1" opacity="0.996078431372549" d="M 366.5 283 L 362.5 288 L 366.5 283 Z " /><path fill="rgb(0,0,0)" stroke="rgb(0,0,0)" stroke-width="1" opacity="0.996078431372549" d="M 318.5 284 L 319.5 286 L 318.5 284 Z " /><path fill="rgb(0,0,0)" stroke="rgb(0,0,0)" stroke-width="1" opacity="0.996078431372549" d="M 111.5 286 L 113.5 289 L 111.5 286 Z " /><path fill="rgb(0,0,0)" stroke="rgb(0,0,0)" stroke-width="1" opacity="0.996078431372549" d="M 133.5 286 L 131.5 289 L 133.5 286 Z " /><path fill="rgb(0,0,0)" stroke="rgb(0,0,0)" stroke-width="1" opacity="0.996078431372549" d="M 298.5 289 L 303.5 295 L 298.5 289 Z " /><path fill="rgb(0,0,0)" stroke="rgb(0,0,0)" stroke-width="1" opacity="0.996078431372549" d="M 337.5 304 L 340 304.5 L 337.5 305 L 337.5 304 Z " /><path fill="rgb(0,0,0)" stroke="rgb(0,0,0)" stroke-width="1" opacity="0.996078431372549" d="M 281.5 308 L 285.5 313 L 281.5 308 Z " /><path fill="rgb(0,0,0)" stroke="rgb(0,0,0)" stroke-width="1" opacity="0.996078431372549" d="M 386.5 313 L 388.5 316 L 386.5 313 Z " /><path fill="rgb(0,0,0)" stroke="rgb(0,0,0)" stroke-width="1" opacity="0.996078431372549" d="M 309.5 325 L 310 441.5 L 309 441.5 L 309.5 325 Z " /><path fill="rgb(0,0,0)" stroke="rgb(0,0,0)" stroke-width="1" opacity="0.996078431372549" d="M 374.5 335 L 377 336.5 L 375.5 336 L 373.5 337 L 374.5 335 Z " /><path fill="rgb(0,0,0)" stroke="rgb(0,0,0)" stroke-width="1" opacity="0.996078431372549" d="M 402.5 354 L 403 357.5 L 402 357.5 L 402.5 354 Z " /><path fill="rgb(0,0,0)" stroke="rgb(0,0,0)" stroke-width="1" opacity="0.996078431372549" d="M 384.5 373 L 386.5 376 L 384.5 373 Z " /><path fill="rgb(0,0,0)" stroke="rgb(0,0,0)" stroke-width="1" opacity="0.996078431372549" d="M 183.5 447 L 180.5 451 L 183.5 447 Z " /><path fill="rgb(0,0,0)" stroke="rgb(0,0,0)" stroke-width="1" opacity="0.996078431372549" d="M 203.5 447 L 205.5 450 L 203.5 447 Z " /><path fill="rgb(0,0,0)" stroke="rgb(0,0,0)" stroke-width="1" opacity="0.996078431372549" d="M 334.5 449 L 331.5 453 L 334.5 449 Z " /><path fill="rgb(0,0,0)" stroke="rgb(0,0,0)" stroke-width="1" opacity="1" d="M 189.5 57 L 196.5 57 L 205.5 59 Q 218.1 63.4 225 73.5 Q 230.1 79.9 232 89.5 L 232 102.5 Q 228.8 118.8 217.5 127 L 204.5 134 Q 197 136.5 185.5 135 Q 170.9 131.6 163 121.5 L 155 105.5 L 154 91.5 Q 157.5 74 169.5 65 Q 177.5 59 189.5 57 Z " /><path fill="rgb(0,0,0)" stroke="rgb(0,0,0)" stroke-width="1" opacity="1" d="M 164.5 148 L 221.5 148 L 222.5 149 L 231.5 149 Q 249.6 152.9 259 165.5 Q 266.5 174.5 270 187.5 L 281 243.5 L 284 253.5 L 284 261.5 L 278.5 269 Q 275.7 272.7 268.5 272 L 259 266.5 L 255 256.5 L 244 198.5 L 240.5 194 Q 235 193 234 196.5 L 234 440.5 Q 231.8 447.3 226.5 451 L 219.5 454 L 214.5 454 Q 206.2 451.9 202 445.5 L 200 441.5 L 200 303.5 L 198.5 302 L 188.5 302 L 187 303.5 L 187 440.5 Q 184.9 448.4 178.5 452 Q 174.5 455.5 165.5 454 L 156 447.5 L 153 441.5 L 153 198.5 L 150.5 194 Q 145 193 144 196.5 L 142 206.5 L 142 218.5 L 141 219.5 L 141 230.5 L 140 231.5 L 137 279.5 Q 135.2 286.7 129.5 290 Q 126.6 292.6 120.5 292 Q 113.3 290.2 110 284.5 L 109 281.5 L 109 265.5 L 110 264.5 L 110 253.5 L 111 252.5 L 111 241.5 L 112 240.5 L 112 229.5 L 113 228.5 L 113 217.5 L 114 216.5 L 114 205.5 L 115 204.5 L 116 187.5 Q 120.5 170 132.5 160 L 145.5 152 L 155.5 149 L 163.5 149 L 164.5 148 Z " /><path fill="rgb(0,0,0)" stroke="rgb(0,0,0)" stroke-width="1" opacity="1" d="M 341.5 230 Q 361.1 231.4 369 244.5 L 374 256.5 L 374 268.5 Q 370.8 282.3 360.5 289 Q 353.3 294.8 340.5 295 L 331.5 293 L 323.5 289 L 316 281.5 Q 309 273.5 310 257.5 Q 312.9 243.9 322.5 237 L 331.5 232 L 341.5 230 Z " /><path fill="rgb(0,0,0)" stroke="rgb(0,0,0)" stroke-width="1" opacity="1" d="M 279.5 275 Q 289.2 273.8 292 279.5 Q 295.9 289.1 303.5 295 L 311.5 300 L 325.5 304 L 336.5 304 L 337.5 305 L 370.5 305 Q 384 308.5 391 318.5 Q 397.7 328.3 401 341.5 L 403 367.5 Q 401.8 373.3 397.5 376 L 389.5 377 L 383 371.5 L 381 348.5 L 378 338.5 L 375.5 335 L 373 336.5 L 373 444.5 L 366.5 453 L 358.5 455 L 349 449.5 L 346 442.5 L 346 378 L 337.5 378 L 337 378.5 L 337 444.5 L 329.5 454 L 322.5 456 Q 315.1 454.9 312 449.5 L 310 445.5 L 310 325 Q 289.2 320.1 278 304.5 L 271 292.5 L 270 285.5 Q 271.3 279.8 275.5 277 L 279.5 275 Z " /></svg>