<svg width="512" height="512" version="1.1" xmlns="http://www.w3.org/2000/svg" desc="Created with imagetracer.js version 1.2.6" ><path fill="rgb(0,0,0)" stroke="rgb(0,0,0)" stroke-width="1" opacity="0" d="M 0 0 L 512 0 L 512 258.5 L 508.5 256 L 506.5 255 L 455.5 255 L 450 258.5 L 449 260.5 L 449 270 L 443.5 269 L 390.5 269 L 385.5 268 L 377.5 270 L 372.5 273 L 297 341.5 L 294 348 L 239.5 343 L 238.5 342 L 230.5 342 L 229.5 341 L 221.5 341 L 220.5 340 L 208.5 340 Q 200 342.5 195 348.5 L 190 357.5 L 189 365.5 Q 191.3 366.8 190 371.5 L 197.5 383 Q 202.3 387.7 210.5 389 L 354.5 418 L 366.5 414 L 436.5 356 L 449 356 L 449 365.5 L 451.5 369 L 453.5 370 L 508.5 370 L 512 367.5 L 512 511.5 L 511.5 512 L 0 512 L 0.5 253 L 5.5 257 L 56.5 257 L 62 253.5 L 63 251.5 L 63 242 L 68.5 243 L 121.5 243 L 126.5 244 L 134.5 242 L 139.5 239 L 215 170.5 L 218 164 L 272.5 169 L 273.5 170 L 281.5 170 L 282.5 171 L 290.5 171 L 291.5 172 L 302.5 172 Q 311.9 169.9 317 163.5 L 322 154.5 L 323 146.5 Q 320.8 145.2 322 140.5 L 314.5 129 L 308.5 125 L 297.5 122 L 157.5 94 L 145.5 98 L 75.5 156 L 63 156 L 63 146.5 L 60.5 143 L 58.5 142 L 3.5 142 L 0 144.5 L 0 0 Z M 251 186 L 236 189 L 228 192 L 212 202 Q 202 210 195 222 L 189 236 L 186 252 L 186 261 L 189 277 Q 193 291 202 301 Q 210 310 222 317 L 236 323 L 252 326 L 261 326 L 277 323 Q 290 319 300 311 Q 310 302 317 291 L 323 277 L 326 262 L 326 251 L 325 250 L 324 239 Q 319 223 310 212 Q 300 199 285 192 Q 271 185 251 186 Z " /><path fill="rgb(0,0,0)" stroke="rgb(0,0,0)" stroke-width="1" opacity="0" d="M 158.5 106 L 208.5 116 L 213.5 118 L 242.5 123 L 247.5 125 L 276.5 130 L 281.5 132 L 300.5 135 L 308 139.5 L 311 147.5 L 310 152.5 L 305.5 158 Q 301.5 161.5 292.5 160 L 291.5 159 L 283.5 159 L 282.5 158 L 220.5 152 L 219 150.5 Q 216.7 139.8 208.5 135 L 198.5 131 L 191.5 131 L 179.5 136 L 125 185.5 Q 123.8 192.8 128.5 194 L 134.5 193 L 186.5 146 Q 189.3 142.3 196.5 143 Q 203 144.5 206 149.5 Q 208.5 153 207 160.5 L 197.5 171 L 131.5 230 L 122.5 232 L 121.5 231 L 68.5 231 L 63 230 L 63 168.5 L 63.5 168 L 78.5 168 L 87.5 162 L 148.5 111 L 158.5 106 Z " /><path fill="rgb(0,0,0)" stroke="rgb(0,0,0)" stroke-width="1" opacity="0" d="M 253.5 203 Q 260.8 201.8 262 206.5 L 262 214.5 L 264.5 215 L 276 222.5 L 281 231.5 L 282 238.5 L 277.5 244 Q 271 245 270 240.5 Q 270.3 232.3 265.5 229 L 262.5 227 L 262 251 Q 272.8 252.9 278 261.5 L 281 267.5 L 282 274.5 Q 279.8 275.7 281 280.5 L 273.5 292 L 267.5 296 L 262 297 L 262 305.5 L 258.5 309 Q 251.3 310.3 250 305.5 L 250 297.5 L 247.5 297 L 236 289.5 L 232 283.5 L 230 273.5 L 234.5 268 Q 241 267 242 271.5 Q 241.8 279.8 246.5 283 L 249.5 285 L 250 261 Q 239.2 259.1 234 250.5 L 231 244.5 L 230 237.5 L 232 228.5 L 238.5 220 L 244.5 216 L 250 215 L 250 206.5 L 253.5 203 Z M 250 227 L 247 229 L 243 234 L 242 238 L 245 246 L 250 248 L 250 227 Z M 262 264 L 263 285 L 266 283 L 269 279 L 270 275 L 267 266 L 262 264 Z " /><path fill="rgb(0,0,0)" stroke="rgb(0,0,0)" stroke-width="1" opacity="0" d="M 386.5 280 L 390.5 281 L 442.5 281 L 449 282 L 449 343.5 L 448.5 344 L 433.5 344 L 424.5 350 L 363.5 401 Q 359.9 405.4 352.5 406 L 308.5 396 L 279.5 391 L 274.5 389 L 269.5 389 L 264.5 387 L 211.5 377 L 204 372.5 L 201 364.5 L 202 359.5 L 206.5 354 Q 210.5 350.5 219.5 352 L 220.5 353 L 228.5 353 L 229.5 354 L 291.5 360 L 293 361.5 Q 295.3 372.2 303.5 377 L 313.5 381 L 321.5 381 L 332.5 376 L 387 326.5 Q 388.3 319.3 383.5 318 L 377.5 319 L 325.5 366 Q 322.3 369.8 314.5 369 Q 308.4 367.6 306 362.5 Q 303.5 359 305 351.5 L 314.5 341 L 380.5 282 L 386.5 280 Z " /><path fill="rgb(0,0,0)" stroke="rgb(0,0,0)" stroke-width="1" opacity="0.984313725490196" d="M 157.5 94 L 297.5 122 L 308.5 125 L 317 131.5 L 322 140.5 L 323 148.5 Q 320.8 149.8 322 154.5 L 319 160.5 L 313.5 167 Q 306.7 173.7 291.5 172 L 290.5 171 L 282.5 171 L 281.5 170 L 273.5 170 L 272.5 169 L 218 164 Q 214.7 174.2 205.5 180 L 139.5 239 Q 133.6 244.1 122.5 244 L 121.5 243 L 68.5 243 L 63 242 L 63 251.5 L 59.5 256 L 56.5 257 L 5.5 257 L 0 252.5 L 0 145.5 L 3.5 142 L 58.5 142 L 62 144.5 L 63 146.5 L 63 156 L 75.5 156 L 145.5 98 L 157.5 94 Z M 159 106 L 149 111 L 88 162 L 79 168 L 64 168 L 63 169 L 63 230 L 69 231 L 122 231 L 123 232 L 132 230 L 198 171 L 207 161 Q 209 153 206 150 Q 203 145 197 143 Q 189 142 187 146 L 135 193 L 129 194 Q 124 193 125 186 L 180 136 L 192 131 L 199 131 L 209 135 Q 217 140 219 151 L 221 152 L 283 158 L 284 159 L 292 159 L 293 160 Q 302 162 306 158 L 310 153 L 311 148 L 308 140 L 301 135 L 282 132 L 277 130 L 248 125 L 243 123 L 214 118 L 209 116 L 159 106 Z " /><path fill="rgb(0,0,0)" stroke="rgb(0,0,0)" stroke-width="1" opacity="0.984313725490196" d="M 250.5 186 Q 271.2 185.3 284.5 192 Q 299.8 199.2 310 211.5 Q 319.5 222.5 324 238.5 L 325 249.5 L 326 250.5 L 326 261.5 L 323 276.5 L 317 290.5 Q 309.9 302.4 299.5 311 Q 289.8 318.8 276.5 323 L 260.5 326 L 251.5 326 L 235.5 323 L 221.5 317 Q 210.2 310.3 202 300.5 Q 193.4 290.6 189 276.5 L 186 260.5 L 186 251.5 L 189 235.5 L 195 221.5 Q 201.7 210.2 211.5 202 L 227.5 192 L 235.5 189 L 250.5 186 Z M 254 203 L 250 207 L 250 215 L 245 216 L 239 220 L 232 229 L 230 238 L 231 245 L 234 251 Q 239 259 250 261 L 250 285 L 247 283 Q 242 280 242 272 Q 241 267 235 268 L 230 274 L 232 284 L 236 290 L 248 297 L 250 298 L 250 306 Q 251 310 259 309 L 262 306 L 262 297 L 268 296 L 274 292 L 281 281 Q 280 276 282 275 L 281 268 L 278 262 Q 273 253 262 251 L 263 227 L 266 229 Q 270 232 270 241 Q 271 245 278 244 L 282 239 L 281 232 L 276 223 L 265 215 L 262 215 L 262 207 Q 261 202 254 203 Z " /><path fill="rgb(0,0,0)" stroke="rgb(0,0,0)" stroke-width="1" opacity="0.984313725490196" d="M 249.5 227 L 250 248 L 245 246 L 242 237.5 L 243 233.5 L 246.5 229 L 249.5 227 Z " /><path fill="rgb(0,0,0)" stroke="rgb(0,0,0)" stroke-width="1" opacity="0.984313725490196" d="M 455.5 255 L 506.5 255 L 512 259.5 L 512 366.5 L 508.5 370 L 453.5 370 L 450 367.5 L 449 365.5 L 449 356 L 436.5 356 L 366.5 414 Q 361.1 417.6 352.5 418 L 210.5 389 Q 200.3 387.3 195 380.5 L 190 371.5 L 189 363.5 Q 191.3 362.3 190 357.5 L 193 351.5 L 198.5 345 Q 205 338 220.5 340 L 221.5 341 L 229.5 341 L 230.5 342 L 238.5 342 L 239.5 343 L 294 348 Q 297 338.5 305.5 333 L 372.5 273 Q 378.4 267.9 389.5 268 L 390.5 269 L 443.5 269 L 449 270 L 449 260.5 L 452.5 256 L 455.5 255 Z M 387 280 L 381 282 L 315 341 L 305 352 Q 304 359 306 363 Q 308 368 315 369 Q 322 370 326 366 L 378 319 L 384 318 Q 388 319 387 327 L 333 376 L 322 381 L 314 381 L 304 377 Q 295 372 293 362 L 292 360 L 230 354 L 229 353 L 221 353 L 220 352 Q 211 351 207 354 L 202 360 L 201 365 L 204 373 L 212 377 L 265 387 L 270 389 L 275 389 L 280 391 L 309 396 L 353 406 Q 360 405 364 401 L 425 350 L 434 344 L 449 344 L 449 344 L 449 282 L 443 281 L 391 281 L 387 280 Z " /><path fill="rgb(0,0,0)" stroke="rgb(0,0,0)" stroke-width="1" opacity="0.984313725490196" d="M 262 264 L 267 266 L 270 274.5 L 269 278.5 L 265.5 283 L 262.5 285 L 262 264 Z " /></svg>