<svg width="512" height="512" version="1.1" xmlns="http://www.w3.org/2000/svg" desc="Created with imagetracer.js version 1.2.6" ><path fill="rgb(0,0,0)" stroke="rgb(0,0,0)" stroke-width="1" opacity="0" d="M 0 0 L 512 0 L 512 512 L 0 512 L 0 0 Z M 433 16 L 427 21 L 446 40 Q 450 37 451 32 L 449 26 L 441 17 L 433 16 Z M 403 30 L 398 32 L 335 95 L 349 110 Q 348 112 351 111 L 371 132 L 371 133 L 373 133 L 434 73 Q 438 76 440 83 L 439 86 L 380 146 L 381 154 L 387 157 L 393 156 L 452 97 L 456 88 Q 458 74 452 69 L 416 32 Q 412 29 403 30 Z M 61 32 L 48 35 L 41 39 Q 29 46 26 63 L 27 397 L 39 388 L 50 384 L 61 383 L 62 382 L 62 34 L 61 32 Z M 77 32 L 77 383 L 204 383 L 204 377 L 203 376 L 203 350 L 204 349 L 204 341 L 204 340 L 107 340 Q 101 339 102 330 L 108 325 L 208 325 L 210 316 L 219 293 L 107 293 L 105 292 L 102 289 L 103 282 L 109 278 L 229 278 L 240 264 L 250 253 L 248 253 L 242 259 L 231 263 Q 220 263 215 259 Q 208 255 206 247 L 109 247 L 106 246 L 102 242 L 103 235 L 107 232 L 205 232 Q 208 224 215 219 L 220 200 L 108 200 L 106 199 Q 101 197 102 190 L 107 185 L 232 185 L 262 155 L 262 153 L 107 153 L 102 149 L 103 142 L 108 138 L 279 138 L 309 108 L 309 106 L 107 106 L 105 105 L 102 102 L 103 95 L 109 91 L 317 91 L 370 38 L 370 34 L 369 32 L 77 32 Z M 328 111 L 235 204 L 228 228 L 220 237 Q 219 246 225 247 L 232 247 L 241 239 L 265 232 L 357 140 L 328 111 Z M 368 151 L 296 224 L 322 216 L 333 215 L 334 214 L 343 214 L 344 213 L 361 213 L 362 214 L 370 214 L 370 214 L 370 153 L 368 151 Z M 352 228 L 351 229 L 330 230 L 307 236 Q 284 245 267 259 Q 247 275 234 299 L 223 326 L 218 354 L 219 381 L 226 409 Q 235 432 250 450 Q 265 467 286 479 Q 299 487 317 492 L 338 496 L 367 496 L 388 492 Q 417 483 438 466 Q 456 450 469 429 L 480 404 L 486 374 L 485 343 L 478 316 Q 467 288 448 269 Q 429 249 403 238 L 375 230 L 354 229 L 352 228 Z M 59 398 L 50 400 L 36 408 L 29 419 L 26 429 L 27 444 L 30 451 L 36 459 L 50 467 L 58 469 L 247 469 Q 232 454 221 435 L 210 410 L 208 400 L 207 398 L 59 398 Z " /><path fill="rgb(0,0,0)" stroke="rgb(0,0,0)" stroke-width="1" opacity="0" d="M 345.5 297 L 353.5 297 L 361.5 299 L 410.5 313 L 440.5 320 L 450 324.5 L 451 332.5 L 450 333.5 L 450 383.5 L 457 387 L 457 420.5 L 455.5 421 L 442.5 413 L 429.5 421 L 429 387 L 435 385 L 435 340.5 L 431.5 340 L 359.5 360 L 347.5 362 L 267.5 340 L 256.5 338 L 249 335 L 247 328.5 L 251.5 322 L 345.5 297 Z " /><path fill="rgb(0,0,0)" stroke="rgb(0,0,0)" stroke-width="1" opacity="0" d="M 282 362 L 342.5 378 L 351.5 379 L 417 362 L 417 391.5 Q 417 392.5 412.5 392 L 369.5 401 L 345.5 403 L 282 392 L 282 362 Z " /><path fill="rgb(0,0,0)" stroke="rgb(0,0,0)" stroke-width="1" opacity="0.6862745098039216" d="M 430.5 17 L 428.5 20 L 430.5 17 Z " /><path fill="rgb(0,0,0)" stroke="rgb(0,0,0)" stroke-width="1" opacity="0.6862745098039216" d="M 441.5 18 L 447.5 25 L 441.5 18 Z " /><path fill="rgb(0,0,0)" stroke="rgb(0,0,0)" stroke-width="1" opacity="0.6862745098039216" d="M 427.5 21 L 444.5 39 L 427.5 21 Z " /><path fill="rgb(0,0,0)" stroke="rgb(0,0,0)" stroke-width="1" opacity="0.6862745098039216" d="M 369.5 33 L 370 37.5 L 369 37.5 L 369.5 33 Z " /><path fill="rgb(0,0,0)" stroke="rgb(0,0,0)" stroke-width="1" opacity="0.6862745098039216" d="M 416.5 33 L 450.5 68 L 416.5 33 Z " /><path fill="rgb(0,0,0)" stroke="rgb(0,0,0)" stroke-width="1" opacity="0.6862745098039216" d="M 39.5 40 L 34.5 46 L 39.5 40 Z " /><path fill="rgb(0,0,0)" stroke="rgb(0,0,0)" stroke-width="1" opacity="0.6862745098039216" d="M 26.5 64 L 27.5 395 L 30 393.5 L 26 396 L 26.5 64 Z " /><path fill="rgb(0,0,0)" stroke="rgb(0,0,0)" stroke-width="1" opacity="0.6862745098039216" d="M 433.5 72 L 437.5 77 L 433.5 72 Z " /><path fill="rgb(0,0,0)" stroke="rgb(0,0,0)" stroke-width="1" opacity="0.6862745098039216" d="M 455.5 78 L 456 80.5 L 455 80.5 L 455.5 78 Z " /><path fill="rgb(0,0,0)" stroke="rgb(0,0,0)" stroke-width="1" opacity="0.6862745098039216" d="M 455.5 84 L 456 86.5 L 455 86.5 L 455.5 84 Z " /><path fill="rgb(0,0,0)" stroke="rgb(0,0,0)" stroke-width="1" opacity="0.6862745098039216" d="M 104.5 92 L 102.5 95 L 104.5 92 Z " /><path fill="rgb(0,0,0)" stroke="rgb(0,0,0)" stroke-width="1" opacity="0.6862745098039216" d="M 101.5 97 L 102 100.5 L 101 100.5 L 101.5 97 Z " /><path fill="rgb(0,0,0)" stroke="rgb(0,0,0)" stroke-width="1" opacity="0.6862745098039216" d="M 448.5 99 L 394.5 154 L 448.5 99 Z " /><path fill="rgb(0,0,0)" stroke="rgb(0,0,0)" stroke-width="1" opacity="0.6862745098039216" d="M 308.5 107 L 279.5 137 L 308.5 107 Z " /><path fill="rgb(0,0,0)" stroke="rgb(0,0,0)" stroke-width="1" opacity="0.6862745098039216" d="M 327.5 111 L 307.5 132 L 327.5 111 Z " /><path fill="rgb(0,0,0)" stroke="rgb(0,0,0)" stroke-width="1" opacity="0.6862745098039216" d="M 305.5 133 L 302.5 137 L 305.5 133 Z " /><path fill="rgb(0,0,0)" stroke="rgb(0,0,0)" stroke-width="1" opacity="0.6862745098039216" d="M 108.5 137 L 278 137.5 L 108.5 138 L 108.5 137 Z " /><path fill="rgb(0,0,0)" stroke="rgb(0,0,0)" stroke-width="1" opacity="0.6862745098039216" d="M 355.5 140 L 264.5 232 L 355.5 140 Z " /><path fill="rgb(0,0,0)" stroke="rgb(0,0,0)" stroke-width="1" opacity="0.6862745098039216" d="M 101.5 143 L 102 147.5 L 101 147.5 L 101.5 143 Z " /><path fill="rgb(0,0,0)" stroke="rgb(0,0,0)" stroke-width="1" opacity="0.6862745098039216" d="M 367.5 151 L 298 221.5 L 298.5 223 L 297 222.5 Q 297.8 224.8 295.5 224 L 367.5 151 Z " /><path fill="rgb(0,0,0)" stroke="rgb(0,0,0)" stroke-width="1" opacity="0.6862745098039216" d="M 369.5 153 L 370 214 L 365 213.5 L 369 213 L 369.5 153 Z " /><path fill="rgb(0,0,0)" stroke="rgb(0,0,0)" stroke-width="1" opacity="0.6862745098039216" d="M 261.5 154 L 232.5 184 L 261.5 154 Z " /><path fill="rgb(0,0,0)" stroke="rgb(0,0,0)" stroke-width="1" opacity="0.6862745098039216" d="M 281.5 157 L 255.5 184 L 281.5 157 Z " /><path fill="rgb(0,0,0)" stroke="rgb(0,0,0)" stroke-width="1" opacity="0.6862745098039216" d="M 101.5 190 L 102 194.5 L 101 194.5 L 101.5 190 Z " /><path fill="rgb(0,0,0)" stroke="rgb(0,0,0)" stroke-width="1" opacity="0.6862745098039216" d="M 245.5 193 L 244.5 195 L 245.5 193 Z " /><path fill="rgb(0,0,0)" stroke="rgb(0,0,0)" stroke-width="1" opacity="0.6862745098039216" d="M 108.5 200 L 219 200.5 L 108.5 201 L 108.5 200 Z " /><path fill="rgb(0,0,0)" stroke="rgb(0,0,0)" stroke-width="1" opacity="0.6862745098039216" d="M 237.5 201 L 235.5 204 L 237.5 201 Z " /><path fill="rgb(0,0,0)" stroke="rgb(0,0,0)" stroke-width="1" opacity="0.6862745098039216" d="M 335.5 213 L 339 213.5 L 335.5 214 L 335.5 213 Z " /><path fill="rgb(0,0,0)" stroke="rgb(0,0,0)" stroke-width="1" opacity="0.6862745098039216" d="M 213.5 219 L 209.5 224 L 213.5 219 Z " /><path fill="rgb(0,0,0)" stroke="rgb(0,0,0)" stroke-width="1" opacity="0.6862745098039216" d="M 227.5 228 L 221.5 235 L 227.5 228 Z " /><path fill="rgb(0,0,0)" stroke="rgb(0,0,0)" stroke-width="1" opacity="0.6862745098039216" d="M 339.5 229 L 343 229.5 L 339.5 230 L 339.5 229 Z " /><path fill="rgb(0,0,0)" stroke="rgb(0,0,0)" stroke-width="1" opacity="0.6862745098039216" d="M 361.5 229 L 365 229.5 L 361.5 230 L 361.5 229 Z " /><path fill="rgb(0,0,0)" stroke="rgb(0,0,0)" stroke-width="1" opacity="0.6862745098039216" d="M 101.5 237 L 102 240.5 L 101 240.5 L 101.5 237 Z " /><path fill="rgb(0,0,0)" stroke="rgb(0,0,0)" stroke-width="1" opacity="0.6862745098039216" d="M 102.5 243 L 104.5 246 L 102.5 243 Z " /><path fill="rgb(0,0,0)" stroke="rgb(0,0,0)" stroke-width="1" opacity="0.6862745098039216" d="M 426.5 251 L 427.5 253 L 426.5 251 Z " /><path fill="rgb(0,0,0)" stroke="rgb(0,0,0)" stroke-width="1" opacity="0.6862745098039216" d="M 208.5 253 L 213.5 259 L 208.5 253 Z " /><path fill="rgb(0,0,0)" stroke="rgb(0,0,0)" stroke-width="1" opacity="0.6862745098039216" d="M 248 253 L 250 253.5 L 241 261.5 L 244.5 256 Q 246.3 258.8 248 254.5 L 248 253 Z " /><path fill="rgb(0,0,0)" stroke="rgb(0,0,0)" stroke-width="1" opacity="0.6862745098039216" d="M 269.5 257 L 268.5 259 L 269.5 257 Z " /><path fill="rgb(0,0,0)" stroke="rgb(0,0,0)" stroke-width="1" opacity="0.6862745098039216" d="M 439.5 261 L 441.5 264 L 439.5 261 Z " /><path fill="rgb(0,0,0)" stroke="rgb(0,0,0)" stroke-width="1" opacity="0.6862745098039216" d="M 263.5 262 L 252.5 274 L 263.5 262 Z " /><path fill="rgb(0,0,0)" stroke="rgb(0,0,0)" stroke-width="1" opacity="0.6862745098039216" d="M 236.5 267 L 235.5 269 L 236.5 267 Z " /><path fill="rgb(0,0,0)" stroke="rgb(0,0,0)" stroke-width="1" opacity="0.6862745098039216" d="M 450.5 272 L 452.5 275 L 450.5 272 Z " /><path fill="rgb(0,0,0)" stroke="rgb(0,0,0)" stroke-width="1" opacity="0.6862745098039216" d="M 248.5 278 L 247.5 280 L 248.5 278 Z " /><path fill="rgb(0,0,0)" stroke="rgb(0,0,0)" stroke-width="1" opacity="0.6862745098039216" d="M 104.5 279 L 102.5 282 L 104.5 279 Z " /><path fill="rgb(0,0,0)" stroke="rgb(0,0,0)" stroke-width="1" opacity="0.6862745098039216" d="M 456.5 279 L 457.5 281 L 456.5 279 Z " /><path fill="rgb(0,0,0)" stroke="rgb(0,0,0)" stroke-width="1" opacity="0.6862745098039216" d="M 101.5 284 L 102 287.5 L 101 287.5 L 101.5 284 Z " /><path fill="rgb(0,0,0)" stroke="rgb(0,0,0)" stroke-width="1" opacity="0.6862745098039216" d="M 242.5 286 L 241.5 288 L 242.5 286 Z " /><path fill="rgb(0,0,0)" stroke="rgb(0,0,0)" stroke-width="1" opacity="0.6862745098039216" d="M 250.5 322 L 248.5 325 L 250.5 322 Z " /><path fill="rgb(0,0,0)" stroke="rgb(0,0,0)" stroke-width="1" opacity="0.6862745098039216" d="M 448.5 322 L 450.5 325 L 448.5 322 Z " /><path fill="rgb(0,0,0)" stroke="rgb(0,0,0)" stroke-width="1" opacity="0.6862745098039216" d="M 207.5 323 L 206.5 325 L 108 324.5 L 206.5 324 L 207.5 323 Z " /><path fill="rgb(0,0,0)" stroke="rgb(0,0,0)" stroke-width="1" opacity="0.6862745098039216" d="M 101.5 330 L 102 334.5 L 101 334.5 L 101.5 330 Z " /><path fill="rgb(0,0,0)" stroke="rgb(0,0,0)" stroke-width="1" opacity="0.6862745098039216" d="M 432.5 340 L 435 340.5 L 435 383.5 L 434 383.5 L 434 341.5 L 432.5 341 L 432.5 340 Z " /><path fill="rgb(0,0,0)" stroke="rgb(0,0,0)" stroke-width="1" opacity="0.6862745098039216" d="M 203.5 343 L 204 345.5 L 203 345.5 L 203.5 343 Z " /><path fill="rgb(0,0,0)" stroke="rgb(0,0,0)" stroke-width="1" opacity="0.6862745098039216" d="M 219.5 346 L 220 348.5 L 219 348.5 L 219.5 346 Z " /><path fill="rgb(0,0,0)" stroke="rgb(0,0,0)" stroke-width="1" opacity="0.6862745098039216" d="M 202.5 354 L 203 370.5 L 202 370.5 L 202.5 354 Z " /><path fill="rgb(0,0,0)" stroke="rgb(0,0,0)" stroke-width="1" opacity="0.6862745098039216" d="M 485.5 355 L 486 369.5 L 485 369.5 L 485.5 355 Z " /><path fill="rgb(0,0,0)" stroke="rgb(0,0,0)" stroke-width="1" opacity="0.6862745098039216" d="M 417.5 361 L 418 391.5 L 417 391.5 L 417.5 361 Z " /><path fill="rgb(0,0,0)" stroke="rgb(0,0,0)" stroke-width="1" opacity="0.6862745098039216" d="M 203.5 379 L 204 383 L 77 382.5 L 203 382 L 203.5 379 Z " /><path fill="rgb(0,0,0)" stroke="rgb(0,0,0)" stroke-width="1" opacity="0.6862745098039216" d="M 58.5 382 L 61 382.5 L 58.5 383 L 58.5 382 Z " /><path fill="rgb(0,0,0)" stroke="rgb(0,0,0)" stroke-width="1" opacity="0.6862745098039216" d="M 457.5 388 L 458 421.5 L 457 421.5 L 457.5 388 Z " /><path fill="rgb(0,0,0)" stroke="rgb(0,0,0)" stroke-width="1" opacity="0.6862745098039216" d="M 338.5 402 L 341 402.5 L 338.5 403 L 338.5 402 Z " /><path fill="rgb(0,0,0)" stroke="rgb(0,0,0)" stroke-width="1" opacity="0.6862745098039216" d="M 358.5 402 L 361 402.5 L 358.5 403 L 358.5 402 Z " /><path fill="rgb(0,0,0)" stroke="rgb(0,0,0)" stroke-width="1" opacity="0.6862745098039216" d="M 34.5 411 L 33.5 413 L 34.5 411 Z " /><path fill="rgb(0,0,0)" stroke="rgb(0,0,0)" stroke-width="1" opacity="0.6862745098039216" d="M 26.5 430 L 27 436.5 L 26 436.5 L 26.5 430 Z " /><path fill="rgb(0,0,0)" stroke="rgb(0,0,0)" stroke-width="1" opacity="0.6862745098039216" d="M 244.5 441 L 245.5 443 L 244.5 441 Z " /><path fill="rgb(0,0,0)" stroke="rgb(0,0,0)" stroke-width="1" opacity="0.6862745098039216" d="M 229.5 448 L 230.5 450 L 229.5 448 Z " /><path fill="rgb(0,0,0)" stroke="rgb(0,0,0)" stroke-width="1" opacity="0.6862745098039216" d="M 451.5 451 L 447.5 456 L 451.5 451 Z " /><path fill="rgb(0,0,0)" stroke="rgb(0,0,0)" stroke-width="1" opacity="0.6862745098039216" d="M 253.5 452 L 261.5 461 L 253.5 452 Z " /><path fill="rgb(0,0,0)" stroke="rgb(0,0,0)" stroke-width="1" opacity="0.6862745098039216" d="M 33.5 454 L 34.5 456 L 33.5 454 Z " /><path fill="rgb(0,0,0)" stroke="rgb(0,0,0)" stroke-width="1" opacity="0.6862745098039216" d="M 235.5 456 L 237.5 459 L 235.5 456 Z " /><path fill="rgb(0,0,0)" stroke="rgb(0,0,0)" stroke-width="1" opacity="0.6862745098039216" d="M 444.5 458 L 440.5 463 L 444.5 458 Z " /><path fill="rgb(0,0,0)" stroke="rgb(0,0,0)" stroke-width="1" opacity="0.6862745098039216" d="M 39.5 460 L 40.5 462 L 39.5 460 Z " /><path fill="rgb(0,0,0)" stroke="rgb(0,0,0)" stroke-width="1" opacity="0.6862745098039216" d="M 242.5 464 L 245.5 468 L 242.5 464 Z " /><path fill="rgb(0,0,0)" stroke="rgb(0,0,0)" stroke-width="1" opacity="0.6862745098039216" d="M 267.5 465 L 268.5 467 L 267.5 465 Z " /><path fill="rgb(0,0,0)" stroke="rgb(0,0,0)" stroke-width="1" opacity="0.6862745098039216" d="M 435.5 466 L 434.5 468 L 435.5 466 Z " /><path fill="rgb(0,0,0)" stroke="rgb(0,0,0)" stroke-width="1" opacity="0.6862745098039216" d="M 431.5 469 L 430.5 471 L 431.5 469 Z " /><path fill="rgb(0,0,0)" stroke="rgb(0,0,0)" stroke-width="1" opacity="0.6862745098039216" d="M 275.5 471 L 276.5 473 L 275.5 471 Z " /><path fill="rgb(0,0,0)" stroke="rgb(0,0,0)" stroke-width="1" opacity="0.6862745098039216" d="M 341.5 495 L 345 495.5 L 341.5 496 L 341.5 495 Z " /><path fill="rgb(0,0,0)" stroke="rgb(0,0,0)" stroke-width="1" opacity="0.6862745098039216" d="M 359.5 495 L 364 495.5 L 359.5 496 L 359.5 495 Z " /><path fill="rgb(0,0,0)" stroke="rgb(0,0,0)" stroke-width="1" opacity="0.9137254901960784" d="M 77.5 33 L 78 381.5 L 77 381.5 L 77.5 33 Z " /><path fill="rgb(0,0,0)" stroke="rgb(0,0,0)" stroke-width="1" opacity="0.9137254901960784" d="M 368.5 38 L 317.5 90 L 368.5 38 Z " /><path fill="rgb(0,0,0)" stroke="rgb(0,0,0)" stroke-width="1" opacity="0.9137254901960784" d="M 431.5 72 L 372.5 132 L 335 95.5 L 371.5 131 L 431.5 72 Z " /><path fill="rgb(0,0,0)" stroke="rgb(0,0,0)" stroke-width="1" opacity="0.9137254901960784" d="M 455.5 81 L 456 83.5 L 455 83.5 L 455.5 81 Z " /><path fill="rgb(0,0,0)" stroke="rgb(0,0,0)" stroke-width="1" opacity="0.9137254901960784" d="M 437.5 88 L 382.5 144 L 437.5 88 Z " /><path fill="rgb(0,0,0)" stroke="rgb(0,0,0)" stroke-width="1" opacity="0.9137254901960784" d="M 109.5 90 L 316 90.5 L 109.5 91 L 109.5 90 Z " /><path fill="rgb(0,0,0)" stroke="rgb(0,0,0)" stroke-width="1" opacity="0.9137254901960784" d="M 301.5 137 L 299.5 140 L 301.5 137 Z " /><path fill="rgb(0,0,0)" stroke="rgb(0,0,0)" stroke-width="1" opacity="0.9137254901960784" d="M 297.5 141 L 296.5 143 L 297.5 141 Z " /><path fill="rgb(0,0,0)" stroke="rgb(0,0,0)" stroke-width="1" opacity="0.9137254901960784" d="M 294.5 144 L 293.5 146 L 294.5 144 Z " /><path fill="rgb(0,0,0)" stroke="rgb(0,0,0)" stroke-width="1" opacity="0.9137254901960784" d="M 291.5 147 L 290.5 149 L 291.5 147 Z " /><path fill="rgb(0,0,0)" stroke="rgb(0,0,0)" stroke-width="1" opacity="0.9137254901960784" d="M 288.5 150 L 282.5 157 L 288.5 150 Z " /><path fill="rgb(0,0,0)" stroke="rgb(0,0,0)" stroke-width="1" opacity="0.9137254901960784" d="M 103.5 151 L 104.5 153 L 103.5 151 Z " /><path fill="rgb(0,0,0)" stroke="rgb(0,0,0)" stroke-width="1" opacity="0.9137254901960784" d="M 382.5 153 L 383.5 155 L 382.5 153 Z " /><path fill="rgb(0,0,0)" stroke="rgb(0,0,0)" stroke-width="1" opacity="0.9137254901960784" d="M 254.5 184 L 251.5 188 L 254.5 184 Z " /><path fill="rgb(0,0,0)" stroke="rgb(0,0,0)" stroke-width="1" opacity="0.9137254901960784" d="M 104.5 185 L 103.5 187 L 104.5 185 Z " /><path fill="rgb(0,0,0)" stroke="rgb(0,0,0)" stroke-width="1" opacity="0.9137254901960784" d="M 249.5 189 L 248.5 191 L 249.5 189 Z " /><path fill="rgb(0,0,0)" stroke="rgb(0,0,0)" stroke-width="1" opacity="0.9137254901960784" d="M 243.5 195 L 242.5 197 L 243.5 195 Z " /><path fill="rgb(0,0,0)" stroke="rgb(0,0,0)" stroke-width="1" opacity="0.9137254901960784" d="M 240.5 198 L 238.5 201 L 240.5 198 Z " /><path fill="rgb(0,0,0)" stroke="rgb(0,0,0)" stroke-width="1" opacity="0.9137254901960784" d="M 348.5 212 L 356 212.5 L 348.5 213 L 348.5 212 Z " /><path fill="rgb(0,0,0)" stroke="rgb(0,0,0)" stroke-width="1" opacity="0.9137254901960784" d="M 220.5 238 L 221 240.5 L 220 240.5 L 220.5 238 Z " /><path fill="rgb(0,0,0)" stroke="rgb(0,0,0)" stroke-width="1" opacity="0.9137254901960784" d="M 238.5 239 L 233.5 245 L 238.5 239 Z " /><path fill="rgb(0,0,0)" stroke="rgb(0,0,0)" stroke-width="1" opacity="0.9137254901960784" d="M 109.5 247 L 204.5 247 L 206 248.5 L 204.5 248 L 109.5 248 L 109.5 247 Z " /><path fill="rgb(0,0,0)" stroke="rgb(0,0,0)" stroke-width="1" opacity="0.9137254901960784" d="M 272.5 255 L 271.5 257 L 272.5 255 Z " /><path fill="rgb(0,0,0)" stroke="rgb(0,0,0)" stroke-width="1" opacity="0.9137254901960784" d="M 435.5 258 L 436.5 260 L 435.5 258 Z " /><path fill="rgb(0,0,0)" stroke="rgb(0,0,0)" stroke-width="1" opacity="0.9137254901960784" d="M 267.5 259 L 266.5 261 L 267.5 259 Z " /><path fill="rgb(0,0,0)" stroke="rgb(0,0,0)" stroke-width="1" opacity="0.9137254901960784" d="M 240.5 262 L 238.5 265 L 240.5 262 Z " /><path fill="rgb(0,0,0)" stroke="rgb(0,0,0)" stroke-width="1" opacity="0.9137254901960784" d="M 226.5 263 L 230 263.5 L 226.5 264 L 226.5 263 Z " /><path fill="rgb(0,0,0)" stroke="rgb(0,0,0)" stroke-width="1" opacity="0.9137254901960784" d="M 442.5 264 L 449.5 272 L 442.5 264 Z " /><path fill="rgb(0,0,0)" stroke="rgb(0,0,0)" stroke-width="1" opacity="0.9137254901960784" d="M 250.5 276 L 249.5 278 L 250.5 276 Z " /><path fill="rgb(0,0,0)" stroke="rgb(0,0,0)" stroke-width="1" opacity="0.9137254901960784" d="M 109.5 277 L 229 277.5 L 109.5 278 L 109.5 277 Z " /><path fill="rgb(0,0,0)" stroke="rgb(0,0,0)" stroke-width="1" opacity="0.9137254901960784" d="M 458.5 282 L 459.5 284 L 458.5 282 Z " /><path fill="rgb(0,0,0)" stroke="rgb(0,0,0)" stroke-width="1" opacity="0.9137254901960784" d="M 248.5 334 L 249.5 336 L 248.5 334 Z " /><path fill="rgb(0,0,0)" stroke="rgb(0,0,0)" stroke-width="1" opacity="0.9137254901960784" d="M 202.5 351 L 203 353.5 L 202 353.5 L 202.5 351 Z " /><path fill="rgb(0,0,0)" stroke="rgb(0,0,0)" stroke-width="1" opacity="0.9137254901960784" d="M 202.5 371 L 203 373.5 L 202 373.5 L 202.5 371 Z " /><path fill="rgb(0,0,0)" stroke="rgb(0,0,0)" stroke-width="1" opacity="0.9137254901960784" d="M 456.5 386 L 457.5 388 L 456.5 386 Z " /><path fill="rgb(0,0,0)" stroke="rgb(0,0,0)" stroke-width="1" opacity="0.9137254901960784" d="M 38.5 407 L 35.5 411 L 38.5 407 Z " /><path fill="rgb(0,0,0)" stroke="rgb(0,0,0)" stroke-width="1" opacity="0.9137254901960784" d="M 455.5 446 L 454.5 448 L 455.5 446 Z " /><path fill="rgb(0,0,0)" stroke="rgb(0,0,0)" stroke-width="1" opacity="0.9137254901960784" d="M 249.5 447 L 251.5 450 L 249.5 447 Z " /><path fill="rgb(0,0,0)" stroke="rgb(0,0,0)" stroke-width="1" opacity="0.9137254901960784" d="M 35.5 456 L 38.5 460 L 35.5 456 Z " /><path fill="rgb(0,0,0)" stroke="rgb(0,0,0)" stroke-width="1" opacity="0.9137254901960784" d="M 446.5 456 L 445.5 458 L 446.5 456 Z " /><path fill="rgb(0,0,0)" stroke="rgb(0,0,0)" stroke-width="1" opacity="0.9137254901960784" d="M 239.5 461 L 241.5 464 L 239.5 461 Z " /><path fill="rgb(0,0,0)" stroke="rgb(0,0,0)" stroke-width="1" opacity="0.9137254901960784" d="M 265.5 463 L 266.5 465 L 265.5 463 Z " /><path fill="rgb(0,0,0)" stroke="rgb(0,0,0)" stroke-width="1" opacity="0.9137254901960784" d="M 437.5 464 L 436.5 466 L 437.5 464 Z " /><path fill="rgb(0,0,0)" stroke="rgb(0,0,0)" stroke-width="1" opacity="0.9137254901960784" d="M 270.5 467 L 271.5 469 L 270.5 467 Z " /><path fill="rgb(0,0,0)" stroke="rgb(0,0,0)" stroke-width="1" opacity="0.9137254901960784" d="M 345.5 495 L 351 495.5 L 345.5 496 L 345.5 495 Z " /><path fill="rgb(0,0,0)" stroke="rgb(0,0,0)" stroke-width="1" opacity="0.9137254901960784" d="M 354.5 495 L 359 495.5 L 354.5 496 L 354.5 495 Z " /><path fill="rgb(0,0,0)" stroke="rgb(0,0,0)" stroke-width="1" opacity="1" d="M 435.5 16 Q 444.8 18.7 449 26.5 L 450 32.5 L 445.5 39 L 428 20.5 L 431.5 17 L 435.5 16 Z " /><path fill="rgb(0,0,0)" stroke="rgb(0,0,0)" stroke-width="1" opacity="1" d="M 406.5 30 L 415.5 33 L 451 68.5 Q 457 74.5 455 88.5 L 451 96.5 L 392.5 155 L 385.5 156 Q 379.5 154.5 381 145.5 L 438 88.5 Q 441.2 86.2 440 79.5 L 433.5 72 L 431.5 72 L 371.5 131 L 336 94.5 L 396.5 34 L 401.5 31 L 406.5 30 Z " /><path fill="rgb(0,0,0)" stroke="rgb(0,0,0)" stroke-width="1" opacity="1" d="M 57.5 33 L 61 33.5 L 61 382 Q 39.1 382.8 27.5 395 L 27 61.5 Q 30.1 47.1 40.5 40 Q 47.1 34.6 57.5 33 Z " /><path fill="rgb(0,0,0)" stroke="rgb(0,0,0)" stroke-width="1" opacity="1" d="M 78 33 L 368.5 33 Q 369.5 33 369 37.5 L 316.5 90 L 109.5 90 L 105.5 91 L 102 94.5 L 101 101.5 L 104.5 106 L 106.5 107 L 308 107.5 L 278.5 137 L 107.5 137 L 102 141.5 L 101 147.5 L 104.5 153 L 106.5 154 L 261 154.5 L 231.5 184 L 106.5 184 L 103 186.5 Q 100.3 188.8 101 194.5 L 105.5 200 L 107.5 201 L 219 201 L 214 218.5 Q 207.6 223.1 204.5 231 L 106.5 231 L 102 234.5 L 101 241.5 L 105.5 247 L 109.5 248 L 204.5 248 L 206 249.5 L 214.5 260 Q 220.2 263.8 229.5 264 L 241.5 260 L 247.5 254 L 238 264.5 L 228.5 277 L 109.5 277 L 105.5 278 L 102 281.5 L 101 288.5 L 104.5 293 L 106.5 294 L 218 294 Q 211 307.4 207 324 L 107.5 324 L 102 328.5 L 101 334.5 L 103 339 L 106.5 341 L 204 341.5 L 202 351.5 L 202 373.5 L 203 374.5 L 203 382 L 78 382 L 78 33 Z " /><path fill="rgb(0,0,0)" stroke="rgb(0,0,0)" stroke-width="1" opacity="1" d="M 327.5 112 L 356 139.5 L 263.5 232 L 240.5 238 L 231.5 246 L 227.5 247 L 221 242.5 L 221 235.5 L 229 227.5 L 236 203.5 L 327.5 112 Z " /><path fill="rgb(0,0,0)" stroke="rgb(0,0,0)" stroke-width="1" opacity="1" d="M 367.5 152 L 369 152.5 L 369 213 L 348.5 212 L 347.5 213 L 334.5 213 L 317.5 216 L 297.5 223 L 367.5 152 Z " /><path fill="rgb(0,0,0)" stroke="rgb(0,0,0)" stroke-width="1" opacity="1" d="M 345.5 229 L 358.5 229 L 359.5 230 L 375.5 231 Q 393.2 234.3 407.5 241 Q 436 254.5 455 277.5 Q 472.4 298.1 481 327.5 L 485 349.5 L 485 375.5 L 480 400.5 L 468 428.5 Q 456.1 449.1 438.5 464 Q 421.1 479.1 397.5 488 L 374.5 494 L 351.5 496 L 350.5 495 L 329.5 494 L 301.5 486 Q 271.8 473.2 252 450.5 Q 234.4 431.1 225 403.5 L 220 382.5 L 219 351.5 L 225 321.5 L 235 298.5 Q 247 276.5 265.5 261 Q 281 247.5 301.5 239 L 323.5 232 L 334.5 231 L 335.5 230 L 344.5 230 L 345.5 229 Z M 346 296 L 312 306 L 256 320 Q 250 321 247 326 L 248 335 L 254 338 L 280 344 L 348 363 L 367 359 L 432 341 L 434 342 L 434 384 L 430 386 L 428 388 L 428 422 L 443 414 L 456 422 L 458 422 L 458 388 L 451 384 L 451 334 L 452 333 L 451 325 L 447 321 L 433 317 L 418 314 L 353 296 L 346 296 Z M 281 361 L 281 392 L 283 393 L 338 403 L 362 403 L 412 393 L 417 393 L 418 392 L 418 361 L 353 378 L 342 377 L 338 375 L 281 361 Z " /><path fill="rgb(0,0,0)" stroke="rgb(0,0,0)" stroke-width="1" opacity="1" d="M 56.5 399 L 206.5 399 L 207 402.5 Q 218.7 442.3 245 467.5 L 56.5 468 Q 40.7 464.8 33 453.5 L 27 439.5 L 27 427.5 Q 30.4 412.4 41.5 405 L 56.5 399 Z " /><path fill="rgb(0,0,0)" stroke="rgb(0,0,0)" stroke-width="1" opacity="0.2627450980392157" d="M 450.5 29 L 451 31.5 L 450 31.5 L 450.5 29 Z " /><path fill="rgb(0,0,0)" stroke="rgb(0,0,0)" stroke-width="1" opacity="0.2627450980392157" d="M 60.5 32 L 62 33.5 L 62 381.5 L 61 381.5 L 61 33.5 L 60.5 32 Z " /><path fill="rgb(0,0,0)" stroke="rgb(0,0,0)" stroke-width="1" opacity="0.2627450980392157" d="M 77.5 32 L 369 32.5 L 77.5 33 L 77.5 32 Z " /><path fill="rgb(0,0,0)" stroke="rgb(0,0,0)" stroke-width="1" opacity="0.2627450980392157" d="M 397.5 32 L 335.5 95 L 397.5 32 Z " /><path fill="rgb(0,0,0)" stroke="rgb(0,0,0)" stroke-width="1" opacity="0.2627450980392157" d="M 448.5 36 L 445.5 40 L 448.5 36 Z " /><path fill="rgb(0,0,0)" stroke="rgb(0,0,0)" stroke-width="1" opacity="0.2627450980392157" d="M 33.5 46 L 32.5 48 L 33.5 46 Z " /><path fill="rgb(0,0,0)" stroke="rgb(0,0,0)" stroke-width="1" opacity="0.2627450980392157" d="M 432.5 72 L 372.5 133 L 371 132.5 L 432.5 72 Z " /><path fill="rgb(0,0,0)" stroke="rgb(0,0,0)" stroke-width="1" opacity="0.2627450980392157" d="M 438.5 86 L 382.5 143 L 438.5 86 Z " /><path fill="rgb(0,0,0)" stroke="rgb(0,0,0)" stroke-width="1" opacity="0.2627450980392157" d="M 451.5 96 L 449.5 99 L 451.5 96 Z " /><path fill="rgb(0,0,0)" stroke="rgb(0,0,0)" stroke-width="1" opacity="0.2627450980392157" d="M 107.5 106 L 309 106.5 L 107.5 107 L 107.5 106 Z " /><path fill="rgb(0,0,0)" stroke="rgb(0,0,0)" stroke-width="1" opacity="0.2627450980392157" d="M 328.5 111 L 356.5 140 L 328.5 111 Z " /><path fill="rgb(0,0,0)" stroke="rgb(0,0,0)" stroke-width="1" opacity="0.2627450980392157" d="M 104.5 139 L 103.5 141 L 104.5 139 Z " /><path fill="rgb(0,0,0)" stroke="rgb(0,0,0)" stroke-width="1" opacity="0.2627450980392157" d="M 103.5 150 L 105.5 153 L 103.5 150 Z " /><path fill="rgb(0,0,0)" stroke="rgb(0,0,0)" stroke-width="1" opacity="0.2627450980392157" d="M 368.5 151 L 369.5 153 L 368.5 151 Z " /><path fill="rgb(0,0,0)" stroke="rgb(0,0,0)" stroke-width="1" opacity="0.2627450980392157" d="M 108.5 153 L 262 153.5 L 108.5 154 L 108.5 153 Z " /><path fill="rgb(0,0,0)" stroke="rgb(0,0,0)" stroke-width="1" opacity="0.2627450980392157" d="M 381.5 153 L 382.5 155 L 381.5 153 Z " /><path fill="rgb(0,0,0)" stroke="rgb(0,0,0)" stroke-width="1" opacity="0.2627450980392157" d="M 393.5 154 L 392.5 156 L 393.5 154 Z " /><path fill="rgb(0,0,0)" stroke="rgb(0,0,0)" stroke-width="1" opacity="0.2627450980392157" d="M 109.5 184 L 232 184.5 L 109.5 185 L 109.5 184 Z " /><path fill="rgb(0,0,0)" stroke="rgb(0,0,0)" stroke-width="1" opacity="0.2627450980392157" d="M 105.5 185 L 103.5 188 L 105.5 185 Z " /><path fill="rgb(0,0,0)" stroke="rgb(0,0,0)" stroke-width="1" opacity="0.2627450980392157" d="M 103.5 197 L 104.5 199 L 103.5 197 Z " /><path fill="rgb(0,0,0)" stroke="rgb(0,0,0)" stroke-width="1" opacity="0.2627450980392157" d="M 339.5 213 L 343 213.5 L 339.5 214 L 339.5 213 Z " /><path fill="rgb(0,0,0)" stroke="rgb(0,0,0)" stroke-width="1" opacity="0.2627450980392157" d="M 361.5 213 L 365 213.5 L 361.5 214 L 361.5 213 Z " /><path fill="rgb(0,0,0)" stroke="rgb(0,0,0)" stroke-width="1" opacity="0.2627450980392157" d="M 330.5 214 L 333 214.5 L 330.5 215 L 330.5 214 Z " /><path fill="rgb(0,0,0)" stroke="rgb(0,0,0)" stroke-width="1" opacity="0.2627450980392157" d="M 336.5 229 L 339 229.5 L 336.5 230 L 336.5 229 Z " /><path fill="rgb(0,0,0)" stroke="rgb(0,0,0)" stroke-width="1" opacity="0.2627450980392157" d="M 365.5 229 L 368 229.5 L 365.5 230 L 365.5 229 Z " /><path fill="rgb(0,0,0)" stroke="rgb(0,0,0)" stroke-width="1" opacity="0.2627450980392157" d="M 107.5 231 L 205 231.5 L 107.5 232 L 107.5 231 Z " /><path fill="rgb(0,0,0)" stroke="rgb(0,0,0)" stroke-width="1" opacity="0.2627450980392157" d="M 207.5 251 L 208.5 253 L 207.5 251 Z " /><path fill="rgb(0,0,0)" stroke="rgb(0,0,0)" stroke-width="1" opacity="0.2627450980392157" d="M 428.5 252 L 429.5 254 L 428.5 252 Z " /><path fill="rgb(0,0,0)" stroke="rgb(0,0,0)" stroke-width="1" opacity="0.2627450980392157" d="M 247.5 253 L 245.5 256 L 247.5 253 Z " /><path fill="rgb(0,0,0)" stroke="rgb(0,0,0)" stroke-width="1" opacity="0.2627450980392157" d="M 271.5 255 L 270.5 257 L 271.5 255 Z " /><path fill="rgb(0,0,0)" stroke="rgb(0,0,0)" stroke-width="1" opacity="0.2627450980392157" d="M 432.5 255 L 433.5 257 L 432.5 255 Z " /><path fill="rgb(0,0,0)" stroke="rgb(0,0,0)" stroke-width="1" opacity="0.2627450980392157" d="M 436.5 258 L 438.5 261 L 436.5 258 Z " /><path fill="rgb(0,0,0)" stroke="rgb(0,0,0)" stroke-width="1" opacity="0.2627450980392157" d="M 266.5 259 L 264.5 262 L 266.5 259 Z " /><path fill="rgb(0,0,0)" stroke="rgb(0,0,0)" stroke-width="1" opacity="0.2627450980392157" d="M 239.5 264 L 237.5 267 L 239.5 264 Z " /><path fill="rgb(0,0,0)" stroke="rgb(0,0,0)" stroke-width="1" opacity="0.2627450980392157" d="M 445.5 266 L 447.5 269 L 445.5 266 Z " /><path fill="rgb(0,0,0)" stroke="rgb(0,0,0)" stroke-width="1" opacity="0.2627450980392157" d="M 234.5 270 L 233.5 272 L 234.5 270 Z " /><path fill="rgb(0,0,0)" stroke="rgb(0,0,0)" stroke-width="1" opacity="0.2627450980392157" d="M 231.5 274 L 230.5 276 L 231.5 274 Z " /><path fill="rgb(0,0,0)" stroke="rgb(0,0,0)" stroke-width="1" opacity="0.2627450980392157" d="M 251.5 274 L 249.5 277 L 251.5 274 Z " /><path fill="rgb(0,0,0)" stroke="rgb(0,0,0)" stroke-width="1" opacity="0.2627450980392157" d="M 453.5 275 L 455.5 278 L 453.5 275 Z " /><path fill="rgb(0,0,0)" stroke="rgb(0,0,0)" stroke-width="1" opacity="0.2627450980392157" d="M 246.5 280 L 245.5 282 L 246.5 280 Z " /><path fill="rgb(0,0,0)" stroke="rgb(0,0,0)" stroke-width="1" opacity="0.2627450980392157" d="M 458.5 281 L 459.5 283 L 458.5 281 Z " /><path fill="rgb(0,0,0)" stroke="rgb(0,0,0)" stroke-width="1" opacity="0.2627450980392157" d="M 107.5 293 L 219 293.5 L 107.5 294 L 107.5 293 Z " /><path fill="rgb(0,0,0)" stroke="rgb(0,0,0)" stroke-width="1" opacity="0.2627450980392157" d="M 347.5 296 L 351 296.5 L 347.5 297 L 347.5 296 Z " /><path fill="rgb(0,0,0)" stroke="rgb(0,0,0)" stroke-width="1" opacity="0.2627450980392157" d="M 104.5 326 L 103.5 328 L 104.5 326 Z " /><path fill="rgb(0,0,0)" stroke="rgb(0,0,0)" stroke-width="1" opacity="0.2627450980392157" d="M 451.5 327 L 452 330.5 L 451 330.5 L 451.5 327 Z " /><path fill="rgb(0,0,0)" stroke="rgb(0,0,0)" stroke-width="1" opacity="0.2627450980392157" d="M 450.5 333 L 451 383.5 L 450 383.5 L 450.5 333 Z " /><path fill="rgb(0,0,0)" stroke="rgb(0,0,0)" stroke-width="1" opacity="0.2627450980392157" d="M 103.5 337 L 104.5 339 L 103.5 337 Z " /><path fill="rgb(0,0,0)" stroke="rgb(0,0,0)" stroke-width="1" opacity="0.2627450980392157" d="M 109.5 340 L 204 340.5 L 109.5 341 L 109.5 340 Z " /><path fill="rgb(0,0,0)" stroke="rgb(0,0,0)" stroke-width="1" opacity="0.2627450980392157" d="M 484.5 342 L 485 344.5 L 484 344.5 L 484.5 342 Z " /><path fill="rgb(0,0,0)" stroke="rgb(0,0,0)" stroke-width="1" opacity="0.2627450980392157" d="M 203.5 346 L 204 348.5 L 203 348.5 L 203.5 346 Z " /><path fill="rgb(0,0,0)" stroke="rgb(0,0,0)" stroke-width="1" opacity="0.2627450980392157" d="M 485.5 351 L 486 354.5 L 485 354.5 L 485.5 351 Z " /><path fill="rgb(0,0,0)" stroke="rgb(0,0,0)" stroke-width="1" opacity="0.2627450980392157" d="M 218.5 353 L 219 370.5 L 218 370.5 L 218.5 353 Z " /><path fill="rgb(0,0,0)" stroke="rgb(0,0,0)" stroke-width="1" opacity="0.2627450980392157" d="M 282.5 361 L 282 362.5 L 281.5 392 L 281 362.5 L 282.5 361 Z " /><path fill="rgb(0,0,0)" stroke="rgb(0,0,0)" stroke-width="1" opacity="0.2627450980392157" d="M 485.5 370 L 486 373.5 L 485 373.5 L 485.5 370 Z " /><path fill="rgb(0,0,0)" stroke="rgb(0,0,0)" stroke-width="1" opacity="0.2627450980392157" d="M 203.5 376 L 204 378.5 L 203 378.5 L 203.5 376 Z " /><path fill="rgb(0,0,0)" stroke="rgb(0,0,0)" stroke-width="1" opacity="0.2627450980392157" d="M 219.5 378 L 220 380.5 L 219 380.5 L 219.5 378 Z " /><path fill="rgb(0,0,0)" stroke="rgb(0,0,0)" stroke-width="1" opacity="0.2627450980392157" d="M 347.5 378 L 352 378.5 L 347.5 379 L 347.5 378 Z " /><path fill="rgb(0,0,0)" stroke="rgb(0,0,0)" stroke-width="1" opacity="0.2627450980392157" d="M 484.5 380 L 485 382.5 L 484 382.5 L 484.5 380 Z " /><path fill="rgb(0,0,0)" stroke="rgb(0,0,0)" stroke-width="1" opacity="0.2627450980392157" d="M 52.5 383 L 55 383.5 L 52.5 384 L 52.5 383 Z " /><path fill="rgb(0,0,0)" stroke="rgb(0,0,0)" stroke-width="1" opacity="0.2627450980392157" d="M 428.5 387 L 429 420.5 L 428 420.5 L 428.5 387 Z " /><path fill="rgb(0,0,0)" stroke="rgb(0,0,0)" stroke-width="1" opacity="0.2627450980392157" d="M 58.5 398 L 206.5 398 L 208 399.5 L 207.5 401 L 207 399 L 58.5 399 L 58.5 398 Z " /><path fill="rgb(0,0,0)" stroke="rgb(0,0,0)" stroke-width="1" opacity="0.2627450980392157" d="M 363.5 401 L 366 401.5 L 363.5 402 L 363.5 401 Z " /><path fill="rgb(0,0,0)" stroke="rgb(0,0,0)" stroke-width="1" opacity="0.2627450980392157" d="M 341.5 402 L 345 402.5 L 341.5 403 L 341.5 402 Z " /><path fill="rgb(0,0,0)" stroke="rgb(0,0,0)" stroke-width="1" opacity="0.2627450980392157" d="M 354.5 402 L 358 402.5 L 354.5 403 L 354.5 402 Z " /><path fill="rgb(0,0,0)" stroke="rgb(0,0,0)" stroke-width="1" opacity="0.2627450980392157" d="M 41.5 404 L 40.5 406 L 41.5 404 Z " /><path fill="rgb(0,0,0)" stroke="rgb(0,0,0)" stroke-width="1" opacity="0.2627450980392157" d="M 461.5 439 L 460.5 441 L 461.5 439 Z " /><path fill="rgb(0,0,0)" stroke="rgb(0,0,0)" stroke-width="1" opacity="0.2627450980392157" d="M 458.5 443 L 457.5 445 L 458.5 443 Z " /><path fill="rgb(0,0,0)" stroke="rgb(0,0,0)" stroke-width="1" opacity="0.2627450980392157" d="M 246.5 444 L 247.5 446 L 246.5 444 Z " /><path fill="rgb(0,0,0)" stroke="rgb(0,0,0)" stroke-width="1" opacity="0.2627450980392157" d="M 228.5 446 L 229.5 448 L 228.5 446 Z " /><path fill="rgb(0,0,0)" stroke="rgb(0,0,0)" stroke-width="1" opacity="0.2627450980392157" d="M 455.5 447 L 452.5 451 L 455.5 447 Z " /><path fill="rgb(0,0,0)" stroke="rgb(0,0,0)" stroke-width="1" opacity="0.2627450980392157" d="M 250.5 449 L 252.5 452 L 250.5 449 Z " /><path fill="rgb(0,0,0)" stroke="rgb(0,0,0)" stroke-width="1" opacity="0.2627450980392157" d="M 233.5 453 L 234.5 455 L 233.5 453 Z " /><path fill="rgb(0,0,0)" stroke="rgb(0,0,0)" stroke-width="1" opacity="0.2627450980392157" d="M 238.5 459 L 240.5 462 L 238.5 459 Z " /><path fill="rgb(0,0,0)" stroke="rgb(0,0,0)" stroke-width="1" opacity="0.2627450980392157" d="M 262.5 461 L 265.5 465 L 262.5 461 Z " /><path fill="rgb(0,0,0)" stroke="rgb(0,0,0)" stroke-width="1" opacity="0.2627450980392157" d="M 439.5 463 L 437.5 466 L 439.5 463 Z " /><path fill="rgb(0,0,0)" stroke="rgb(0,0,0)" stroke-width="1" opacity="0.2627450980392157" d="M 269.5 467 L 270.5 469 L 269.5 467 Z " /><path fill="rgb(0,0,0)" stroke="rgb(0,0,0)" stroke-width="1" opacity="0.2627450980392157" d="M 57.5 468 L 247 468.5 L 57.5 469 L 57.5 468 Z " /><path fill="rgb(0,0,0)" stroke="rgb(0,0,0)" stroke-width="1" opacity="0.2627450980392157" d="M 433.5 468 L 432.5 470 L 433.5 468 Z " /><path fill="rgb(0,0,0)" stroke="rgb(0,0,0)" stroke-width="1" opacity="0.2627450980392157" d="M 279.5 474 L 280.5 476 L 279.5 474 Z " /><path fill="rgb(0,0,0)" stroke="rgb(0,0,0)" stroke-width="1" opacity="0.2627450980392157" d="M 337.5 495 L 341 495.5 L 337.5 496 L 337.5 495 Z " /><path fill="rgb(0,0,0)" stroke="rgb(0,0,0)" stroke-width="1" opacity="0.2627450980392157" d="M 364.5 495 L 367 495.5 L 364.5 496 L 364.5 495 Z " /></svg>