<svg width="512" height="512" version="1.1" xmlns="http://www.w3.org/2000/svg" desc="Created with imagetracer.js version 1.2.6" ><path fill="rgb(0,0,0)" stroke="rgb(0,0,0)" stroke-width="1" opacity="0.796078431372549" d="M 246.5 0 L 252 0.5 L 246.5 1 L 246.5 0 Z " /><path fill="rgb(0,0,0)" stroke="rgb(0,0,0)" stroke-width="1" opacity="0.796078431372549" d="M 260.5 0 L 266 0.5 L 260.5 1 L 260.5 0 Z " /><path fill="rgb(0,0,0)" stroke="rgb(0,0,0)" stroke-width="1" opacity="0.796078431372549" d="M 211.5 12 L 210.5 14 L 211.5 12 Z " /><path fill="rgb(0,0,0)" stroke="rgb(0,0,0)" stroke-width="1" opacity="0.796078431372549" d="M 300.5 12 L 301.5 14 L 300.5 12 Z " /><path fill="rgb(0,0,0)" stroke="rgb(0,0,0)" stroke-width="1" opacity="0.796078431372549" d="M 208.5 14 L 207.5 16 L 208.5 14 Z " /><path fill="rgb(0,0,0)" stroke="rgb(0,0,0)" stroke-width="1" opacity="0.796078431372549" d="M 303.5 14 L 304.5 16 L 303.5 14 Z " /><path fill="rgb(0,0,0)" stroke="rgb(0,0,0)" stroke-width="1" opacity="0.796078431372549" d="M 204.5 17 L 203.5 19 L 204.5 17 Z " /><path fill="rgb(0,0,0)" stroke="rgb(0,0,0)" stroke-width="1" opacity="0.796078431372549" d="M 307.5 17 L 308.5 19 L 307.5 17 Z " /><path fill="rgb(0,0,0)" stroke="rgb(0,0,0)" stroke-width="1" opacity="0.796078431372549" d="M 199.5 21 L 192.5 29 L 199.5 21 Z " /><path fill="rgb(0,0,0)" stroke="rgb(0,0,0)" stroke-width="1" opacity="0.796078431372549" d="M 312.5 21 L 319.5 29 L 312.5 21 Z " /><path fill="rgb(0,0,0)" stroke="rgb(0,0,0)" stroke-width="1" opacity="0.796078431372549" d="M 189.5 32 L 188.5 34 L 189.5 32 Z " /><path fill="rgb(0,0,0)" stroke="rgb(0,0,0)" stroke-width="1" opacity="0.796078431372549" d="M 322.5 32 L 323.5 34 L 322.5 32 Z " /><path fill="rgb(0,0,0)" stroke="rgb(0,0,0)" stroke-width="1" opacity="0.796078431372549" d="M 186.5 36 L 185.5 38 L 186.5 36 Z " /><path fill="rgb(0,0,0)" stroke="rgb(0,0,0)" stroke-width="1" opacity="0.796078431372549" d="M 325.5 36 L 326.5 38 L 325.5 36 Z " /><path fill="rgb(0,0,0)" stroke="rgb(0,0,0)" stroke-width="1" opacity="0.796078431372549" d="M 184.5 39 L 183.5 41 L 184.5 39 Z " /><path fill="rgb(0,0,0)" stroke="rgb(0,0,0)" stroke-width="1" opacity="0.796078431372549" d="M 339.5 69 L 340 71.5 L 339 71.5 L 339.5 69 Z " /><path fill="rgb(0,0,0)" stroke="rgb(0,0,0)" stroke-width="1" opacity="0.796078431372549" d="M 171.5 75 L 172 80.5 L 171 80.5 L 171.5 75 Z " /><path fill="rgb(0,0,0)" stroke="rgb(0,0,0)" stroke-width="1" opacity="0.796078431372549" d="M 340.5 75 L 341 80.5 L 340 80.5 L 340.5 75 Z " /><path fill="rgb(0,0,0)" stroke="rgb(0,0,0)" stroke-width="1" opacity="0.796078431372549" d="M 171.5 89 L 172 94.5 L 171 94.5 L 171.5 89 Z " /><path fill="rgb(0,0,0)" stroke="rgb(0,0,0)" stroke-width="1" opacity="0.796078431372549" d="M 340.5 89 L 341 94.5 L 340 94.5 L 340.5 89 Z " /><path fill="rgb(0,0,0)" stroke="rgb(0,0,0)" stroke-width="1" opacity="0.796078431372549" d="M 183.5 129 L 184.5 131 L 183.5 129 Z " /><path fill="rgb(0,0,0)" stroke="rgb(0,0,0)" stroke-width="1" opacity="0.796078431372549" d="M 328.5 129 L 327.5 131 L 328.5 129 Z " /><path fill="rgb(0,0,0)" stroke="rgb(0,0,0)" stroke-width="1" opacity="0.796078431372549" d="M 185.5 132 L 186.5 134 L 185.5 132 Z " /><path fill="rgb(0,0,0)" stroke="rgb(0,0,0)" stroke-width="1" opacity="0.796078431372549" d="M 326.5 132 L 325.5 134 L 326.5 132 Z " /><path fill="rgb(0,0,0)" stroke="rgb(0,0,0)" stroke-width="1" opacity="0.796078431372549" d="M 188.5 136 L 189.5 138 L 188.5 136 Z " /><path fill="rgb(0,0,0)" stroke="rgb(0,0,0)" stroke-width="1" opacity="0.796078431372549" d="M 323.5 136 L 322.5 138 L 323.5 136 Z " /><path fill="rgb(0,0,0)" stroke="rgb(0,0,0)" stroke-width="1" opacity="0.796078431372549" d="M 192.5 141 L 199.5 149 L 192.5 141 Z " /><path fill="rgb(0,0,0)" stroke="rgb(0,0,0)" stroke-width="1" opacity="0.796078431372549" d="M 319.5 141 L 312.5 149 L 319.5 141 Z " /><path fill="rgb(0,0,0)" stroke="rgb(0,0,0)" stroke-width="1" opacity="0.796078431372549" d="M 203.5 151 L 204.5 153 L 203.5 151 Z " /><path fill="rgb(0,0,0)" stroke="rgb(0,0,0)" stroke-width="1" opacity="0.796078431372549" d="M 308.5 151 L 307.5 153 L 308.5 151 Z " /><path fill="rgb(0,0,0)" stroke="rgb(0,0,0)" stroke-width="1" opacity="0.796078431372549" d="M 207.5 154 L 208.5 156 L 207.5 154 Z " /><path fill="rgb(0,0,0)" stroke="rgb(0,0,0)" stroke-width="1" opacity="0.796078431372549" d="M 304.5 154 L 303.5 156 L 304.5 154 Z " /><path fill="rgb(0,0,0)" stroke="rgb(0,0,0)" stroke-width="1" opacity="0.796078431372549" d="M 210.5 156 L 211.5 158 L 210.5 156 Z " /><path fill="rgb(0,0,0)" stroke="rgb(0,0,0)" stroke-width="1" opacity="0.796078431372549" d="M 301.5 156 L 300.5 158 L 301.5 156 Z " /><path fill="rgb(0,0,0)" stroke="rgb(0,0,0)" stroke-width="1" opacity="0.796078431372549" d="M 246.5 169 L 252 169.5 L 246.5 170 L 246.5 169 Z " /><path fill="rgb(0,0,0)" stroke="rgb(0,0,0)" stroke-width="1" opacity="0.796078431372549" d="M 260.5 169 L 266 169.5 L 260.5 170 L 260.5 169 Z " /><path fill="rgb(0,0,0)" stroke="rgb(0,0,0)" stroke-width="1" opacity="0.796078431372549" d="M 198.5 184 L 199.5 186 L 198.5 184 Z " /><path fill="rgb(0,0,0)" stroke="rgb(0,0,0)" stroke-width="1" opacity="0.796078431372549" d="M 313.5 184 L 312.5 186 L 313.5 184 Z " /><path fill="rgb(0,0,0)" stroke="rgb(0,0,0)" stroke-width="1" opacity="0.796078431372549" d="M 333.5 188 L 336 189.5 L 334.5 189 L 333.5 188 Z " /><path fill="rgb(0,0,0)" stroke="rgb(0,0,0)" stroke-width="1" opacity="0.796078431372549" d="M 168.5 193 L 167.5 195 L 168.5 193 Z " /><path fill="rgb(0,0,0)" stroke="rgb(0,0,0)" stroke-width="1" opacity="0.796078431372549" d="M 343.5 193 L 344.5 195 L 343.5 193 Z " /><path fill="rgb(0,0,0)" stroke="rgb(0,0,0)" stroke-width="1" opacity="0.796078431372549" d="M 163.5 196 L 162.5 198 L 163.5 196 Z " /><path fill="rgb(0,0,0)" stroke="rgb(0,0,0)" stroke-width="1" opacity="0.796078431372549" d="M 348.5 196 L 349.5 198 L 348.5 196 Z " /><path fill="rgb(0,0,0)" stroke="rgb(0,0,0)" stroke-width="1" opacity="0.796078431372549" d="M 230.5 197 L 233 197.5 L 230.5 198 L 230.5 197 Z " /><path fill="rgb(0,0,0)" stroke="rgb(0,0,0)" stroke-width="1" opacity="0.796078431372549" d="M 279.5 197 L 282 197.5 L 279.5 198 L 279.5 197 Z " /><path fill="rgb(0,0,0)" stroke="rgb(0,0,0)" stroke-width="1" opacity="0.796078431372549" d="M 235.5 198 L 238 198.5 L 235.5 199 L 235.5 198 Z " /><path fill="rgb(0,0,0)" stroke="rgb(0,0,0)" stroke-width="1" opacity="0.796078431372549" d="M 274.5 198 L 277 198.5 L 274.5 199 L 274.5 198 Z " /><path fill="rgb(0,0,0)" stroke="rgb(0,0,0)" stroke-width="1" opacity="0.796078431372549" d="M 351.5 198 L 352.5 200 L 351.5 198 Z " /><path fill="rgb(0,0,0)" stroke="rgb(0,0,0)" stroke-width="1" opacity="0.796078431372549" d="M 242.5 199 L 247 199.5 L 242.5 200 L 242.5 199 Z " /><path fill="rgb(0,0,0)" stroke="rgb(0,0,0)" stroke-width="1" opacity="0.796078431372549" d="M 265.5 199 L 270 199.5 L 265.5 200 L 265.5 199 Z " /><path fill="rgb(0,0,0)" stroke="rgb(0,0,0)" stroke-width="1" opacity="0.796078431372549" d="M 157.5 200 L 156.5 202 L 157.5 200 Z " /><path fill="rgb(0,0,0)" stroke="rgb(0,0,0)" stroke-width="1" opacity="0.796078431372549" d="M 354.5 200 L 355.5 202 L 354.5 200 Z " /><path fill="rgb(0,0,0)" stroke="rgb(0,0,0)" stroke-width="1" opacity="0.796078431372549" d="M 154.5 202 L 153.5 204 L 154.5 202 Z " /><path fill="rgb(0,0,0)" stroke="rgb(0,0,0)" stroke-width="1" opacity="0.796078431372549" d="M 357.5 202 L 358.5 204 L 357.5 202 Z " /><path fill="rgb(0,0,0)" stroke="rgb(0,0,0)" stroke-width="1" opacity="0.796078431372549" d="M 150.5 205 L 149.5 207 L 150.5 205 Z " /><path fill="rgb(0,0,0)" stroke="rgb(0,0,0)" stroke-width="1" opacity="0.796078431372549" d="M 361.5 205 L 362.5 207 L 361.5 205 Z " /><path fill="rgb(0,0,0)" stroke="rgb(0,0,0)" stroke-width="1" opacity="0.796078431372549" d="M 146.5 208 L 143.5 212 L 146.5 208 Z " /><path fill="rgb(0,0,0)" stroke="rgb(0,0,0)" stroke-width="1" opacity="0.796078431372549" d="M 365.5 208 L 368.5 212 L 365.5 208 Z " /><path fill="rgb(0,0,0)" stroke="rgb(0,0,0)" stroke-width="1" opacity="0.796078431372549" d="M 371.5 213 L 372.5 215 L 371.5 213 Z " /><path fill="rgb(0,0,0)" stroke="rgb(0,0,0)" stroke-width="1" opacity="0.796078431372549" d="M 87.5 234 L 86.5 236 L 87.5 234 Z " /><path fill="rgb(0,0,0)" stroke="rgb(0,0,0)" stroke-width="1" opacity="0.796078431372549" d="M 424.5 234 L 425.5 236 L 424.5 234 Z " /><path fill="rgb(0,0,0)" stroke="rgb(0,0,0)" stroke-width="1" opacity="0.796078431372549" d="M 84.5 237 L 83.5 239 L 84.5 237 Z " /><path fill="rgb(0,0,0)" stroke="rgb(0,0,0)" stroke-width="1" opacity="0.796078431372549" d="M 427.5 237 L 428.5 239 L 427.5 237 Z " /><path fill="rgb(0,0,0)" stroke="rgb(0,0,0)" stroke-width="1" opacity="0.796078431372549" d="M 81.5 242 L 82 244.5 L 81 244.5 L 81.5 242 Z " /><path fill="rgb(0,0,0)" stroke="rgb(0,0,0)" stroke-width="1" opacity="0.796078431372549" d="M 430.5 242 L 431 244.5 L 430 244.5 L 430.5 242 Z " /><path fill="rgb(0,0,0)" stroke="rgb(0,0,0)" stroke-width="1" opacity="0.796078431372549" d="M 92.5 280 L 95 280.5 L 92.5 281 L 92.5 280 Z " /><path fill="rgb(0,0,0)" stroke="rgb(0,0,0)" stroke-width="1" opacity="0.796078431372549" d="M 417.5 280 L 420 280.5 L 417.5 281 L 417.5 280 Z " /><path fill="rgb(0,0,0)" stroke="rgb(0,0,0)" stroke-width="1" opacity="0.796078431372549" d="M 111.5 287 L 113.5 290 L 111.5 287 Z " /><path fill="rgb(0,0,0)" stroke="rgb(0,0,0)" stroke-width="1" opacity="0.796078431372549" d="M 400.5 287 L 398.5 290 L 400.5 287 Z " /><path fill="rgb(0,0,0)" stroke="rgb(0,0,0)" stroke-width="1" opacity="0.796078431372549" d="M 116.5 291 L 119.5 295 L 116.5 291 Z " /><path fill="rgb(0,0,0)" stroke="rgb(0,0,0)" stroke-width="1" opacity="0.796078431372549" d="M 394.5 292 L 392.5 295 L 394.5 292 Z " /><path fill="rgb(0,0,0)" stroke="rgb(0,0,0)" stroke-width="1" opacity="0.796078431372549" d="M 121.5 297 L 123.5 300 L 121.5 297 Z " /><path fill="rgb(0,0,0)" stroke="rgb(0,0,0)" stroke-width="1" opacity="0.796078431372549" d="M 390.5 297 L 388.5 300 L 390.5 297 Z " /><path fill="rgb(0,0,0)" stroke="rgb(0,0,0)" stroke-width="1" opacity="0.796078431372549" d="M 70.5 310 L 74 310.5 L 70.5 311 L 70.5 310 Z " /><path fill="rgb(0,0,0)" stroke="rgb(0,0,0)" stroke-width="1" opacity="0.796078431372549" d="M 438.5 310 L 442 310.5 L 438.5 311 L 438.5 310 Z " /><path fill="rgb(0,0,0)" stroke="rgb(0,0,0)" stroke-width="1" opacity="0.796078431372549" d="M 92.5 311 L 93.5 313 L 92.5 311 Z " /><path fill="rgb(0,0,0)" stroke="rgb(0,0,0)" stroke-width="1" opacity="0.796078431372549" d="M 419.5 311 L 418.5 313 L 419.5 311 Z " /><path fill="rgb(0,0,0)" stroke="rgb(0,0,0)" stroke-width="1" opacity="0.796078431372549" d="M 95.5 313 L 97.5 316 L 95.5 313 Z " /><path fill="rgb(0,0,0)" stroke="rgb(0,0,0)" stroke-width="1" opacity="0.796078431372549" d="M 416.5 313 L 414.5 316 L 416.5 313 Z " /><path fill="rgb(0,0,0)" stroke="rgb(0,0,0)" stroke-width="1" opacity="0.796078431372549" d="M 130.5 316 L 131 318.5 L 130 318.5 L 130.5 316 Z " /><path fill="rgb(0,0,0)" stroke="rgb(0,0,0)" stroke-width="1" opacity="0.796078431372549" d="M 381.5 316 L 382 318.5 L 381 318.5 L 381.5 316 Z " /><path fill="rgb(0,0,0)" stroke="rgb(0,0,0)" stroke-width="1" opacity="0.796078431372549" d="M 54.5 317 L 48.5 324 L 54.5 317 Z " /><path fill="rgb(0,0,0)" stroke="rgb(0,0,0)" stroke-width="1" opacity="0.796078431372549" d="M 98.5 317 L 99.5 319 L 98.5 317 Z " /><path fill="rgb(0,0,0)" stroke="rgb(0,0,0)" stroke-width="1" opacity="0.796078431372549" d="M 413.5 317 L 412.5 319 L 413.5 317 Z " /><path fill="rgb(0,0,0)" stroke="rgb(0,0,0)" stroke-width="1" opacity="0.796078431372549" d="M 457.5 317 L 463.5 324 L 457.5 317 Z " /><path fill="rgb(0,0,0)" stroke="rgb(0,0,0)" stroke-width="1" opacity="0.796078431372549" d="M 41.5 339 L 42 342.5 L 41 342.5 L 41.5 339 Z " /><path fill="rgb(0,0,0)" stroke="rgb(0,0,0)" stroke-width="1" opacity="0.796078431372549" d="M 470.5 339 L 471 342.5 L 470 342.5 L 470.5 339 Z " /><path fill="rgb(0,0,0)" stroke="rgb(0,0,0)" stroke-width="1" opacity="0.796078431372549" d="M 41.5 347 L 42 350.5 L 41 350.5 L 41.5 347 Z " /><path fill="rgb(0,0,0)" stroke="rgb(0,0,0)" stroke-width="1" opacity="0.796078431372549" d="M 470.5 347 L 471 350.5 L 470 350.5 L 470.5 347 Z " /><path fill="rgb(0,0,0)" stroke="rgb(0,0,0)" stroke-width="1" opacity="0.796078431372549" d="M 48.5 366 L 54.5 373 L 48.5 366 Z " /><path fill="rgb(0,0,0)" stroke="rgb(0,0,0)" stroke-width="1" opacity="0.796078431372549" d="M 463.5 366 L 457.5 373 L 463.5 366 Z " /><path fill="rgb(0,0,0)" stroke="rgb(0,0,0)" stroke-width="1" opacity="0.796078431372549" d="M 99.5 371 L 98.5 373 L 99.5 371 Z " /><path fill="rgb(0,0,0)" stroke="rgb(0,0,0)" stroke-width="1" opacity="0.796078431372549" d="M 130.5 371 L 131 373.5 L 130 373.5 L 130.5 371 Z " /><path fill="rgb(0,0,0)" stroke="rgb(0,0,0)" stroke-width="1" opacity="0.796078431372549" d="M 381.5 371 L 382 373.5 L 381 373.5 L 381.5 371 Z " /><path fill="rgb(0,0,0)" stroke="rgb(0,0,0)" stroke-width="1" opacity="0.796078431372549" d="M 412.5 371 L 413.5 373 L 412.5 371 Z " /><path fill="rgb(0,0,0)" stroke="rgb(0,0,0)" stroke-width="1" opacity="0.796078431372549" d="M 97.5 374 L 95.5 377 L 97.5 374 Z " /><path fill="rgb(0,0,0)" stroke="rgb(0,0,0)" stroke-width="1" opacity="0.796078431372549" d="M 414.5 374 L 416.5 377 L 414.5 374 Z " /><path fill="rgb(0,0,0)" stroke="rgb(0,0,0)" stroke-width="1" opacity="0.796078431372549" d="M 93.5 377 L 92.5 379 L 93.5 377 Z " /><path fill="rgb(0,0,0)" stroke="rgb(0,0,0)" stroke-width="1" opacity="0.796078431372549" d="M 418.5 377 L 419.5 379 L 418.5 377 Z " /><path fill="rgb(0,0,0)" stroke="rgb(0,0,0)" stroke-width="1" opacity="0.796078431372549" d="M 70.5 379 L 74 379.5 L 70.5 380 L 70.5 379 Z " /><path fill="rgb(0,0,0)" stroke="rgb(0,0,0)" stroke-width="1" opacity="0.796078431372549" d="M 438.5 379 L 442 379.5 L 438.5 380 L 438.5 379 Z " /><path fill="rgb(0,0,0)" stroke="rgb(0,0,0)" stroke-width="1" opacity="0.796078431372549" d="M 123.5 390 L 121.5 393 L 123.5 390 Z " /><path fill="rgb(0,0,0)" stroke="rgb(0,0,0)" stroke-width="1" opacity="0.796078431372549" d="M 388.5 390 L 390.5 393 L 388.5 390 Z " /><path fill="rgb(0,0,0)" stroke="rgb(0,0,0)" stroke-width="1" opacity="0.796078431372549" d="M 119.5 395 L 116.5 399 L 119.5 395 Z " /><path fill="rgb(0,0,0)" stroke="rgb(0,0,0)" stroke-width="1" opacity="0.796078431372549" d="M 392.5 395 L 394.5 398 L 392.5 395 Z " /><path fill="rgb(0,0,0)" stroke="rgb(0,0,0)" stroke-width="1" opacity="0.796078431372549" d="M 113.5 400 L 111.5 403 L 113.5 400 Z " /><path fill="rgb(0,0,0)" stroke="rgb(0,0,0)" stroke-width="1" opacity="0.796078431372549" d="M 398.5 400 L 400.5 403 L 398.5 400 Z " /><path fill="rgb(0,0,0)" stroke="rgb(0,0,0)" stroke-width="1" opacity="0.796078431372549" d="M 92.5 409 L 95 409.5 L 92.5 410 L 92.5 409 Z " /><path fill="rgb(0,0,0)" stroke="rgb(0,0,0)" stroke-width="1" opacity="0.796078431372549" d="M 417.5 409 L 420 409.5 L 417.5 410 L 417.5 409 Z " /><path fill="rgb(0,0,0)" stroke="rgb(0,0,0)" stroke-width="1" opacity="0.796078431372549" d="M 81.5 443 L 82 445.5 L 81 445.5 L 81.5 443 Z " /><path fill="rgb(0,0,0)" stroke="rgb(0,0,0)" stroke-width="1" opacity="0.796078431372549" d="M 430.5 443 L 431 445.5 L 430 445.5 L 430.5 443 Z " /><path fill="rgb(0,0,0)" stroke="rgb(0,0,0)" stroke-width="1" opacity="0.796078431372549" d="M 87.5 453 L 88.5 455 L 87.5 453 Z " /><path fill="rgb(0,0,0)" stroke="rgb(0,0,0)" stroke-width="1" opacity="0.796078431372549" d="M 424.5 453 L 423.5 455 L 424.5 453 Z " /><path fill="rgb(0,0,0)" stroke="rgb(0,0,0)" stroke-width="1" opacity="0" d="M 0 0 L 246 0.5 Q 210.5 6 192 28.5 Q 180 41.5 174 60.5 L 171 75.5 L 171 94.5 L 175 112.5 L 183 129.5 L 199.5 149 Q 213.8 162.2 235.5 168 L 246.5 170 L 265.5 170 L 283.5 166 L 300.5 158 L 320 141.5 Q 331 129.5 337 112.5 L 341 94.5 L 341 75.5 Q 335 40 312.5 21 Q 295.6 4.4 266 0.5 L 512 0 L 512 512 L 273.5 512 L 273.5 511 L 416.5 458 L 423.5 455 L 429 449.5 L 431 445.5 L 431 410 Q 403 410.4 391 393.5 Q 383.5 384.5 381 370.5 L 381 319.5 Q 384.5 300 397.5 290 L 415.5 281 L 431 280 L 431 242.5 L 424.5 234 Q 420.5 230.5 411.5 232 L 277.5 282 L 271 285.5 L 271 511.5 L 270.5 512 L 241 512 L 241 285.5 L 239.5 284 L 106.5 234 Q 101.1 230.9 91.5 232 L 83 238.5 L 81 242.5 L 81 280 Q 109 279.6 121 296.5 Q 128.5 305.5 131 319.5 L 131 370.5 Q 127.5 390 114.5 400 L 96.5 409 L 81 410 L 81 445.5 L 88.5 455 L 239 511.5 L 0 512 L 0 0 Z M 192 182 Q 161 194 139 215 L 254 258 L 259 258 L 265 256 L 373 215 Q 351 194 321 182 L 318 182 Q 306 190 291 195 L 265 200 L 248 200 L 247 199 L 239 199 L 229 197 L 216 193 L 195 182 L 192 182 Z M 71 310 Q 61 312 55 317 Q 44 325 41 340 Q 40 358 48 367 Q 56 377 71 380 L 90 380 L 96 377 L 101 369 L 101 322 L 98 316 L 90 310 L 71 310 Z M 423 310 L 417 313 L 411 322 L 411 369 L 414 375 L 423 380 Q 446 383 458 373 Q 468 365 471 351 Q 472 332 464 324 Q 457 315 446 311 L 442 310 L 423 310 Z " /><path fill="rgb(0,0,0)" stroke="rgb(0,0,0)" stroke-width="1" opacity="1" d="M 252.5 0 L 269.5 1 L 287.5 6 Q 308.6 14.9 322 31.5 Q 340.1 51.4 341 88.5 L 340 89.5 L 340 98.5 L 338 107.5 L 329 128.5 Q 321.1 141.6 309.5 151 Q 289.6 169.1 252.5 170 L 251.5 169 L 242.5 169 L 233.5 167 L 212.5 158 Q 199.4 150.1 190 138.5 Q 171.9 118.6 171 81.5 L 172 80.5 L 172 71.5 L 174 62.5 L 183 41.5 Q 190.9 28.4 202.5 19 L 224.5 6 L 237.5 2 L 251.5 1 L 252.5 0 Z " /><path fill="rgb(0,0,0)" stroke="rgb(0,0,0)" stroke-width="1" opacity="1" d="M 192.5 182 Q 208.9 192.6 230.5 198 L 241.5 199 L 242.5 200 L 269.5 200 L 270.5 199 L 281.5 198 L 297.5 193 L 319.5 182 Q 349.9 194.1 372 214.5 L 257.5 258 L 254.5 258 L 140 214.5 Q 161.9 193.9 192.5 182 Z " /><path fill="rgb(0,0,0)" stroke="rgb(0,0,0)" stroke-width="1" opacity="1" d="M 92.5 232 L 102.5 233 L 241 285 L 241 510.5 L 238.5 511 L 91.5 456 L 84 450.5 L 81 442.5 L 81 410 Q 93.4 411.6 101.5 408 Q 112.8 403.8 120 395.5 Q 128 387 131 373.5 L 131 316.5 Q 127.3 300.2 116.5 291 Q 109.3 284.2 98.5 281 L 81 280 L 81 245.5 L 85 236 L 92.5 232 Z " /><path fill="rgb(0,0,0)" stroke="rgb(0,0,0)" stroke-width="1" opacity="1" d="M 412.5 232 L 419.5 232 L 427 236 L 431 245.5 L 431 280 Q 418.6 278.4 410.5 282 Q 399.2 286.2 392 294.5 Q 384 303 381 316.5 L 381 373.5 Q 384.5 389 394.5 398 Q 401.9 405.6 413.5 409 L 431 410 L 431 442.5 L 428 450.5 L 425.5 453 L 420.5 456 L 271 511 L 271 285.5 L 272.5 285 L 412.5 232 Z " /><path fill="rgb(0,0,0)" stroke="rgb(0,0,0)" stroke-width="1" opacity="1" d="M 74.5 310 Q 84.8 308.7 91.5 311 L 98 316.5 L 101 323.5 L 101 366.5 Q 99.9 373.9 94.5 377 Q 87.9 381.9 74.5 380 Q 73 377.5 67.5 379 L 56.5 374 L 47 364.5 L 42 353.5 L 41 343.5 Q 43.5 342 42 336.5 L 47 325.5 L 56.5 316 L 64.5 312 L 74.5 310 Z " /><path fill="rgb(0,0,0)" stroke="rgb(0,0,0)" stroke-width="1" opacity="1" d="M 424.5 310 L 437.5 310 L 447.5 312 Q 458.8 316.2 465 325.5 L 470 336.5 L 471 346.5 Q 468.5 348 470 353.5 L 465 364.5 L 455.5 374 L 444.5 379 L 424.5 380 Q 417.1 378.9 414 373.5 L 411 366.5 L 411 323.5 Q 412.1 316.1 417.5 313 L 424.5 310 Z " /></svg>