<?xml version="1.0" standalone="no"?>
<!DOCTYPE svg PUBLIC "-//W3C//DTD SVG 20010904//EN"
 "http://www.w3.org/TR/2001/REC-SVG-20010904/DTD/svg10.dtd">
<svg version="1.0" xmlns="http://www.w3.org/2000/svg"
 width="512.000000pt" height="512.000000pt" viewBox="0 0 512.000000 512.000000"
 preserveAspectRatio="xMidYMid meet">

<g transform="translate(0.000000,512.000000) scale(0.100000,-0.100000)"
fill="#000000" stroke="none">
<path d="M158 5037 l-58 -52 246 -269 c265 -292 320 -361 383 -478 92 -169
137 -342 151 -573 9 -152 25 -232 60 -313 13 -29 20 -67 20 -111 1 -249 107
-539 249 -682 64 -64 194 -134 268 -145 39 -6 59 -17 106 -60 75 -69 160 -118
272 -157 83 -29 100 -31 225 -31 126 0 141 2 230 33 131 44 223 104 320 208
196 210 225 441 76 601 -25 27 -61 57 -79 66 -29 16 -37 30 -66 120 -38 115
-101 255 -165 366 l-44 75 20 90 c27 125 30 372 6 465 -26 95 -101 238 -160
304 -28 32 -117 113 -197 181 -80 68 -211 189 -291 269 -80 80 -149 146 -155
146 -13 0 -105 -92 -105 -105 0 -19 324 -332 460 -445 154 -128 199 -178 244
-270 52 -103 61 -150 60 -295 -1 -107 -7 -158 -34 -285 l-34 -155 -3 -365 c-3
-234 -8 -375 -15 -393 -12 -32 -54 -57 -93 -57 -52 0 -79 44 -109 175 -68 298
-248 940 -270 962 -9 10 -146 -36 -146 -49 0 -6 20 -74 45 -152 66 -209 147
-505 199 -731 30 -126 56 -216 72 -242 39 -68 136 -123 215 -123 51 0 130 31
170 67 58 53 81 104 88 198 6 76 7 80 40 102 91 61 208 31 259 -67 83 -160
-105 -428 -359 -511 -59 -19 -95 -24 -179 -24 -131 0 -221 27 -327 97 -119 80
-165 144 -244 340 -77 187 -146 296 -292 457 -121 133 -176 270 -177 436 -1
295 -105 601 -286 840 -50 66 -519 587 -533 592 -3 1 -32 -21 -63 -50z m2223
-1817 c21 -52 37 -96 35 -97 -1 -2 -24 -9 -49 -17 l-47 -14 0 131 c1 150 1
150 61 -3z m-1180 -233 c26 -34 61 -86 79 -114 35 -59 113 -243 106 -251 -3
-2 -31 22 -64 54 -40 41 -71 85 -99 144 -41 83 -88 230 -75 230 4 0 28 -29 53
-63z"/>
<path d="M2985 3495 c-30 -29 -31 -44 -6 -143 44 -172 54 -262 55 -462 1 -191
-7 -273 -41 -422 l-15 -68 -104 0 c-98 0 -107 -2 -129 -25 -45 -44 -37 -61
150 -342 181 -272 192 -284 248 -269 12 3 138 121 280 264 230 231 257 261
257 290 0 22 -9 41 -25 57 -22 23 -32 25 -108 25 l-84 0 17 88 c59 286 50 591
-24 897 -34 140 -25 135 -258 135 -187 0 -189 0 -213 -25z m328 -202 c35 -157
41 -223 41 -413 0 -201 -12 -307 -54 -472 -11 -42 -20 -85 -20 -96 0 -34 34
-65 79 -71 l41 -6 -134 -134 -134 -134 -91 137 -91 136 59 0 c84 0 98 14 126
131 76 314 84 614 25 902 l-17 87 77 0 78 0 15 -67z"/>
<path d="M589 1986 c-90 -32 -148 -92 -173 -178 l-13 -43 -59 -6 c-78 -8 -130
-31 -182 -82 -107 -105 -107 -279 0 -384 37 -36 172 -101 963 -466 506 -233
949 -434 985 -446 163 -53 165 -53 820 -61 488 -6 638 -11 729 -24 144 -21
1307 -204 1342 -212 26 -5 26 -3 38 71 7 42 11 79 8 81 -2 3 -260 45 -573 95
-1012 159 -820 141 -1529 149 -595 6 -623 7 -700 28 -114 32 -76 14 -1064 470
-788 363 -906 420 -922 447 -51 82 8 175 110 175 80 0 154 -25 551 -190 223
-92 434 -176 470 -186 56 -15 120 -18 478 -21 l413 -4 107 -144 108 -143 58
44 c33 24 61 46 64 48 2 3 -51 80 -119 171 l-124 165 -167 100 c-251 151 -368
250 -368 312 0 45 48 88 98 88 83 0 278 -78 444 -178 186 -112 241 -130 436
-142 268 -18 434 -77 639 -228 184 -136 344 -208 545 -247 99 -19 1019 -88
1029 -77 4 4 9 40 11 80 2 39 3 72 3 72 0 0 -218 16 -484 35 -499 36 -574 46
-712 98 -106 40 -178 81 -294 166 -230 169 -433 242 -725 261 -165 10 -208 25
-368 119 -281 167 -485 228 -612 186 -144 -48 -209 -214 -138 -352 27 -54 141
-158 247 -226 l65 -42 -82 -3 -81 -3 -537 307 c-295 169 -553 313 -573 320
-46 17 -116 17 -162 0z m521 -381 c222 -127 396 -231 387 -233 -37 -7 -152 34
-518 186 -211 88 -392 162 -403 166 -14 5 -17 12 -11 34 13 52 56 84 110 79
18 -1 197 -97 435 -232z"/>
</g>
</svg>
