<svg width="512" height="512" version="1.1" xmlns="http://www.w3.org/2000/svg" desc="Created with imagetracer.js version 1.2.6" ><path fill="rgb(0,0,0)" stroke="rgb(0,0,0)" stroke-width="1" opacity="0.7607843137254902" d="M 270.5 47 L 274 47.5 L 270.5 48 L 270.5 47 Z " /><path fill="rgb(0,0,0)" stroke="rgb(0,0,0)" stroke-width="1" opacity="0.7607843137254902" d="M 287.5 47 L 292 47.5 L 287.5 48 L 287.5 47 Z " /><path fill="rgb(0,0,0)" stroke="rgb(0,0,0)" stroke-width="1" opacity="0.7607843137254902" d="M 295.5 48 L 298 48.5 L 295.5 49 L 295.5 48 Z " /><path fill="rgb(0,0,0)" stroke="rgb(0,0,0)" stroke-width="1" opacity="0.7607843137254902" d="M 243.5 55 L 242.5 57 L 243.5 55 Z " /><path fill="rgb(0,0,0)" stroke="rgb(0,0,0)" stroke-width="1" opacity="0.7607843137254902" d="M 323.5 58 L 324.5 60 L 323.5 58 Z " /><path fill="rgb(0,0,0)" stroke="rgb(0,0,0)" stroke-width="1" opacity="0.7607843137254902" d="M 236.5 59 L 235.5 61 L 236.5 59 Z " /><path fill="rgb(0,0,0)" stroke="rgb(0,0,0)" stroke-width="1" opacity="0.7607843137254902" d="M 233.5 61 L 232.5 63 L 233.5 61 Z " /><path fill="rgb(0,0,0)" stroke="rgb(0,0,0)" stroke-width="1" opacity="0.7607843137254902" d="M 329.5 62 L 330.5 64 L 329.5 62 Z " /><path fill="rgb(0,0,0)" stroke="rgb(0,0,0)" stroke-width="1" opacity="0.7607843137254902" d="M 230.5 63 L 228.5 66 L 230.5 63 Z " /><path fill="rgb(0,0,0)" stroke="rgb(0,0,0)" stroke-width="1" opacity="0.7607843137254902" d="M 333.5 65 L 335.5 68 L 333.5 65 Z " /><path fill="rgb(0,0,0)" stroke="rgb(0,0,0)" stroke-width="1" opacity="0.7607843137254902" d="M 224.5 68 L 218.5 75 L 224.5 68 Z " /><path fill="rgb(0,0,0)" stroke="rgb(0,0,0)" stroke-width="1" opacity="0.7607843137254902" d="M 343.5 75 L 346.5 79 L 343.5 75 Z " /><path fill="rgb(0,0,0)" stroke="rgb(0,0,0)" stroke-width="1" opacity="0.7607843137254902" d="M 215.5 78 L 213.5 81 L 215.5 78 Z " /><path fill="rgb(0,0,0)" stroke="rgb(0,0,0)" stroke-width="1" opacity="0.7607843137254902" d="M 347.5 80 L 349.5 83 L 347.5 80 Z " /><path fill="rgb(0,0,0)" stroke="rgb(0,0,0)" stroke-width="1" opacity="0.7607843137254902" d="M 212.5 82 L 211.5 84 L 212.5 82 Z " /><path fill="rgb(0,0,0)" stroke="rgb(0,0,0)" stroke-width="1" opacity="0.7607843137254902" d="M 350.5 84 L 351.5 86 L 350.5 84 Z " /><path fill="rgb(0,0,0)" stroke="rgb(0,0,0)" stroke-width="1" opacity="0.7607843137254902" d="M 210.5 85 L 209.5 87 L 210.5 85 Z " /><path fill="rgb(0,0,0)" stroke="rgb(0,0,0)" stroke-width="1" opacity="0.7607843137254902" d="M 353.5 89 L 354.5 91 L 353.5 89 Z " /><path fill="rgb(0,0,0)" stroke="rgb(0,0,0)" stroke-width="1" opacity="0.7607843137254902" d="M 207.5 90 L 206.5 92 L 207.5 90 Z " /><path fill="rgb(0,0,0)" stroke="rgb(0,0,0)" stroke-width="1" opacity="0.7607843137254902" d="M 198.5 113 L 199 115.5 L 198 115.5 L 198.5 113 Z " /><path fill="rgb(0,0,0)" stroke="rgb(0,0,0)" stroke-width="1" opacity="0.7607843137254902" d="M 363.5 116 L 364 118.5 L 363 118.5 L 363.5 116 Z " /><path fill="rgb(0,0,0)" stroke="rgb(0,0,0)" stroke-width="1" opacity="0.7607843137254902" d="M 197.5 119 L 198 123.5 L 197 123.5 L 197.5 119 Z " /><path fill="rgb(0,0,0)" stroke="rgb(0,0,0)" stroke-width="1" opacity="0.7607843137254902" d="M 364.5 123 L 365 138.5 L 364 138.5 L 364.5 123 Z " /><path fill="rgb(0,0,0)" stroke="rgb(0,0,0)" stroke-width="1" opacity="0.7607843137254902" d="M 197.5 138 L 198 141.5 L 197 141.5 L 197.5 138 Z " /><path fill="rgb(0,0,0)" stroke="rgb(0,0,0)" stroke-width="1" opacity="0.7607843137254902" d="M 363.5 143 L 364 145.5 L 363 145.5 L 363.5 143 Z " /><path fill="rgb(0,0,0)" stroke="rgb(0,0,0)" stroke-width="1" opacity="0.7607843137254902" d="M 198.5 145 L 199 147.5 L 198 147.5 L 198.5 145 Z " /><path fill="rgb(0,0,0)" stroke="rgb(0,0,0)" stroke-width="1" opacity="0.7607843137254902" d="M 362.5 148 L 363 150.5 L 362 150.5 L 362.5 148 Z " /><path fill="rgb(0,0,0)" stroke="rgb(0,0,0)" stroke-width="1" opacity="0.7607843137254902" d="M 208.5 173 L 209.5 175 L 208.5 173 Z " /><path fill="rgb(0,0,0)" stroke="rgb(0,0,0)" stroke-width="1" opacity="0.7607843137254902" d="M 350.5 177 L 349.5 179 L 350.5 177 Z " /><path fill="rgb(0,0,0)" stroke="rgb(0,0,0)" stroke-width="1" opacity="0.7607843137254902" d="M 212.5 179 L 213.5 181 L 212.5 179 Z " /><path fill="rgb(0,0,0)" stroke="rgb(0,0,0)" stroke-width="1" opacity="0.7607843137254902" d="M 348.5 180 L 347.5 182 L 348.5 180 Z " /><path fill="rgb(0,0,0)" stroke="rgb(0,0,0)" stroke-width="1" opacity="0.7607843137254902" d="M 214.5 182 L 217.5 186 L 214.5 182 Z " /><path fill="rgb(0,0,0)" stroke="rgb(0,0,0)" stroke-width="1" opacity="0.7607843137254902" d="M 43.5 184 L 47 184.5 L 43.5 185 L 43.5 184 Z " /><path fill="rgb(0,0,0)" stroke="rgb(0,0,0)" stroke-width="1" opacity="0.7607843137254902" d="M 41.5 185 L 40.5 187 L 41.5 185 Z " /><path fill="rgb(0,0,0)" stroke="rgb(0,0,0)" stroke-width="1" opacity="0.7607843137254902" d="M 344.5 185 L 334.5 196 L 344.5 185 Z " /><path fill="rgb(0,0,0)" stroke="rgb(0,0,0)" stroke-width="1" opacity="0.7607843137254902" d="M 226.5 194 L 228.5 197 L 226.5 194 Z " /><path fill="rgb(0,0,0)" stroke="rgb(0,0,0)" stroke-width="1" opacity="0.7607843137254902" d="M 331.5 197 L 330.5 199 L 331.5 197 Z " /><path fill="rgb(0,0,0)" stroke="rgb(0,0,0)" stroke-width="1" opacity="0.7607843137254902" d="M 231.5 198 L 232.5 200 L 231.5 198 Z " /><path fill="rgb(0,0,0)" stroke="rgb(0,0,0)" stroke-width="1" opacity="0.7607843137254902" d="M 328.5 199 L 327.5 201 L 328.5 199 Z " /><path fill="rgb(0,0,0)" stroke="rgb(0,0,0)" stroke-width="1" opacity="0.7607843137254902" d="M 234.5 200 L 235.5 202 L 234.5 200 Z " /><path fill="rgb(0,0,0)" stroke="rgb(0,0,0)" stroke-width="1" opacity="0.7607843137254902" d="M 320.5 204 L 319.5 206 L 318 205.5 L 320.5 204 Z " /><path fill="rgb(0,0,0)" stroke="rgb(0,0,0)" stroke-width="1" opacity="0.7607843137254902" d="M 265.5 213 L 268 213.5 L 265.5 214 L 265.5 213 Z " /><path fill="rgb(0,0,0)" stroke="rgb(0,0,0)" stroke-width="1" opacity="0.7607843137254902" d="M 293.5 213 L 296 213.5 L 293.5 214 L 293.5 213 Z " /><path fill="rgb(0,0,0)" stroke="rgb(0,0,0)" stroke-width="1" opacity="0.7607843137254902" d="M 272.5 214 L 289 214.5 L 272.5 215 L 272.5 214 Z " /><path fill="rgb(0,0,0)" stroke="rgb(0,0,0)" stroke-width="1" opacity="0.7607843137254902" d="M 265.5 236 L 273 236.5 L 265.5 237 L 265.5 236 Z " /><path fill="rgb(0,0,0)" stroke="rgb(0,0,0)" stroke-width="1" opacity="0.7607843137254902" d="M 291.5 236 L 299 236.5 L 291.5 237 L 291.5 236 Z " /><path fill="rgb(0,0,0)" stroke="rgb(0,0,0)" stroke-width="1" opacity="0.7607843137254902" d="M 255.5 237 L 260 237.5 L 255.5 238 L 255.5 237 Z " /><path fill="rgb(0,0,0)" stroke="rgb(0,0,0)" stroke-width="1" opacity="0.7607843137254902" d="M 304.5 237 L 309 237.5 L 304.5 238 L 304.5 237 Z " /><path fill="rgb(0,0,0)" stroke="rgb(0,0,0)" stroke-width="1" opacity="0.7607843137254902" d="M 247.5 238 L 251 238.5 L 247.5 239 L 247.5 238 Z " /><path fill="rgb(0,0,0)" stroke="rgb(0,0,0)" stroke-width="1" opacity="0.7607843137254902" d="M 312.5 238 L 316 238.5 L 312.5 239 L 312.5 238 Z " /><path fill="rgb(0,0,0)" stroke="rgb(0,0,0)" stroke-width="1" opacity="0.7607843137254902" d="M 241.5 239 L 244 239.5 L 241.5 240 L 241.5 239 Z " /><path fill="rgb(0,0,0)" stroke="rgb(0,0,0)" stroke-width="1" opacity="0.7607843137254902" d="M 319.5 239 L 322 239.5 L 319.5 240 L 319.5 239 Z " /><path fill="rgb(0,0,0)" stroke="rgb(0,0,0)" stroke-width="1" opacity="0.7607843137254902" d="M 235.5 240 L 238 240.5 L 235.5 241 L 235.5 240 Z " /><path fill="rgb(0,0,0)" stroke="rgb(0,0,0)" stroke-width="1" opacity="0.7607843137254902" d="M 230.5 241 L 233 241.5 L 230.5 242 L 230.5 241 Z " /><path fill="rgb(0,0,0)" stroke="rgb(0,0,0)" stroke-width="1" opacity="0.7607843137254902" d="M 163.5 265 L 162.5 267 L 163.5 265 Z " /><path fill="rgb(0,0,0)" stroke="rgb(0,0,0)" stroke-width="1" opacity="0.7607843137254902" d="M 408.5 270 L 409.5 272 L 408.5 270 Z " /><path fill="rgb(0,0,0)" stroke="rgb(0,0,0)" stroke-width="1" opacity="0.7607843137254902" d="M 152.5 271 L 151.5 273 L 152.5 271 Z " /><path fill="rgb(0,0,0)" stroke="rgb(0,0,0)" stroke-width="1" opacity="0.7607843137254902" d="M 147.5 274 L 146.5 276 L 147.5 274 Z " /><path fill="rgb(0,0,0)" stroke="rgb(0,0,0)" stroke-width="1" opacity="0.7607843137254902" d="M 416.5 275 L 417.5 277 L 416.5 275 Z " /><path fill="rgb(0,0,0)" stroke="rgb(0,0,0)" stroke-width="1" opacity="0.7607843137254902" d="M 419.5 277 L 420.5 279 L 419.5 277 Z " /><path fill="rgb(0,0,0)" stroke="rgb(0,0,0)" stroke-width="1" opacity="0.7607843137254902" d="M 139.5 279 L 138.5 281 L 139.5 279 Z " /><path fill="rgb(0,0,0)" stroke="rgb(0,0,0)" stroke-width="1" opacity="0.7607843137254902" d="M 422.5 279 L 423.5 281 L 422.5 279 Z " /><path fill="rgb(0,0,0)" stroke="rgb(0,0,0)" stroke-width="1" opacity="0.7607843137254902" d="M 136.5 281 L 135.5 283 L 136.5 281 Z " /><path fill="rgb(0,0,0)" stroke="rgb(0,0,0)" stroke-width="1" opacity="0.7607843137254902" d="M 425.5 281 L 426.5 283 L 425.5 281 Z " /><path fill="rgb(0,0,0)" stroke="rgb(0,0,0)" stroke-width="1" opacity="0.7607843137254902" d="M 133.5 283 L 132.5 285 L 133.5 283 Z " /><path fill="rgb(0,0,0)" stroke="rgb(0,0,0)" stroke-width="1" opacity="0.7607843137254902" d="M 259.5 283 L 260 404 L 125 403.5 L 127.5 402 L 128.5 403 L 259 403 L 259.5 283 Z " /><path fill="rgb(0,0,0)" stroke="rgb(0,0,0)" stroke-width="1" opacity="0.7607843137254902" d="M 129.5 286 L 127.5 289 L 129.5 286 Z " /><path fill="rgb(0,0,0)" stroke="rgb(0,0,0)" stroke-width="1" opacity="0.7607843137254902" d="M 124.5 291 L 121.5 295 L 124.5 291 Z " /><path fill="rgb(0,0,0)" stroke="rgb(0,0,0)" stroke-width="1" opacity="0.7607843137254902" d="M 120.5 296 L 119.5 298 L 120.5 296 Z " /><path fill="rgb(0,0,0)" stroke="rgb(0,0,0)" stroke-width="1" opacity="0.7607843137254902" d="M 275.5 299 L 276 442 L 348.5 442 L 350 443.5 L 349.5 446 L 349 443 L 276.5 443 L 275 441.5 L 275.5 299 Z " /><path fill="rgb(0,0,0)" stroke="rgb(0,0,0)" stroke-width="1" opacity="0.7607843137254902" d="M 467.5 299 L 468 441.5 L 466.5 443 L 394.5 443 L 394.5 442 L 467 442 L 467.5 299 Z " /><path fill="rgb(0,0,0)" stroke="rgb(0,0,0)" stroke-width="1" opacity="0.7607843137254902" d="M 113.5 313 L 114 315.5 L 113 315.5 L 113.5 313 Z " /><path fill="rgb(0,0,0)" stroke="rgb(0,0,0)" stroke-width="1" opacity="0.7607843137254902" d="M 292 315 L 366 315.5 L 293 316 L 292.5 426 L 292 315 Z " /><path fill="rgb(0,0,0)" stroke="rgb(0,0,0)" stroke-width="1" opacity="0.7607843137254902" d="M 377.5 315 L 451 315 L 451 425.5 L 450 425.5 L 450 316 L 377 316 L 376.5 425 L 376 316.5 L 377.5 315 Z " /><path fill="rgb(0,0,0)" stroke="rgb(0,0,0)" stroke-width="1" opacity="0.7607843137254902" d="M 129.5 327 L 130.5 329 L 129.5 327 Z " /><path fill="rgb(0,0,0)" stroke="rgb(0,0,0)" stroke-width="1" opacity="0.7607843137254902" d="M 132.5 329 L 140.5 338 L 132.5 329 Z " /><path fill="rgb(0,0,0)" stroke="rgb(0,0,0)" stroke-width="1" opacity="0.7607843137254902" d="M 103.5 330 L 108 330.5 L 103.5 331 L 103.5 330 Z " /><path fill="rgb(0,0,0)" stroke="rgb(0,0,0)" stroke-width="1" opacity="0.7607843137254902" d="M 111.5 331 L 114 331.5 L 111.5 332 L 111.5 331 Z " /><path fill="rgb(0,0,0)" stroke="rgb(0,0,0)" stroke-width="1" opacity="0.7607843137254902" d="M 125.5 337 L 127.5 340 L 125.5 337 Z " /><path fill="rgb(0,0,0)" stroke="rgb(0,0,0)" stroke-width="1" opacity="0.7607843137254902" d="M 76.5 338 L 75.5 340 L 76.5 338 Z " /><path fill="rgb(0,0,0)" stroke="rgb(0,0,0)" stroke-width="1" opacity="0.7607843137254902" d="M 141.5 339 L 142.5 341 L 141.5 339 Z " /><path fill="rgb(0,0,0)" stroke="rgb(0,0,0)" stroke-width="1" opacity="0.7607843137254902" d="M 130.5 342 L 132.5 345 L 130.5 342 Z " /><path fill="rgb(0,0,0)" stroke="rgb(0,0,0)" stroke-width="1" opacity="0.7607843137254902" d="M 143.5 342 L 144.5 344 L 143.5 342 Z " /><path fill="rgb(0,0,0)" stroke="rgb(0,0,0)" stroke-width="1" opacity="0.7607843137254902" d="M 433.5 344 L 434 351.5 L 432.5 353 L 394.5 353 L 394.5 352 L 432.5 352 L 433 351.5 L 433.5 344 Z " /><path fill="rgb(0,0,0)" stroke="rgb(0,0,0)" stroke-width="1" opacity="0.7607843137254902" d="M 133.5 346 L 134.5 348 L 133.5 346 Z " /><path fill="rgb(0,0,0)" stroke="rgb(0,0,0)" stroke-width="1" opacity="0.7607843137254902" d="M 69.5 350 L 70 359.5 L 69 359.5 L 69.5 350 Z " /><path fill="rgb(0,0,0)" stroke="rgb(0,0,0)" stroke-width="1" opacity="0.7607843137254902" d="M 148.5 353 L 149 355.5 L 148 355.5 L 148.5 353 Z " /><path fill="rgb(0,0,0)" stroke="rgb(0,0,0)" stroke-width="1" opacity="0.7607843137254902" d="M 138.5 358 L 139 360.5 L 138 360.5 L 138.5 358 Z " /><path fill="rgb(0,0,0)" stroke="rgb(0,0,0)" stroke-width="1" opacity="0.7607843137254902" d="M 149.5 360 L 150 367.5 L 149 367.5 L 149.5 360 Z " /><path fill="rgb(0,0,0)" stroke="rgb(0,0,0)" stroke-width="1" opacity="0.7607843137254902" d="M 433.5 361 L 434 368.5 L 433 368.5 L 433.5 361 Z " /><path fill="rgb(0,0,0)" stroke="rgb(0,0,0)" stroke-width="1" opacity="0.7607843137254902" d="M 138.5 368 L 139 371.5 L 138 371.5 L 138.5 368 Z " /><path fill="rgb(0,0,0)" stroke="rgb(0,0,0)" stroke-width="1" opacity="0.7607843137254902" d="M 133.5 383 L 131.5 386 L 133.5 383 Z " /><path fill="rgb(0,0,0)" stroke="rgb(0,0,0)" stroke-width="1" opacity="0.7607843137254902" d="M 143.5 386 L 142.5 388 L 143.5 386 Z " /><path fill="rgb(0,0,0)" stroke="rgb(0,0,0)" stroke-width="1" opacity="0.7607843137254902" d="M 141.5 389 L 140.5 391 L 141.5 389 Z " /><path fill="rgb(0,0,0)" stroke="rgb(0,0,0)" stroke-width="1" opacity="0.7607843137254902" d="M 125.5 391 L 124.5 393 L 125.5 391 Z " /><path fill="rgb(0,0,0)" stroke="rgb(0,0,0)" stroke-width="1" opacity="0.7607843137254902" d="M 79.5 392 L 80.5 394 L 79.5 392 Z " /><path fill="rgb(0,0,0)" stroke="rgb(0,0,0)" stroke-width="1" opacity="0.7607843137254902" d="M 122.5 393 L 121.5 395 L 122.5 393 Z " /><path fill="rgb(0,0,0)" stroke="rgb(0,0,0)" stroke-width="1" opacity="0.7607843137254902" d="M 138.5 393 L 134.5 398 L 138.5 393 Z " /><path fill="rgb(0,0,0)" stroke="rgb(0,0,0)" stroke-width="1" opacity="0.7607843137254902" d="M 112.5 397 L 115 397.5 L 112.5 398 L 112.5 397 Z " /><path fill="rgb(0,0,0)" stroke="rgb(0,0,0)" stroke-width="1" opacity="0.7607843137254902" d="M 98.5 400 L 102 400.5 L 98.5 401 L 98.5 400 Z " /><path fill="rgb(0,0,0)" stroke="rgb(0,0,0)" stroke-width="1" opacity="0.7607843137254902" d="M 350.5 447 L 352.5 450 L 350.5 447 Z " /><path fill="rgb(0,0,0)" stroke="rgb(0,0,0)" stroke-width="1" opacity="0.7607843137254902" d="M 392.5 447 L 390.5 450 L 392.5 447 Z " /><path fill="rgb(0,0,0)" stroke="rgb(0,0,0)" stroke-width="1" opacity="0" d="M 0 0 L 512 0 L 512 512 L 0 512 L 0 0 Z M 271 47 L 260 49 L 244 55 L 225 68 Q 203 86 197 120 L 197 142 L 200 156 Q 205 171 214 183 Q 225 196 241 205 L 258 212 L 273 215 L 289 215 L 305 212 Q 322 207 335 196 Q 345 187 353 175 L 361 158 L 365 139 L 365 124 L 362 108 Q 357 91 347 79 Q 334 62 314 53 L 292 47 L 271 47 Z M 44 184 L 42 185 L 39 190 L 87 334 L 77 338 Q 70 342 69 351 Q 69 376 79 393 L 90 401 L 102 401 L 111 398 L 115 398 L 125 393 Q 135 386 139 372 L 139 359 L 133 345 Q 125 333 108 330 L 97 331 L 50 188 Q 49 183 44 184 Z M 266 236 L 265 237 L 256 237 L 255 238 L 248 238 L 231 241 L 199 250 Q 160 264 130 286 Q 120 293 115 306 L 113 314 L 113 321 L 132 329 Q 145 338 149 357 Q 151 380 140 392 Q 135 399 126 403 L 126 404 L 260 404 L 260 283 L 427 283 Q 396 259 355 247 L 332 241 L 309 237 L 300 237 L 299 236 L 266 236 Z M 275 299 L 275 442 L 277 443 L 349 443 L 350 448 L 355 451 L 389 451 L 391 450 Q 394 448 394 443 L 467 443 L 468 442 L 468 299 L 275 299 Z " /><path fill="rgb(0,0,0)" stroke="rgb(0,0,0)" stroke-width="1" opacity="0" d="M 293 316 L 366 316 L 366 426 L 293 426 L 293 316 Z " /><path fill="rgb(0,0,0)" stroke="rgb(0,0,0)" stroke-width="1" opacity="0" d="M 377 316 L 450 316 L 450 426 L 377 426 L 377 316 Z M 394 344 L 394 353 L 433 353 L 434 352 L 434 345 L 434 344 L 394 344 Z M 394 361 L 394 369 L 395 369 L 434 369 L 434 362 L 434 361 L 394 361 Z M 394 378 L 394 386 L 395 386 L 421 386 L 421 379 L 421 378 L 394 378 Z " /><path fill="rgb(0,0,0)" stroke="rgb(0,0,0)" stroke-width="1" opacity="1" d="M 274.5 47 L 294.5 48 L 314.5 54 Q 331.6 61.4 343 74.5 Q 356.1 88.4 362 109.5 L 364 119.5 L 364 142.5 Q 357.2 178.7 332.5 197 Q 320.1 207.1 302.5 212 L 292.5 214 L 268.5 214 Q 235.8 207.8 218 186.5 Q 208.8 176.2 203 162.5 L 198 144.5 L 197 124.5 L 200 107.5 L 206 92.5 Q 214.3 76.9 227.5 66 L 244.5 55 L 261.5 49 L 273.5 48 L 274.5 47 Z " /><path fill="rgb(0,0,0)" stroke="rgb(0,0,0)" stroke-width="1" opacity="1" d="M 42.5 185 Q 47.8 183.8 49 186.5 L 97 332 Q 100.9 329.6 110.5 331 Q 123 333.5 130 341.5 Q 138.9 350.1 139 367.5 Q 136.8 368.8 138 373.5 L 134 382.5 L 126.5 391 L 115.5 397 L 103.5 400 L 91.5 401 Q 84.5 399.5 81 394.5 L 76 385.5 L 71 368.5 L 70 363.5 L 70 347.5 L 74.5 340 L 88 333.5 L 40 191.5 L 40 187.5 L 42.5 185 Z " /><path fill="rgb(0,0,0)" stroke="rgb(0,0,0)" stroke-width="1" opacity="1" d="M 273.5 236 L 290.5 236 L 291.5 237 L 303.5 237 L 304.5 238 L 318.5 239 L 359.5 249 Q 381.6 255.9 400.5 266 L 426 282.5 L 259 283 L 259 403 L 128.5 403 L 129.5 401 L 139 393.5 L 148 377.5 L 150 367.5 L 150 360.5 Q 147.5 359 149 353.5 L 145 343.5 L 132.5 329 Q 124.5 322.6 113 321 Q 113.9 299.7 126.5 289 Q 155 267 191.5 253 L 228.5 242 L 251.5 238 L 272.5 237 L 273.5 236 Z " /><path fill="rgb(0,0,0)" stroke="rgb(0,0,0)" stroke-width="1" opacity="1" d="M 276 299 L 467 299 L 467 442 L 394.5 442 L 394 443.5 L 389.5 450 L 386.5 451 L 356.5 451 L 350 446.5 Q 350.8 442.8 348.5 442 L 276 442 L 276 299 Z M 292 315 L 292 426 L 366 426 L 366 315 L 292 315 Z M 378 315 L 376 317 L 376 425 L 378 426 L 451 426 L 451 315 L 378 315 Z " /><path fill="rgb(0,0,0)" stroke="rgb(0,0,0)" stroke-width="1" opacity="1" d="M 394 344 L 432.5 344 L 433 344.5 L 433 352 L 394.5 352 L 394 351.5 L 394 344 Z " /><path fill="rgb(0,0,0)" stroke="rgb(0,0,0)" stroke-width="1" opacity="1" d="M 394 361 L 432.5 361 L 433 361.5 L 433 369 L 394.5 369 L 394 368.5 L 394 361 Z " /><path fill="rgb(0,0,0)" stroke="rgb(0,0,0)" stroke-width="1" opacity="1" d="M 394 378 L 420.5 378 L 421 378.5 L 421 386 L 394.5 386 L 394 385.5 L 394 378 Z " /></svg>