<?xml version="1.0" standalone="no"?>
<!DOCTYPE svg PUBLIC "-//W3C//DTD SVG 20010904//EN"
 "http://www.w3.org/TR/2001/REC-SVG-20010904/DTD/svg10.dtd">
<svg version="1.0" xmlns="http://www.w3.org/2000/svg"
 width="3000.000000pt" height="2000.000000pt" viewBox="0 0 3000.000000 2000.000000"
 preserveAspectRatio="xMidYMid meet">

<g transform="translate(0.000000,2000.000000) scale(0.100000,-0.100000)"
fill="#000000" stroke="none">
<path d="M24618 18016 c-108 -10 -139 -18 -126 -31 3 -3 56 -1 118 5 61 7 114
10 116 7 4 -4 26 -232 204 -2127 50 -531 165 -1752 255 -2714 91 -962 166
-1760 166 -1775 2 -22 2 -23 6 -5 4 21 -20 296 -153 1724 -87 949 -316 3439
-399 4340 -52 569 -54 590 -63 589 -4 -1 -60 -7 -124 -13z"/>
<path d="M22880 17854 c-663 -62 -1646 -154 -2185 -204 -2530 -234 -3449 -320
-3451 -323 -2 -1 0 -7 4 -13 5 -7 65 -5 197 8 169 16 1550 145 4005 373 443
42 949 89 1125 106 905 84 1501 139 1522 139 14 0 23 6 23 15 0 8 -8 14 -17
14 -10 -1 -560 -52 -1223 -115z"/>
<path d="M10180 17856 c-20 -7 -61 -30 -92 -49 -94 -61 -257 -142 -376 -188
-169 -65 -225 -132 -226 -271 -1 -66 0 -68 43 -112 25 -25 69 -58 98 -73 l53
-28 0 -102 0 -103 -141 -71 -142 -71 33 -19 c82 -51 246 -94 385 -102 203 -13
780 28 978 69 l28 6 -6 -49 c-8 -64 17 -114 63 -128 l33 -9 -5 -61 c-11 -113
47 -195 136 -195 30 0 46 7 69 29 16 16 29 40 29 53 0 20 5 23 36 24 51 1 76
34 71 94 -2 25 -7 52 -11 61 -5 12 -1 18 18 23 64 16 69 114 10 192 l-35 45
13 87 14 87 67 6 c112 9 147 48 147 165 0 92 -38 172 -114 241 -90 82 -160
115 -443 209 -214 71 -299 104 -423 167 -132 67 -164 80 -215 83 -36 2 -74 -2
-95 -10z m33 -370 c48 -45 97 -61 139 -47 l31 11 -5 -130 c-4 -120 -7 -132
-32 -170 -66 -100 -261 -108 -334 -15 -35 44 -43 94 -36 210 l7 106 28 -6 c41
-9 101 11 134 45 16 16 30 30 30 30 1 0 19 -15 38 -34z"/>
<path d="M16640 17274 c-69 -7 -138 -13 -154 -13 l-29 -1 7 -72 c4 -40 45
-482 91 -983 47 -500 112 -1200 145 -1555 33 -355 65 -690 70 -745 6 -55 46
-487 90 -960 44 -473 145 -1559 225 -2414 80 -855 145 -1557 145 -1561 0 -6
411 29 419 36 17 16 -35 16 -201 1 -105 -9 -193 -16 -194 -14 -2 2 -14 122
-69 717 -116 1255 -175 1882 -255 2750 -50 536 -120 1290 -155 1675 -36 385
-113 1209 -170 1830 -58 622 -108 1160 -111 1197 -8 79 -24 71 176 88 170 13
210 19 210 31 0 12 -85 9 -240 -7z"/>
<path d="M20690 16964 c-171 -20 -409 -73 -437 -96 -7 -6 -13 -8 -13 -5 0 5
-40 -10 -157 -58 -25 -10 -40 -22 -36 -28 3 -6 1 -7 -5 -3 -6 4 -26 -1 -44
-10 -64 -32 -197 -116 -214 -135 -9 -10 -23 -19 -29 -19 -7 0 -19 -7 -26 -17
-8 -9 -36 -33 -64 -53 -71 -53 -216 -201 -208 -213 3 -6 2 -7 -4 -4 -5 3 -23
-12 -39 -34 -16 -22 -38 -53 -50 -67 -12 -15 -19 -33 -17 -40 3 -7 -1 -11 -7
-10 -13 3 -122 -161 -114 -173 2 -4 0 -9 -5 -11 -15 -5 -82 -159 -74 -171 4
-6 1 -7 -7 -2 -10 6 -12 4 -7 -8 3 -10 2 -17 -4 -17 -6 0 -8 -4 -5 -9 4 -5 2
-11 -3 -13 -9 -3 -63 -170 -81 -251 -35 -157 -49 -434 -29 -567 5 -36 9 -74 9
-85 0 -104 130 -503 184 -566 9 -11 14 -19 12 -19 -3 0 11 -28 29 -62 19 -35
39 -62 45 -60 6 1 9 -2 5 -8 -6 -10 70 -130 83 -130 5 0 14 6 22 13 8 6 6 2
-3 -9 -10 -12 -14 -24 -10 -25 5 -2 19 -19 32 -37 13 -19 27 -29 34 -26 7 4 9
4 5 -1 -10 -10 11 -37 23 -29 5 3 6 -3 2 -12 -5 -13 -3 -16 10 -11 11 4 14 2
10 -9 -3 -8 1 -14 11 -14 9 0 15 -4 14 -8 -7 -20 217 -206 234 -196 6 4 8 3 5
-3 -7 -12 77 -76 87 -66 3 3 6 1 6 -5 0 -13 13 -21 180 -104 63 -32 122 -58
131 -58 8 0 19 -4 25 -10 5 -5 18 -11 29 -13 11 -2 33 -9 50 -16 118 -49 393
-92 570 -90 183 1 450 45 562 91 15 6 35 12 43 14 8 2 23 7 35 13 11 5 41 17
68 27 26 9 47 21 47 25 0 5 3 8 8 8 20 -3 32 2 26 13 -4 6 -3 8 4 5 15 -10 43
3 35 16 -3 6 -1 7 6 3 11 -7 108 42 134 68 6 7 14 12 17 12 6 0 63 36 70 44 3
3 21 17 40 30 19 13 40 29 46 35 7 5 39 33 72 60 34 28 59 56 56 63 -2 8 1 12
8 10 11 -4 87 68 88 83 0 3 16 22 36 43 20 20 32 41 28 48 -4 6 -3 9 2 6 5 -3
15 0 22 8 7 8 11 14 8 14 -2 0 9 14 25 31 21 22 28 38 24 53 -4 14 -3 17 3 8
7 -10 17 -1 39 35 64 101 135 248 172 357 35 101 88 315 89 356 1 8 5 56 11
107 10 88 8 265 -4 362 -11 86 -28 176 -35 186 -3 6 -7 23 -8 39 -5 81 -140
424 -162 411 -5 -3 -7 0 -4 8 3 8 -9 36 -25 63 -17 27 -38 63 -47 79 -9 17
-37 55 -63 85 -25 30 -46 57 -46 60 0 17 -177 200 -188 193 -6 -3 -7 -1 -4 4
4 6 -8 22 -26 36 -17 13 -48 39 -67 56 -67 59 -167 121 -187 115 -13 -4 -14
-3 -5 3 11 8 11 12 0 20 -25 19 -41 27 -34 15 3 -6 1 -14 -5 -18 -7 -4 -9 -3
-6 3 8 12 -27 46 -36 36 -4 -3 -7 -1 -7 5 0 7 -7 12 -15 12 -8 0 -15 4 -15 8
0 14 -197 95 -211 87 -8 -6 -10 -4 -4 5 6 10 4 12 -8 7 -9 -3 -17 -2 -19 3 -5
14 -168 59 -293 81 -105 19 -375 33 -455 23z m495 -74 c189 -38 458 -141 567
-216 20 -14 42 -23 48 -19 6 3 9 1 8 -7 -2 -7 5 -12 14 -12 10 1 16 -2 15 -6
-2 -7 76 -70 87 -70 2 0 20 -14 39 -31 19 -17 39 -32 44 -32 4 -1 19 -14 31
-29 13 -16 28 -25 33 -22 5 3 8 1 7 -4 -4 -13 119 -142 127 -134 4 4 5 2 3 -3
-3 -12 81 -125 93 -125 5 0 8 -3 7 -7 -1 -5 6 -21 17 -38 10 -16 33 -52 50
-80 110 -173 186 -377 232 -620 21 -112 26 -444 8 -557 -16 -103 -37 -199 -63
-283 -10 -33 -17 -66 -14 -74 3 -9 0 -11 -8 -6 -10 6 -12 4 -7 -8 4 -10 2 -17
-4 -17 -7 0 -9 -9 -6 -21 3 -12 3 -18 0 -15 -3 3 -30 -43 -59 -102 -52 -105
-94 -182 -105 -192 -21 -19 -68 -103 -63 -112 4 -6 3 -8 -3 -5 -6 4 -34 -23
-64 -60 -29 -36 -59 -72 -67 -79 -7 -8 -10 -19 -6 -25 5 -8 3 -9 -6 -4 -8 5
-30 -11 -63 -46 -28 -30 -46 -47 -42 -39 8 13 6 13 -8 1 -9 -7 -14 -18 -10
-25 3 -6 3 -8 -2 -4 -4 4 -25 -8 -46 -27 -21 -19 -71 -56 -111 -82 -80 -53
-92 -64 -77 -74 7 -4 4 -9 -5 -12 -9 -4 -15 -3 -13 1 3 9 -14 11 -30 5 -7 -3
-10 -10 -6 -16 3 -5 1 -7 -5 -4 -15 10 -43 -3 -35 -16 3 -5 2 -7 -4 -4 -5 3
-23 -1 -39 -9 -45 -24 -240 -103 -266 -108 -52 -10 -78 -19 -73 -26 2 -4 -8
-5 -23 -3 -18 3 -23 2 -14 -4 8 -7 2 -9 -20 -9 -18 0 -84 -8 -146 -17 -206
-31 -513 -18 -687 28 -33 9 -69 18 -80 19 -11 2 -33 9 -50 16 -71 29 -108 39
-118 33 -6 -4 -7 -1 -2 7 6 10 4 12 -8 7 -10 -4 -17 -2 -17 4 0 6 -7 8 -16 5
-8 -3 -13 -2 -10 3 3 5 -8 14 -26 20 -17 6 -63 29 -101 51 -39 23 -77 38 -84
36 -8 -3 -11 -1 -8 4 3 5 -14 21 -37 36 -24 15 -60 40 -80 56 -21 17 -43 26
-49 22 -7 -4 -9 -3 -6 3 7 11 -122 130 -135 125 -4 -1 -7 2 -6 7 2 4 -25 35
-59 68 -35 32 -63 64 -63 71 0 6 -9 17 -20 24 -11 7 -20 18 -20 25 0 7 -9 17
-20 23 -11 6 -19 14 -18 18 4 14 -55 92 -65 85 -5 -3 -7 -2 -4 4 7 11 -14 63
-25 63 -5 0 -8 6 -8 13 0 7 -11 28 -23 47 -22 32 -114 244 -122 280 -2 8 -13
44 -24 80 -20 65 -38 154 -47 240 -3 25 -8 52 -11 60 -2 8 -4 92 -3 187 1 148
6 209 34 383 5 30 28 107 59 200 17 52 30 102 28 110 -2 8 1 12 5 7 10 -10 36
52 27 66 -4 6 -1 7 7 2 10 -6 12 -4 6 11 -4 10 -4 15 0 11 10 -10 46 62 38 76
-4 7 -3 9 1 4 9 -7 65 73 65 93 0 5 3 10 8 10 7 0 42 56 41 67 0 3 4 9 9 12
23 15 111 135 105 144 -3 5 -1 7 4 4 6 -4 39 24 74 61 35 37 103 99 152 137
61 48 86 74 82 85 -5 11 -3 12 5 3 9 -8 29 0 84 35 39 26 90 56 113 66 23 10
40 23 36 29 -3 6 -1 7 5 4 13 -9 134 48 124 58 -4 5 -2 5 5 1 7 -3 52 7 101
24 102 34 252 69 332 77 30 3 57 7 60 10 3 3 97 3 210 0 159 -3 230 -9 315
-27z"/>
<path d="M20669 16247 c-26 -26 -29 -35 -28 -95 0 -37 4 -101 10 -142 5 -41 9
-84 9 -95 0 -18 25 -294 35 -390 21 -204 18 -233 -22 -207 -12 8 -38 238 -69
609 -4 56 -12 89 -24 103 -9 11 -20 17 -24 15 -3 -3 -4 -2 -1 2 12 16 -21 33
-65 33 -37 0 -55 -6 -79 -25 -16 -14 -32 -34 -36 -44 -3 -10 6 -141 20 -292
35 -372 39 -423 31 -453 -5 -22 -10 -25 -24 -17 -16 8 -21 44 -41 262 -24 264
-31 295 -76 325 -30 19 -106 15 -128 -7 -43 -44 -43 -53 -2 -609 8 -107 17
-233 20 -280 12 -169 44 -346 76 -419 10 -24 19 -50 19 -57 0 -8 4 -14 10 -14
5 0 7 -7 4 -15 -4 -8 -2 -15 3 -15 5 0 10 -6 10 -13 0 -15 48 -100 89 -156 13
-19 24 -30 24 -26 0 5 14 -9 32 -29 36 -42 132 -95 224 -122 116 -36 366 -18
441 31 14 10 22 12 18 5 -5 -7 12 -2 36 10 96 51 196 126 239 177 49 59 94
139 85 152 -3 5 -1 11 3 13 18 7 155 571 147 602 -4 13 -3 17 2 9 10 -14 53
161 53 214 0 35 -38 88 -70 96 -11 3 -18 1 -15 -3 3 -5 -7 -4 -23 2 -22 9 -36
7 -64 -6 -48 -23 -80 -97 -153 -351 -14 -49 -35 -109 -47 -133 -19 -40 -21
-42 -33 -25 -12 18 -31 90 -27 104 1 4 -5 69 -13 145 -7 77 -19 195 -25 264
-50 567 -69 730 -87 754 -46 63 -155 59 -187 -8 -19 -39 -16 -94 20 -451 8
-77 17 -176 20 -220 3 -44 7 -86 9 -92 6 -19 -30 -36 -43 -20 -11 14 -18 80
-58 527 -21 234 -34 338 -44 362 -26 56 -131 65 -181 15z m-195 -2028 c-3 -5
-10 -7 -15 -3 -5 3 -7 10 -3 15 3 5 10 7 15 3 5 -3 7 -10 3 -15z"/>
<path d="M13573 16885 c-112 -34 -187 -104 -218 -202 -20 -62 -25 -69 -56 -78
-48 -13 -134 -102 -150 -153 -10 -34 -17 -42 -36 -42 -45 0 -148 -42 -200 -81
-87 -65 -135 -151 -153 -274 -14 -91 3 -175 56 -283 52 -106 52 -117 -1 -198
-47 -71 -65 -133 -65 -218 0 -93 27 -183 80 -265 34 -52 50 -67 96 -88 30 -13
62 -36 71 -49 9 -14 19 -64 25 -117 10 -99 30 -152 65 -175 26 -16 24 -18 43
56 11 43 12 43 31 26 18 -16 19 -16 20 7 0 13 2 35 4 49 2 14 9 90 15 170 6
80 13 168 16 196 l6 51 -53 6 c-107 13 -169 88 -169 205 0 79 23 136 65 162
62 38 135 19 175 -45 36 -58 100 -43 139 33 26 51 33 89 33 184 l0 82 63 68
c36 37 71 81 79 97 23 43 55 169 58 224 1 26 2 47 2 47 1 0 25 -9 54 -20 61
-23 124 -25 207 -5 33 8 73 15 88 15 45 0 86 -37 120 -108 48 -99 64 -107 210
-107 128 0 182 -12 191 -44 12 -40 28 -502 22 -653 -10 -274 -49 -429 -135
-543 -39 -52 -40 -55 -19 -55 34 1 99 33 143 71 55 48 113 142 121 196 5 35
15 53 41 76 55 48 63 73 63 197 0 61 5 120 11 131 5 11 43 35 82 53 79 36 99
54 122 109 36 88 0 225 -81 310 -48 48 -57 75 -79 230 -32 235 -96 351 -227
416 -56 28 -70 31 -162 31 -152 0 -166 6 -276 120 -107 110 -166 152 -259 180
-74 23 -213 26 -278 5z"/>
<path d="M10475 16654 c-49 -12 -96 -38 -93 -53 3 -12 26 -15 141 -16 76 -1
140 1 142 5 20 32 -122 80 -190 64z"/>
<path d="M9835 16611 c-27 -11 -50 -39 -41 -49 8 -7 202 -19 230 -14 22 5 16
21 -17 46 -30 22 -136 33 -172 17z"/>
<path d="M10454 16501 c-23 -10 -44 -26 -47 -36 -6 -14 -3 -15 26 -8 42 10
145 10 175 0 20 -8 23 -6 20 9 -8 44 -111 65 -174 35z"/>
<path d="M9843 16490 c-18 -11 -33 -27 -33 -35 0 -19 -1 -19 46 1 38 16 108
15 162 -1 34 -11 27 12 -10 35 -21 13 -51 20 -83 20 -32 0 -62 -7 -82 -20z"/>
<path d="M10196 16475 c-53 -120 -156 -413 -156 -443 0 -30 29 -42 106 -42 79
0 78 10 -2 21 -31 4 -60 11 -65 16 -4 4 26 108 67 231 42 122 74 230 71 240
-2 12 -9 5 -21 -23z"/>
<path d="M9890 16410 c-51 -51 15 -125 76 -85 32 20 33 68 2 89 -30 21 -54 20
-78 -4z"/>
<path d="M10480 16410 c-11 -11 -20 -29 -20 -40 0 -25 34 -60 58 -60 31 0 62
29 62 59 0 55 -61 80 -100 41z"/>
<path d="M11257 16323 c14 -3 27 -18 38 -46 26 -64 6 -133 -47 -165 l-23 -13
25 7 c43 12 70 53 70 106 0 78 -23 119 -65 116 -18 -1 -18 -1 2 -5z"/>
<path d="M8057 15985 c-8 -200 -9 -420 -2 -413 10 10 26 534 17 558 -6 16 -11
-30 -15 -145z"/>
<path d="M8210 16068 c-1 -2 -3 -115 -5 -253 -2 -158 -1 -230 5 -195 8 56 12
450 4 450 -2 0 -4 -1 -4 -2z"/>
<path d="M13610 15917 c-60 -20 -45 -41 35 -48 39 -3 98 -10 133 -14 66 -8 76
-1 43 29 -46 42 -142 56 -211 33z"/>
<path d="M14215 15907 c-17 -8 -36 -22 -44 -31 -21 -25 0 -34 57 -25 26 4 75
8 109 8 66 1 85 13 59 39 -22 22 -140 27 -181 9z"/>
<path d="M10245 15892 c-35 -12 -54 -25 -65 -46 -11 -21 -12 -30 -3 -33 8 -3
9 -13 2 -36 -5 -18 -9 -63 -9 -101 0 -68 0 -69 -19 -52 -26 24 -72 13 -111
-26 -26 -26 -30 -36 -30 -87 0 -45 -4 -62 -19 -75 -11 -10 -23 -31 -26 -47 -6
-26 -17 -32 -51 -28 -3 0 -16 -11 -30 -26 -19 -21 -24 -37 -24 -81 0 -53 0
-54 -29 -54 -72 0 -97 -122 -43 -210 68 -111 95 -149 103 -144 5 3 -10 31 -34
62 -70 92 -87 128 -87 182 0 60 31 104 68 94 12 -4 22 -13 22 -21 0 -21 43
-89 47 -76 2 6 -5 26 -16 44 -29 48 -29 146 0 183 31 39 74 36 93 -6 17 -41
73 -118 85 -118 5 0 -13 33 -40 73 -50 75 -57 99 -37 141 12 27 46 44 57 28 3
-5 18 -24 33 -43 15 -19 45 -58 68 -86 23 -29 46 -53 51 -53 9 0 -44 78 -78
115 -62 66 -93 119 -93 157 0 45 31 83 76 94 22 6 32 2 53 -24 14 -17 80 -92
146 -167 l120 -137 3 47 c2 35 -1 52 -15 66 -50 51 -74 107 -68 164 5 59 19
63 62 18 218 -229 223 -237 240 -328 17 -93 21 -264 9 -382 -6 -53 -5 -83 1
-83 5 0 8 12 5 28 -2 15 3 65 12 110 13 68 14 101 5 185 -14 135 -36 239 -54
253 -8 6 -15 14 -15 18 0 7 -22 31 -189 205 -60 62 -64 65 -72 44 -13 -36 -26
-27 -27 20 -2 37 1 43 20 44 40 3 53 28 53 104 0 62 -3 73 -24 90 -28 23 -59
23 -126 1z m95 -414 c0 -7 18 -37 40 -66 59 -77 38 -84 -31 -10 -64 69 -72 88
-34 88 14 0 25 -6 25 -12z"/>
<path d="M14241 15802 c-42 -20 -57 -49 -20 -36 13 5 51 9 84 9 33 0 71 -4 84
-9 18 -6 22 -5 19 5 -6 20 -68 49 -103 49 -16 0 -45 -8 -64 -18z"/>
<path d="M13685 15800 c-40 -9 -75 -28 -75 -42 0 -6 11 -8 28 -4 70 16 100 17
140 3 35 -12 42 -12 42 -1 0 28 -85 56 -135 44z"/>
<path d="M14021 15804 c-1 -15 71 -224 115 -333 40 -100 42 -119 12 -125 -13
-3 -41 -8 -63 -13 l-40 -7 37 -4 c47 -4 99 10 112 30 7 12 -5 54 -48 170 -61
159 -124 301 -125 282z"/>
<path d="M14245 15736 c-19 -28 -9 -58 26 -76 25 -14 64 8 74 40 17 52 -70 83
-100 36z"/>
<path d="M13683 15728 c-17 -22 -21 -42 -12 -65 7 -19 16 -23 49 -23 35 0 42
4 51 26 14 37 -11 74 -50 74 -16 0 -33 -6 -38 -12z"/>
<path d="M7973 15500 c-50 -10 -104 -26 -120 -35 -15 -9 -19 -13 -8 -9 18 6
243 46 320 57 17 2 1 4 -35 5 -36 0 -106 -8 -157 -18z"/>
<path d="M8133 15279 c-47 -30 -113 -121 -138 -192 l-23 -62 -11 30 c-31 83
-121 230 -121 197 0 -6 5 -14 11 -18 16 -10 95 -179 110 -236 7 -27 16 -48 20
-48 4 0 11 26 14 58 10 87 56 178 122 240 62 57 64 62 16 31z"/>
<path d="M11146 15260 c11 -14 76 -89 142 -168 67 -79 122 -150 122 -158 0
-23 -59 -201 -91 -272 -37 -82 -140 -262 -150 -262 -4 0 -10 8 -14 19 -3 10
-36 76 -74 147 -38 71 -81 162 -97 201 -15 40 -29 71 -31 69 -8 -7 -93 -220
-90 -223 2 -2 23 39 46 89 l42 93 23 -55 c13 -30 60 -128 105 -218 46 -90 81
-165 79 -168 -3 -2 -54 46 -114 106 l-109 110 -57 -54 c-31 -30 -60 -52 -65
-48 -4 4 -5 3 -2 -1 4 -4 -21 -34 -54 -65 -144 -135 -215 -201 -261 -244 l-50
-45 31 -39 c29 -37 30 -41 22 -99 -4 -33 -15 -130 -23 -215 -76 -773 -84
-1606 -22 -2409 l11 -154 -60 -27 c-63 -29 -229 -89 -303 -111 -23 -7 -40 -14
-38 -17 8 -7 194 49 300 90 54 21 100 37 101 36 1 -2 15 -113 29 -247 27 -238
43 -347 45 -305 1 12 -8 102 -18 200 -11 99 -23 222 -27 275 l-6 95 63 29
c220 98 536 332 707 523 77 86 160 192 187 237 l17 30 -23 -30 c-187 -238
-410 -443 -655 -602 -115 -74 -290 -170 -298 -162 -9 9 -36 496 -47 851 -16
498 1 1100 46 1633 24 287 27 320 30 323 4 4 109 -146 325 -465 293 -431 427
-605 608 -781 142 -139 279 -248 509 -402 210 -142 249 -159 384 -167 178 -11
290 53 384 222 54 96 80 192 130 477 l47 268 -232 580 c-128 320 -234 579
-236 577 -4 -4 27 -85 306 -796 l143 -365 -48 -260 c-26 -144 -57 -293 -70
-333 -47 -149 -137 -273 -233 -320 -51 -25 -67 -28 -157 -28 -143 1 -183 16
-370 141 -540 360 -687 519 -1250 1350 -55 81 -139 203 -187 271 -49 67 -88
125 -88 127 0 7 452 427 456 424 2 -2 186 -185 410 -408 223 -223 405 -400
403 -393 -2 6 -136 144 -297 307 l-292 295 56 86 c94 144 190 371 210 493 6
36 2 41 -124 182 -71 80 -140 154 -153 165 l-24 20 21 -25z"/>
<path d="M13832 15208 c5 -15 156 -107 177 -108 11 0 11 3 0 16 -35 42 -186
121 -177 92z"/>
<path d="M9829 14813 c-57 -128 -168 -448 -157 -458 7 -7 283 173 332 217 42
37 56 44 70 36 15 -9 16 -7 5 11 -15 22 -17 21 -79 -30 -25 -20 -92 -66 -150
-101 -166 -102 -153 -104 -115 15 19 56 54 159 79 230 47 132 53 162 15 80z"/>
<path d="M9900 14834 c0 -10 40 -65 97 -132 29 -35 53 -60 53 -55 0 4 -11 21
-24 36 -57 67 -92 111 -104 133 -12 23 -22 31 -22 18z"/>
<path d="M10670 14770 c0 -5 5 -10 11 -10 5 0 7 5 4 10 -3 6 -8 10 -11 10 -2
0 -4 -4 -4 -10z"/>
<path d="M5979 14696 c-2 -3 -38 -7 -79 -11 -41 -3 -124 -17 -185 -30 -60 -14
-113 -25 -118 -25 -4 0 -6 -3 -4 -7 3 -5 -11 -8 -31 -9 -20 0 -38 -6 -40 -12
-2 -7 -7 -10 -11 -7 -23 13 -360 -137 -446 -199 -16 -12 -42 -27 -57 -34 -16
-6 -28 -16 -28 -22 0 -5 -5 -10 -10 -10 -39 0 -387 -311 -373 -333 3 -6 1 -7
-5 -4 -13 9 -134 -142 -125 -157 3 -6 3 -8 -2 -4 -10 9 -69 -64 -96 -119 -11
-23 -28 -52 -38 -65 -44 -58 -155 -303 -145 -319 3 -5 1 -9 -4 -9 -11 0 -75
-201 -77 -244 -1 -18 -7 -41 -12 -51 -17 -31 -27 -106 -44 -306 -17 -200 6
-439 62 -662 13 -53 25 -84 32 -80 6 4 7 1 2 -6 -9 -16 66 -222 78 -214 6 3 7
1 3 -5 -7 -12 73 -184 100 -213 8 -8 14 -21 14 -28 0 -7 5 -9 12 -5 7 4 8 3 4
-5 -8 -13 126 -207 191 -276 21 -22 38 -43 38 -47 0 -10 16 -23 28 -23 7 0 12
-4 12 -10 0 -19 16 -35 27 -29 6 4 8 3 5 -3 -8 -13 47 -66 58 -56 4 5 5 3 2
-3 -8 -14 50 -57 65 -48 6 4 8 3 5 -3 -6 -9 12 -32 45 -58 163 -129 404 -275
429 -259 7 4 10 3 6 -2 -6 -11 161 -84 191 -84 11 0 22 -4 24 -9 2 -6 14 -12
28 -16 14 -3 77 -19 140 -36 63 -16 133 -32 155 -35 22 -3 58 -7 80 -10 22 -3
50 -7 63 -10 l22 -4 0 -3575 c0 -2372 -3 -3576 -10 -3580 -6 -3 -10 -1 -10 6
0 8 -31 10 -122 5 -162 -8 -284 -26 -266 -38 9 -7 7 -8 -8 -3 -25 6 -111 -14
-209 -52 -106 -40 -147 -62 -138 -76 4 -7 0 -7 -10 2 -11 9 -17 10 -17 2 0 -6
-9 -11 -20 -11 -11 0 -20 -5 -20 -10 0 -6 -3 -9 -8 -8 -13 5 -112 -64 -106
-73 3 -5 -1 -6 -8 -4 -14 6 -151 -109 -142 -118 3 -3 -4 -8 -15 -12 -12 -3
-21 -13 -21 -20 0 -8 -8 -20 -18 -27 -44 -33 -139 -198 -126 -219 5 -8 3 -9
-6 -4 -10 6 -12 4 -7 -8 3 -10 2 -17 -3 -17 -7 0 -21 -41 -26 -75 0 -5 -4 -17
-7 -25 -16 -38 -26 -174 -18 -237 9 -73 49 -203 63 -203 4 0 8 -6 8 -14 0 -8
4 -16 9 -18 6 -2 1 -33 -10 -73 -52 -187 -111 -551 -108 -668 1 -43 3 -38 10
33 22 205 103 619 130 661 8 12 10 12 18 0 7 -11 9 -11 14 0 4 10 6 9 6 -3 1
-19 82 -48 152 -53 22 -1 43 -5 46 -9 16 -16 247 -1 237 15 -3 5 2 6 11 3 17
-7 157 35 151 45 -2 3 6 7 19 7 38 3 175 100 250 178 87 90 151 208 206 379
21 66 39 127 39 133 0 17 8 21 53 29 l37 7 0 -791 0 -791 -689 0 -690 0 -4 48
-3 47 -2 -47 -2 -48 -992 -3 c-546 -1 -158 -2 862 -2 1020 0 1782 1 1692 2
l-162 3 0 3758 c0 2066 3 4160 7 4652 l6 895 169 1 168 1 2 -3616 c2 -1989 3
-3750 3 -3914 0 -193 3 -296 10 -294 6 2 35 -5 65 -15 130 -46 275 -31 355 35
156 128 54 368 -212 501 -68 35 -141 58 -155 50 -6 -4 -8 -3 -5 3 4 6 -4 14
-18 17 l-25 6 2 3618 3 3617 55 7 c30 5 68 8 83 8 19 0 26 3 21 11 -4 8 0 9
14 5 29 -10 295 60 397 103 161 69 194 85 188 95 -3 6 -3 8 2 4 11 -10 88 31
205 109 88 59 163 114 131 97 -9 -5 -12 -3 -7 5 4 6 11 9 16 6 4 -3 23 7 42
22 18 16 40 34 50 42 9 8 14 19 11 24 -3 6 -1 7 4 4 6 -4 23 9 37 28 15 19 32
34 38 32 7 -1 13 5 13 13 0 8 6 14 13 13 13 -3 35 33 28 46 -3 5 4 17 17 27
l22 19 -19 -22 c-11 -13 -14 -23 -9 -23 11 0 78 76 133 153 19 27 45 61 58 77
42 53 132 215 127 228 -2 7 -1 10 5 7 11 -7 33 32 25 45 -3 5 -1 11 5 15 18
11 62 106 56 122 -3 8 -2 12 3 9 5 -3 11 4 14 17 3 12 15 48 26 80 35 93 80
288 97 410 16 122 18 373 3 497 -14 118 -42 260 -50 260 -15 0 -124 -43 -146
-58 -13 -8 -20 -19 -17 -24 11 -17 14 -70 18 -298 4 -203 2 -238 -19 -360 -13
-74 -27 -146 -30 -160 -24 -91 -73 -227 -110 -307 -24 -51 -41 -93 -37 -93 4
0 0 -6 -8 -13 -15 -12 -37 -53 -38 -71 0 -5 -4 -12 -10 -15 -5 -3 -31 -40 -57
-81 -57 -86 -132 -182 -202 -258 -27 -29 -47 -54 -45 -57 3 -3 0 -5 -7 -5 -6
0 -23 -11 -37 -25 -28 -28 -158 -135 -183 -150 -48 -30 -78 -50 -96 -66 -11
-9 -73 -44 -137 -77 -64 -33 -114 -63 -110 -68 4 -4 2 -4 -5 -1 -6 4 -45 -6
-86 -23 -42 -16 -80 -30 -87 -30 -6 0 -8 -5 -4 -12 5 -7 2 -9 -9 -5 -9 3 -31
1 -49 -4 -65 -20 -204 -49 -253 -54 -27 -3 -72 -9 -100 -13 -72 -11 -344 -6
-450 8 -49 7 -101 14 -115 15 -14 2 -56 12 -95 23 -38 11 -73 18 -77 16 -4 -3
-8 -1 -8 4 0 4 -23 14 -52 22 -49 12 -178 67 -298 125 -52 26 -180 108 -266
171 -118 86 -226 194 -348 347 -27 34 -53 61 -58 59 -5 -1 -7 2 -3 7 7 13 -24
63 -35 56 -5 -3 -12 0 -16 6 -5 8 -3 9 6 4 8 -5 11 -3 8 6 -3 8 -11 13 -17 11
-7 -1 -10 2 -6 8 9 14 -14 52 -27 44 -7 -4 -8 -2 -4 5 4 6 3 18 -4 26 -36 44
-161 340 -175 418 -4 20 -10 35 -14 33 -3 -2 -7 8 -7 22 -1 15 -4 38 -8 52
-26 101 -47 293 -46 425 0 197 32 407 90 588 11 37 18 73 14 80 -4 6 -3 9 1 4
7 -6 39 58 49 98 1 6 19 43 39 82 21 40 37 74 36 75 -3 8 180 272 224 323 67
78 171 181 227 225 25 19 55 45 68 58 12 12 25 22 27 22 2 0 43 26 92 59 192
128 420 223 663 277 36 7 85 16 110 19 25 3 59 7 75 10 42 7 370 8 425 1 261
-33 541 -125 742 -245 35 -21 37 -21 46 -4 6 10 31 24 56 32 25 7 46 18 46 23
0 6 -7 7 -16 4 -8 -3 -13 -2 -10 2 7 11 -102 71 -219 121 -27 12 -59 26 -70
31 -52 24 -129 49 -137 44 -4 -3 -8 -1 -8 4 0 6 -17 13 -37 17 -21 5 -42 10
-48 11 -85 25 -130 34 -141 30 -7 -3 -14 -1 -16 4 -2 4 -25 11 -53 14 -27 3
-79 10 -115 16 -64 9 -402 14 -411 6z m1982 -3179 c-10 -9 -11 -8 -5 6 3 10 9
15 12 12 3 -3 0 -11 -7 -18z m-2381 -8452 c0 -2 -10 -9 -22 -15 -22 -11 -22
-10 -4 4 21 17 26 19 26 11z m-120 -85 c-24 -15 -36 -11 -14 4 10 8 21 12 24
10 2 -3 -2 -9 -10 -14z m-397 -375 c-3 -9 -8 -14 -10 -11 -3 3 -2 9 2 15 9 16
15 13 8 -4z"/>
<path d="M10795 14630 c10 -11 20 -20 23 -20 3 0 -3 9 -13 20 -10 11 -20 20
-23 20 -3 0 3 -9 13 -20z"/>
<path d="M10149 14542 c29 -26 71 -48 71 -37 0 3 -50 35 -90 58 -8 5 0 -5 19
-21z"/>
<path d="M5940 14540 c-88 -10 -294 -56 -324 -72 -12 -6 -21 -10 -21 -9 0 2
-13 -1 -28 -5 -16 -3 -24 -10 -18 -13 6 -4 -4 -7 -22 -7 -54 0 -356 -150 -339
-169 4 -5 1 -5 -5 -1 -14 8 -123 -59 -123 -75 0 -5 -5 -9 -10 -9 -14 0 -102
-70 -173 -137 -86 -82 -217 -233 -217 -251 0 -8 -3 -12 -7 -9 -9 10 -43 -44
-36 -56 3 -6 2 -7 -4 -4 -5 4 -16 -6 -24 -21 -8 -15 -26 -44 -41 -66 -23 -32
-26 -42 -16 -60 10 -18 9 -19 -4 -9 -12 11 -19 5 -41 -39 -15 -28 -24 -55 -20
-61 3 -6 2 -7 -3 -4 -23 14 -121 -276 -155 -458 -26 -135 -36 -415 -20 -525 6
-41 13 -93 15 -115 12 -110 122 -466 139 -448 5 4 5 0 1 -10 -4 -11 -1 -17 7
-17 7 0 10 -3 6 -6 -10 -10 75 -164 86 -157 6 3 7 1 3 -5 -9 -15 18 -55 29
-44 5 4 5 2 2 -4 -8 -14 37 -76 48 -66 5 4 5 1 1 -6 -10 -16 72 -124 87 -115
6 3 7 1 3 -5 -14 -23 208 -242 343 -337 31 -22 58 -43 59 -47 2 -5 8 -6 13 -2
5 3 9 0 9 -6 0 -7 7 -9 16 -6 8 3 13 2 10 -2 -3 -4 4 -14 16 -21 16 -10 19
-10 12 1 -4 7 6 1 22 -13 80 -74 451 -214 614 -233 19 -2 73 -10 120 -16 98
-15 421 -8 515 9 139 27 207 44 197 50 -6 3 6 7 27 7 20 1 55 10 77 20 41 20
44 21 70 23 9 0 12 6 8 13 -4 7 -3 8 4 4 15 -9 285 121 277 134 -3 5 0 7 8 4
7 -2 26 8 42 23 16 15 24 21 20 13 -5 -8 11 1 35 20 25 19 47 38 48 42 2 5 9
5 15 1 6 -4 8 0 4 10 -4 10 -1 14 6 12 7 -2 32 14 57 37 25 23 36 35 25 27
-18 -13 -19 -13 -6 3 7 10 17 15 22 12 12 -7 90 67 82 79 -3 6 -1 7 5 3 12 -7
44 33 36 46 -3 4 1 5 9 3 7 -3 22 3 32 15 10 11 15 20 11 20 -4 0 6 12 23 26
17 14 29 30 25 35 -3 5 3 9 12 9 10 0 15 3 11 6 -3 3 3 16 14 28 11 11 27 36
34 54 8 17 18 32 23 32 17 0 114 171 107 188 -3 9 -3 13 1 9 10 -10 36 31 28
45 -4 6 -3 8 2 5 30 -18 173 419 158 480 -5 18 -4 24 5 19 7 -5 12 4 13 26 1
18 3 47 5 63 14 116 21 225 17 255 -4 32 -13 132 -15 170 0 8 -5 38 -10 67
l-10 52 -47 -20 c-118 -51 -319 -71 -488 -49 -54 7 -106 14 -114 15 -8 1 -41
9 -73 19 -32 9 -63 14 -69 10 -7 -5 -8 -3 -3 6 6 10 4 12 -8 7 -9 -3 -17 -1
-19 4 -2 6 -15 12 -30 12 -14 1 -24 5 -21 10 2 4 -1 8 -6 8 -20 3 -26 5 -76
31 -66 34 -172 119 -206 166 -55 75 -64 258 -20 427 22 84 113 328 130 349 6
7 8 16 4 19 -3 4 -1 7 5 7 7 0 12 6 12 13 0 7 9 29 20 50 11 21 18 42 15 48
-4 5 -2 8 5 7 6 -2 25 24 43 57 17 33 35 62 39 63 5 2 8 10 8 17 0 17 -161
107 -195 109 -12 0 -21 4 -19 7 2 4 -24 16 -59 28 -34 12 -71 27 -82 32 -11 5
-29 12 -40 14 -11 3 -54 14 -95 25 -41 11 -113 27 -160 36 -101 18 -423 26
-530 14z m1330 -1861 c3 -127 3 -232 0 -234 -11 -7 -97 -7 -1137 -6 l-1082 1
-3 235 c-3 197 -1 235 11 237 8 2 508 2 1110 1 l1096 -2 5 -232z"/>
<path d="M10260 14477 c0 -3 17 -17 38 -33 30 -23 33 -24 17 -5 -19 22 -55 46
-55 38z"/>
<path d="M13120 14464 c14 -8 70 -41 125 -73 65 -37 99 -62 96 -72 -1 -8 -13
-55 -26 -104 -13 -50 -25 -108 -27 -129 -3 -34 -8 -40 -41 -51 -141 -48 -319
-317 -351 -530 -4 -22 5 -2 19 45 74 243 219 434 363 476 49 15 69 15 143 5
226 -30 392 -95 520 -205 143 -121 444 -484 678 -816 l102 -145 -35 -32 c-47
-43 -27 -53 24 -11 22 18 40 35 40 38 0 12 -241 346 -337 468 -343 435 -509
591 -700 657 -96 33 -256 64 -341 66 -40 1 -72 5 -72 10 0 5 11 52 25 106 14
54 25 105 25 113 1 51 16 45 192 -72 154 -103 322 -224 430 -311 21 -17 41
-28 44 -25 3 3 -4 63 -16 133 -12 69 -20 129 -17 131 3 3 24 -6 47 -21 54 -34
45 -19 -13 23 -57 40 -59 34 -38 -115 15 -101 14 -131 -3 -104 -10 16 -236
184 -346 258 -141 95 -324 205 -432 259 -86 43 -128 58 -78 28z"/>
<path d="M12386 14440 c4 -14 15 -43 25 -65 11 -22 16 -29 13 -15 -4 14 -15
43 -25 65 -11 22 -16 29 -13 15z"/>
<path d="M7830 14440 c-11 -7 -8 -10 16 -10 35 0 54 -16 54 -46 0 -30 -24 -48
-55 -40 -25 6 -43 45 -30 65 3 6 2 11 -4 11 -24 0 -14 -75 12 -92 26 -16 66
-8 86 18 27 34 26 50 -4 79 -25 26 -50 31 -75 15z"/>
<path d="M7320 14395 c0 -19 78 -101 144 -150 124 -93 275 -157 401 -169 l60
-6 -85 24 c-205 57 -324 122 -452 245 -38 35 -68 61 -68 56z"/>
<path d="M11160 14147 c-85 -137 -227 -265 -372 -332 -37 -18 -44 -24 -23 -20
98 19 261 134 341 241 49 66 109 172 102 180 -2 2 -24 -29 -48 -69z"/>
<path d="M10708 14110 c33 -21 40 -46 22 -81 -13 -24 -52 -25 -73 -1 -21 23
-21 41 -1 70 8 12 10 22 5 22 -6 0 -18 -11 -27 -25 -18 -28 -13 -64 12 -89 21
-22 77 -20 97 2 38 41 7 122 -45 122 -20 0 -19 -2 10 -20z"/>
<path d="M11760 14099 c0 -33 24 -207 51 -371 13 -78 13 -78 43 -78 47 0 127
-42 168 -88 40 -44 76 -111 127 -232 28 -68 91 -176 91 -157 0 4 -11 29 -24
55 -13 26 -36 79 -51 117 -87 219 -175 314 -291 315 l-41 0 -7 79 c-7 85 -54
382 -61 390 -3 2 -5 -11 -5 -30z"/>
<path d="M7948 14098 c-29 -45 -107 -255 -133 -354 -34 -133 -55 -293 -55
-424 0 -124 -12 -173 -50 -212 -30 -30 -30 -34 1 -18 44 24 60 84 69 249 12
210 42 378 95 531 19 56 25 65 21 36 -15 -112 -27 -470 -19 -556 8 -91 9 -86
16 135 14 403 22 504 51 574 26 65 27 75 4 39z"/>
<path d="M8972 13920 c0 -19 2 -27 5 -17 2 9 2 25 0 35 -3 9 -5 1 -5 -18z"/>
<path d="M9650 13910 c-22 -31 -91 -60 -142 -60 l-45 0 -7 -61 c-9 -90 -7
-177 4 -184 5 -3 6 -13 3 -22 -4 -11 -3 -14 5 -9 8 5 10 2 6 -9 -8 -20 38 -70
88 -96 67 -34 182 -22 247 25 66 49 71 63 78 243 l4 111 -39 -5 c-53 -7 -102
11 -145 52 -20 19 -37 35 -39 35 -2 0 -10 -9 -18 -20z"/>
<path d="M14290 13885 c0 -4 55 -82 122 -173 170 -232 250 -357 324 -507 88
-179 104 -247 105 -454 1 -132 3 -154 10 -106 4 33 7 121 5 195 -2 116 -6 146
-30 215 -56 165 -167 357 -341 590 -95 128 -195 251 -195 240z"/>
<path d="M8981 13855 c0 -16 28 -381 64 -810 48 -573 71 -902 85 -1240 25
-583 29 -632 24 -265 -7 421 -20 703 -48 1040 -78 918 -121 1362 -125 1275z"/>
<path d="M11785 13690 c10 -11 20 -20 23 -20 3 0 -3 9 -13 20 -10 11 -20 20
-23 20 -3 0 3 -9 13 -20z"/>
<path d="M13590 13512 c0 -4 -14 -16 -31 -26 -35 -21 -130 -20 -165 2 -20 12
-22 10 -28 -20 -9 -48 -44 -92 -92 -118 l-41 -23 24 -56 c30 -71 63 -132 80
-149 7 -7 13 -17 13 -22 0 -14 69 -52 81 -44 8 4 9 3 5 -4 -5 -9 8 -12 46 -12
51 0 113 25 175 70 33 24 63 90 63 139 0 48 -63 197 -79 187 -5 -3 -7 3 -4 14
3 11 0 20 -6 20 -6 0 -8 7 -4 17 4 11 3 14 -5 9 -7 -4 -12 -1 -12 8 0 9 -4 16
-10 16 -5 0 -10 -4 -10 -8z"/>
<path d="M12882 13440 c0 -14 2 -19 5 -12 2 6 2 18 0 25 -3 6 -5 1 -5 -13z"/>
<path d="M9320 13250 l0 -80 360 0 360 0 0 80 0 80 -360 0 -360 0 0 -80z"/>
<path d="M22390 13115 c-184 -17 -401 -38 -482 -45 l-148 -13 0 -26 c0 -39 18
-203 23 -207 2 -2 149 10 327 26 177 17 329 30 336 28 8 -2 -44 -85 -137 -218
l-149 -215 5 -65 c3 -36 8 -80 11 -98 l5 -32 57 7 c92 12 223 9 277 -6 69 -21
128 -81 144 -149 40 -163 -90 -278 -325 -290 -149 -7 -253 18 -421 100 -9 4
-103 -215 -96 -225 10 -16 145 -74 213 -91 222 -56 477 -38 647 45 186 90 282
246 270 438 -6 99 -31 174 -82 243 -63 85 -190 151 -317 165 -32 3 -58 9 -58
14 0 4 70 108 155 231 169 242 162 226 149 357 -8 73 44 70 -404 26z"/>
<path d="M20915 12996 c-93 -18 -146 -40 -228 -93 -113 -75 -202 -205 -248
-365 -30 -107 -37 -313 -14 -449 52 -313 191 -513 420 -604 91 -37 263 -47
365 -21 241 60 405 247 457 520 21 111 13 359 -16 471 -70 279 -227 463 -451
529 -77 23 -202 28 -285 12z m251 -269 c135 -69 218 -257 231 -522 7 -151 -7
-243 -53 -335 -61 -121 -145 -174 -279 -175 -64 0 -89 5 -126 23 -132 65 -211
219 -240 465 -30 261 37 469 175 539 65 33 86 38 166 34 57 -2 87 -9 126 -29z"/>
<path d="M19713 12866 l-112 -11 -57 -90 c-31 -49 -178 -283 -327 -520 l-269
-430 7 -95 c3 -52 8 -97 11 -99 2 -2 186 13 408 33 223 21 409 35 414 32 5 -3
15 -78 22 -166 8 -99 17 -163 24 -166 6 -2 67 2 136 9 99 9 125 15 125 27 0 8
-6 84 -14 168 -7 84 -11 155 -9 157 2 3 62 10 132 16 l128 12 -7 96 c-10 150
-8 144 -74 137 -31 -3 -90 -8 -132 -12 l-76 -7 -13 153 -13 152 -56 -6 c-31
-3 -91 -9 -134 -12 l-77 -7 5 -46 c11 -96 25 -254 23 -257 -5 -4 -467 -46
-477 -42 -5 1 21 53 58 113 38 61 157 253 266 429 108 175 214 347 236 382
l39 64 -38 -1 c-20 -1 -88 -7 -149 -13z"/>
<path d="M14599 12757 c-708 -635 -860 -768 -870 -765 -4 2 -63 73 -131 159
-68 86 -187 238 -266 337 -79 100 -145 182 -148 182 -3 0 46 -66 108 -147 153
-201 419 -546 428 -556 4 -4 39 18 78 50 112 92 861 757 861 766 2 16 -26 4
-60 -26z"/>
<path d="M13730 11409 c0 -47 75 -213 140 -309 44 -64 130 -163 137 -156 3 3
-17 32 -44 65 -65 81 -133 195 -188 316 -25 55 -45 93 -45 84z"/>
<path d="M23094 11358 c3 -18 8 -61 11 -95 l6 -62 -47 21 c-56 24 -118 20
-170 -12 -102 -64 -106 -232 -7 -307 49 -38 133 -43 191 -14 23 12 42 26 42
31 0 6 5 10 10 10 6 0 10 -9 10 -20 0 -16 7 -20 30 -20 37 0 36 -12 10 260
-11 113 -20 213 -20 223 0 13 -8 17 -35 17 -35 0 -36 -1 -31 -32z m-34 -193
c64 -33 82 -140 32 -196 -55 -62 -167 -47 -198 26 -18 45 -18 79 2 121 28 60
102 81 164 49z"/>
<path d="M22635 11278 c3 -40 8 -83 11 -95 5 -26 -1 -28 -36 -8 -39 22 -128
19 -174 -8 -57 -32 -89 -96 -83 -163 12 -119 79 -179 192 -172 49 3 70 10 99
31 l36 28 0 -27 c0 -24 3 -25 27 -19 16 4 29 8 31 10 1 1 -7 113 -19 249 l-23
246 -33 0 -34 0 6 -72z m-45 -151 c37 -18 70 -74 70 -117 0 -85 -88 -148 -164
-116 -95 39 -102 186 -12 230 38 19 73 20 106 3z"/>
<path d="M25363 11300 c0 -30 2 -43 4 -27 2 15 2 39 0 55 -2 15 -4 2 -4 -28z"/>
<path d="M22178 11309 c-21 -12 -24 -49 -6 -67 17 -17 42 -15 62 7 19 21 13
47 -15 61 -21 12 -20 12 -41 -1z"/>
<path d="M23850 11313 c-8 -3 -27 -14 -42 -24 -33 -24 -38 -24 -38 1 0 17 -4
19 -27 14 -16 -4 -29 -8 -31 -9 -3 -3 29 -349 33 -353 2 -2 18 -1 35 3 27 6
31 10 26 33 -14 74 -17 184 -6 217 13 41 52 65 104 65 73 0 90 -25 100 -145
12 -139 14 -145 48 -145 l31 0 -7 93 c-11 151 -22 192 -62 226 -30 27 -42 31
-92 30 -31 0 -64 -3 -72 -6z"/>
<path d="M8809 11277 c-24 -13 -57 -42 -73 -65 -27 -38 -30 -52 -37 -154 -4
-62 -10 -417 -14 -788 -6 -615 -6 -679 9 -715 21 -50 51 -82 100 -107 54 -28
158 -23 204 11 l33 23 -6 -39 c-3 -21 -21 -180 -40 -353 -19 -173 -84 -763
-144 -1310 -61 -547 -198 -1791 -306 -2765 -108 -973 -232 -2094 -275 -2490
-44 -396 -80 -728 -80 -737 0 -16 12 -18 110 -18 l110 0 -6 -28 c-27 -116 -50
-177 -98 -257 -29 -49 -83 -139 -118 -200 l-64 -110 -894 -5 -895 -5 881 -3
c484 -1 884 -5 887 -9 4 -3 1 -16 -6 -27 -8 -12 -57 -96 -110 -188 -111 -192
-119 -223 -69 -276 32 -34 69 -47 105 -38 13 3 122 67 243 142 120 76 312 195
426 265 l208 129 962 -9 c784 -6 8285 -1 16033 12 792 1 -1197 3 -4421 5
l-5861 2 -11 24 c-31 68 -391 247 -749 372 -81 28 -83 29 -83 61 l0 33 190 0
190 0 -1 78 c0 42 -6 352 -13 687 l-12 610 134 375 c436 1221 713 2036 798
2347 25 92 26 107 21 248 -18 471 -252 1416 -853 3447 l-165 558 11 202 c6
112 17 329 25 482 8 154 13 281 11 283 -1 2 -41 -6 -87 -16 -210 -50 -484 -74
-632 -56 -42 5 -68 3 -95 -8 -32 -13 -67 -14 -222 -6 -178 8 -429 36 -555 62
l-60 12 -5 81 c-6 102 -34 149 -111 188 -68 34 -120 34 -188 0 -57 -29 -96
-77 -107 -132 -5 -25 -11 -32 -23 -27 -9 4 -28 9 -42 12 -23 4 -28 1 -33 -23
-23 -110 -45 -562 -27 -573 7 -5 -23 -91 -95 -272 -58 -145 -127 -329 -154
-409 -129 -383 -151 -756 -64 -1049 57 -190 248 -576 575 -1163 l99 -176 30
-299 c16 -164 73 -732 125 -1263 53 -531 125 -1257 160 -1615 35 -357 87 -879
115 -1160 28 -280 71 -713 95 -962 25 -249 45 -455 45 -458 0 -3 32 -5 71 -5
l71 0 -7 -238 c-4 -130 -9 -240 -12 -245 -2 -4 -377 -7 -834 -7 l-829 0 -62
50 c-55 44 -257 154 -373 202 -79 33 -321 126 -374 143 l-54 18 7 110 c4 61
10 115 13 120 3 5 30 7 59 4 l53 -5 5 31 c3 18 42 525 86 1127 44 602 109
1487 145 1965 36 479 119 1597 184 2485 l120 1615 7 521 7 521 36 13 c20 7 51
26 69 43 59 57 62 82 62 556 l0 426 -24 52 c-36 77 -88 108 -181 108 -63 0
-77 -4 -113 -29 -26 -18 -51 -47 -67 -79 -23 -47 -25 -61 -25 -192 l0 -141
-54 -26 -54 -25 -4 81 c-4 102 -26 149 -94 194 -46 32 -53 34 -121 30 -62 -3
-77 -7 -110 -34 -21 -16 -48 -50 -60 -74 -21 -40 -23 -58 -23 -196 l0 -152
-32 -11 c-67 -21 -196 -51 -308 -70 -63 -12 -127 -24 -142 -27 -24 -5 -28 -2
-28 15 0 12 -10 31 -21 42 -20 20 -27 21 -153 14 -317 -17 -336 -21 -336 -87
l0 -28 -135 0 -135 0 0 105 c0 148 -27 206 -115 246 -72 33 -167 19 -223 -34
-46 -43 -62 -90 -62 -182 0 -93 1 -92 -62 -74 l-38 10 0 88 c0 78 -4 95 -28
142 -22 43 -38 59 -81 81 -103 54 -201 26 -275 -77 -15 -20 -15 -20 -42 7
l-27 27 2 148 c2 165 -9 215 -57 266 -66 70 -170 88 -253 44z m1740 -781 c-2
-2 -26 -6 -54 -9 -34 -4 -42 -3 -25 3 25 8 87 13 79 6z m59 -3 c-10 -2 -26 -2
-35 0 -10 3 -2 5 17 5 19 0 27 -2 18 -5z m-72 -4549 c-14 -1804 -27 -3462 -30
-3685 l-5 -406 76 -6 c41 -3 77 -7 79 -10 5 -5 -13 -657 -19 -663 -2 -2 -390
-3 -863 -2 l-859 3 88 55 c66 42 89 62 97 85 5 17 35 122 66 235 31 113 58
212 61 221 5 16 50 29 104 29 26 0 26 2 48 138 12 75 38 232 56 347 19 116 57
352 85 525 28 173 68 425 90 560 22 135 60 371 85 525 25 154 70 433 100 620
30 187 84 522 120 745 36 223 83 515 105 650 22 135 57 353 79 485 21 132 132
823 247 1537 115 713 210 1295 212 1293 1 -1 -9 -1478 -22 -3281z"/>
<path d="M23372 11259 c-28 -14 -51 -37 -68 -66 -23 -38 -26 -52 -22 -108 6
-94 59 -155 149 -170 79 -13 199 37 184 77 -11 28 -33 29 -71 3 -42 -29 -91
-32 -134 -10 -30 15 -60 51 -60 70 0 7 54 16 142 23 78 7 143 14 145 16 8 8
-17 91 -34 115 -35 46 -70 65 -130 68 -45 3 -68 -1 -101 -18z m146 -52 c20 -9
52 -54 52 -70 0 -3 -35 -8 -77 -11 -43 -4 -95 -9 -117 -12 -38 -6 -39 -6 -32
22 19 76 99 109 174 71z"/>
<path d="M21728 11263 c-23 -4 -27 -8 -23 -31 3 -15 12 -103 20 -197 25 -288
23 -275 56 -275 24 0 29 4 29 24 l0 24 37 -19 c50 -25 109 -24 163 4 102 51
128 179 58 280 -51 73 -187 87 -254 26 -26 -24 -34 -16 -34 36 0 56 -11 135
-19 134 -3 -1 -18 -4 -33 -6z m275 -221 c58 -58 41 -176 -29 -202 -38 -15 -97
-12 -122 6 -71 49 -68 178 6 219 42 24 108 14 145 -23z"/>
<path d="M25373 11195 c0 -27 2 -38 4 -22 2 15 2 37 0 50 -2 12 -4 0 -4 -28z"/>
<path d="M9163 11175 c0 -33 2 -45 4 -27 2 18 2 45 0 60 -2 15 -4 0 -4 -33z"/>
<path d="M14130 11219 c0 -41 89 -319 102 -319 8 0 -34 157 -69 254 -27 76
-33 88 -33 65z"/>
<path d="M20740 11143 c-80 -8 -146 -16 -146 -16 -4 -4 42 -467 46 -471 3 -2
18 -2 34 1 l29 6 -7 92 -7 93 38 6 c21 3 73 8 116 12 l77 6 0 30 0 30 -67 -6
c-38 -4 -91 -9 -119 -12 l-51 -6 -6 54 c-4 29 -7 67 -7 84 l0 31 88 7 c165 12
172 14 172 47 0 34 17 33 -190 12z"/>
<path d="M22183 11113 c3 -27 11 -108 18 -180 l12 -133 35 0 c33 0 34 1 29 33
-3 17 -11 98 -18 180 l-12 147 -35 0 -35 0 6 -47z"/>
<path d="M25383 11085 c0 -27 2 -38 4 -22 2 15 2 37 0 50 -2 12 -4 0 -4 -28z"/>
<path d="M21575 11096 c-17 -7 -37 -21 -45 -31 -14 -17 -15 -17 -20 4 -3 12
-8 22 -12 22 -5 -1 -18 -1 -31 -1 l-23 0 16 -174 c9 -96 19 -178 22 -182 4 -3
19 -3 34 0 l26 7 -7 81 c-15 162 -4 199 66 220 33 9 39 15 39 40 0 32 -16 35
-65 14z"/>
<path d="M21110 11054 c-75 -33 -110 -86 -110 -170 0 -102 58 -169 158 -181
85 -10 169 34 198 104 29 68 9 168 -43 215 -50 46 -139 60 -203 32z m157 -76
c30 -31 44 -88 32 -132 -14 -49 -50 -78 -107 -84 -41 -3 -52 0 -79 22 -65 55
-68 142 -6 196 33 29 41 32 86 27 34 -3 56 -11 74 -29z"/>
<path d="M25393 10975 c0 -27 2 -38 4 -22 2 15 2 37 0 50 -2 12 -4 0 -4 -28z"/>
<path d="M20276 10980 c-16 -5 -39 -19 -52 -31 l-24 -22 0 21 c0 18 -6 22 -35
22 -31 0 -35 -3 -31 -22 3 -13 10 -86 16 -163 14 -175 14 -175 51 -175 33 0
34 2 19 135 -11 110 13 162 83 179 22 5 27 12 27 36 0 32 -6 34 -54 20z"/>
<path d="M18835 10964 c-66 -7 -122 -13 -125 -13 -8 -1 34 -458 42 -467 7 -6
232 10 306 22 28 4 32 9 32 34 0 29 -1 29 -42 25 -117 -14 -232 -24 -235 -21
-2 1 -6 37 -9 78 l-7 75 99 7 c127 9 134 12 134 43 l0 26 -106 -7 c-58 -4
-112 -10 -119 -12 -9 -4 -15 14 -20 66 -4 39 -5 73 -3 75 2 3 61 10 131 16
l127 12 0 29 c0 27 -2 28 -42 27 -24 -1 -97 -7 -163 -15z"/>
<path d="M19807 10935 c-44 -15 -83 -48 -103 -87 -19 -37 -18 -132 3 -175 31
-67 127 -106 218 -89 43 8 103 59 121 103 28 67 7 171 -44 216 -48 43 -129 56
-195 32z m123 -60 c39 -20 60 -63 60 -121 0 -39 -5 -51 -34 -80 -29 -29 -41
-34 -79 -34 -77 0 -134 66 -124 143 11 85 101 131 177 92z"/>
<path d="M19550 10903 c-14 -9 -30 -24 -37 -33 -11 -13 -12 -11 -13 13 0 21
-5 27 -22 27 -45 0 -46 -6 -29 -187 9 -94 18 -174 21 -176 3 -3 17 -3 33 0 31
6 31 5 17 123 -7 58 -6 95 1 117 12 36 56 73 88 73 17 0 21 6 21 30 0 26 -4
30 -28 30 -15 0 -39 -8 -52 -17z"/>
<path d="M25403 10870 c0 -25 2 -35 4 -22 2 12 2 32 0 45 -2 12 -4 2 -4 -23z"/>
<path d="M19300 10889 c-14 -6 -35 -20 -48 -32 l-23 -21 -6 22 c-4 16 -13 22
-34 22 -17 0 -29 -5 -29 -12 0 -7 7 -78 15 -158 8 -80 15 -155 15 -167 0 -20
5 -23 36 -23 35 0 36 1 31 33 -3 17 -9 70 -12 117 -8 105 10 142 75 160 42 11
43 12 34 48 -7 24 -16 26 -54 11z"/>
<path d="M25413 10765 c0 -22 2 -30 4 -17 2 12 2 30 0 40 -3 9 -5 -1 -4 -23z"/>
<path d="M25423 10655 c0 -22 2 -30 4 -17 2 12 2 30 0 40 -3 9 -5 -1 -4 -23z"/>
<path d="M25432 10550 c0 -19 2 -27 5 -17 2 9 2 25 0 35 -3 9 -5 1 -5 -18z"/>
<path d="M25442 10440 c0 -19 2 -27 5 -17 2 9 2 25 0 35 -3 9 -5 1 -5 -18z"/>
<path d="M25452 10330 c0 -19 2 -27 5 -17 2 9 2 25 0 35 -3 9 -5 1 -5 -18z"/>
<path d="M25462 10230 c0 -19 2 -27 5 -17 2 9 2 25 0 35 -3 9 -5 1 -5 -18z"/>
<path d="M25472 10115 c0 -16 2 -22 5 -12 2 9 2 23 0 30 -3 6 -5 -1 -5 -18z"/>
<path d="M24833 9683 c9 -2 25 -2 35 0 9 3 1 5 -18 5 -19 0 -27 -2 -17 -5z"/>
<path d="M24728 9673 c12 -2 30 -2 40 0 9 3 -1 5 -23 4 -22 0 -30 -2 -17 -4z"/>
<path d="M24618 9663 c12 -2 30 -2 40 0 9 3 -1 5 -23 4 -22 0 -30 -2 -17 -4z"/>
<path d="M24508 9653 c12 -2 30 -2 40 0 9 3 -1 5 -23 4 -22 0 -30 -2 -17 -4z"/>
<path d="M24398 9643 c12 -2 32 -2 45 0 12 2 2 4 -23 4 -25 0 -35 -2 -22 -4z"/>
<path d="M24288 9633 c12 -2 32 -2 45 0 12 2 2 4 -23 4 -25 0 -35 -2 -22 -4z"/>
<path d="M24183 9623 c15 -2 39 -2 55 0 15 2 2 4 -28 4 -30 0 -43 -2 -27 -4z"/>
<path d="M24073 9613 c15 -2 37 -2 50 0 12 2 0 4 -28 4 -27 0 -38 -2 -22 -4z"/>
<path d="M23963 9603 c15 -2 39 -2 55 0 15 2 2 4 -28 4 -30 0 -43 -2 -27 -4z"/>
<path d="M23853 9593 c15 -2 39 -2 55 0 15 2 2 4 -28 4 -30 0 -43 -2 -27 -4z"/>
<path d="M23485 9564 c-132 -12 -465 -43 -740 -69 -1069 -98 -1591 -146 -2115
-194 -300 -28 -1010 -93 -1578 -146 -568 -52 -1035 -95 -1037 -95 -3 0 -5 -5
-5 -11 0 -8 20 -10 68 -5 338 31 4421 415 5172 486 239 23 467 45 505 49 156
18 -34 8 -270 -15z"/>
<path d="M17675 8087 c-98 -33 -174 -98 -217 -185 -34 -71 -38 -186 -7 -262
13 -32 27 -56 31 -54 4 3 5 -2 2 -10 -7 -19 12 -22 20 -3 3 6 3 2 0 -10 -13
-56 159 -153 272 -153 22 0 44 3 48 7 4 4 13 8 19 8 88 3 194 88 244 195 36
75 39 180 8 260 -18 45 -60 109 -79 122 -6 3 -22 16 -36 28 -64 57 -218 86
-305 57z m-95 -67 c-8 -5 -19 -10 -25 -10 -5 0 -3 5 5 10 8 5 20 10 25 10 6 0
3 -5 -5 -10z"/>
<path d="M24558 8086 c-53 -19 -109 -56 -102 -68 4 -6 2 -8 -4 -4 -12 7 -82
-62 -82 -81 0 -7 -4 -13 -8 -13 -16 0 -42 -97 -42 -159 0 -68 18 -144 31 -135
5 3 6 -2 3 -10 -4 -10 -1 -16 7 -16 7 0 9 -3 6 -6 -7 -7 29 -63 47 -76 6 -4
14 -4 20 -1 5 3 6 1 2 -5 -7 -12 59 -60 114 -83 20 -8 68 -14 115 -14 67 0 89
5 138 28 109 54 177 142 198 254 12 66 4 167 -13 156 -7 -4 -9 0 -5 10 7 18
-38 106 -59 114 -8 3 -11 10 -7 16 4 6 0 8 -11 4 -9 -4 -15 -3 -12 2 8 13 -21
34 -35 25 -7 -4 -9 -3 -6 3 7 12 -10 30 -33 35 -8 2 -18 7 -21 11 -4 5 -18 10
-33 10 -14 1 -26 5 -26 10 0 12 -142 6 -182 -7z"/>
<path d="M16590 6130 l0 -810 3118 1 c1714 1 3695 5 4402 8 765 4 1087 8 795
10 -269 2 -482 5 -473 8 15 4 85 103 73 103 -3 0 3 9 14 21 10 11 34 49 51 82
18 34 45 82 60 107 15 25 53 90 85 145 32 55 81 138 110 185 53 88 69 120 67
133 -1 4 2 7 7 7 7 0 63 91 129 210 14 25 30 51 36 59 9 12 8 13 -4 7 -8 -4
-6 1 6 11 20 17 34 39 87 133 13 25 47 83 74 130 27 47 56 96 64 110 8 14 20
33 27 42 8 9 11 22 6 29 -4 7 -3 10 3 6 6 -4 14 4 17 18 6 23 10 25 71 25 l65
0 1 -127 c1 -71 5 -384 8 -698 l7 -570 2 706 2 706 -1547 6 c-850 4 -2855 7
-4455 7 l-2908 0 0 -810z m1010 770 c0 -16 -31 -75 -78 -152 -46 -74 -54 -94
-34 -90 8 1 11 -2 7 -7 -3 -6 -11 -8 -18 -5 -11 4 -76 -86 -69 -95 2 -2 -1 -7
-6 -10 -9 -6 -55 -90 -55 -101 0 -3 -5 -9 -12 -15 -7 -5 -25 -35 -41 -65 -16
-30 -31 -57 -34 -60 -15 -14 -87 -150 -77 -144 7 3 1 -3 -12 -14 -16 -13 -21
-24 -16 -33 5 -8 5 -11 0 -7 -10 9 -20 -4 -67 -92 -20 -36 -57 -101 -83 -145
-77 -129 -84 -143 -77 -152 4 -4 3 -5 -2 0 -9 6 -29 -25 -68 -103 -7 -14 -17
-28 -22 -31 -5 -4 -5 -12 -1 -19 5 -8 4 -11 -2 -7 -11 7 -49 -60 -45 -76 1 -5
-1 -6 -5 -4 -5 3 -24 -24 -43 -59 -33 -61 -35 -64 -72 -64 l-38 0 0 780 0 780
485 0 c332 0 485 -3 485 -10z m2255 0 c3 -5 1 -10 -4 -10 -6 0 -11 -4 -11 -9
0 -5 -22 -46 -49 -90 -80 -130 -131 -228 -123 -236 4 -5 2 -5 -4 -2 -10 5 -28
-23 -114 -174 -37 -66 -187 -322 -232 -399 -132 -222 -208 -352 -208 -357 0
-3 -9 -17 -20 -33 -11 -15 -17 -30 -13 -34 3 -3 1 -6 -4 -6 -6 0 -21 -19 -33
-42 -12 -24 -34 -63 -50 -88 -16 -25 -29 -51 -29 -57 -1 -10 -132 -13 -621
-13 l-620 0 11 27 c6 15 15 34 22 41 6 8 16 23 22 33 5 10 32 55 58 99 26 44
45 85 42 91 -4 5 -1 8 5 7 6 -2 25 22 42 52 26 47 123 213 190 328 11 17 16
32 11 32 -4 0 -3 4 3 8 14 9 77 102 69 102 -3 0 -1 6 5 13 13 15 71 113 108
181 15 28 29 53 32 56 15 14 87 150 77 144 -7 -3 -3 3 9 13 11 10 30 34 41 53
60 103 83 152 77 162 -4 7 -3 8 4 4 7 -4 24 17 44 54 l33 60 612 0 c397 0 614
-4 618 -10z m2240 -15 c-14 -13 -25 -30 -25 -37 0 -7 -11 -26 -25 -42 -14 -16
-25 -33 -25 -39 0 -5 -14 -29 -30 -54 -17 -24 -27 -50 -24 -56 4 -7 4 -9 -1
-5 -7 7 -48 -57 -61 -94 -4 -10 -10 -18 -14 -18 -4 0 -13 -15 -21 -32 -7 -18
-26 -52 -41 -75 -16 -24 -26 -43 -23 -43 3 0 -4 -10 -15 -22 -11 -12 -18 -29
-15 -37 3 -9 3 -12 -1 -8 -8 8 -20 -7 -64 -88 -18 -33 -44 -77 -57 -98 -16
-25 -22 -46 -18 -60 5 -16 4 -18 -3 -8 -8 11 -13 9 -24 -10 -87 -145 -118
-199 -118 -204 0 -4 -13 -27 -30 -52 -16 -24 -30 -48 -30 -52 0 -5 -7 -14 -15
-21 -9 -7 -13 -20 -10 -29 3 -8 3 -12 -2 -8 -7 7 -34 -35 -49 -75 -3 -10 -11
-18 -16 -18 -5 0 -6 -4 -3 -10 3 -5 1 -10 -5 -10 -7 0 -9 -7 -6 -16 3 -8 2
-13 -3 -10 -4 3 -14 -7 -22 -22 -7 -15 -31 -55 -52 -90 -20 -35 -34 -68 -31
-74 4 -7 2 -8 -4 -4 -7 4 -12 2 -12 -3 0 -8 -190 -11 -620 -11 l-621 0 26 43
c14 24 24 46 22 48 -1 2 0 3 2 2 5 -3 22 25 64 100 15 26 34 59 43 72 9 14 13
25 9 25 -3 0 0 7 9 15 18 19 128 213 124 219 -2 3 6 12 17 20 11 9 16 16 10
16 -7 0 -7 3 0 8 12 8 30 36 47 72 7 14 15 27 19 30 3 3 21 32 39 65 18 33 44
77 57 98 24 38 44 73 91 157 14 25 33 57 43 71 10 14 16 29 12 33 -3 3 -1 6 6
6 8 0 11 8 8 20 -3 10 0 18 5 17 9 -2 116 167 117 185 1 4 9 17 19 28 9 11 15
23 14 27 -2 3 0 9 6 12 11 7 68 104 85 144 l11 27 628 0 627 0 -24 -25z m2237
-7 c-62 -102 -82 -141 -76 -150 4 -6 2 -8 -4 -4 -9 5 -51 -61 -131 -209 -39
-71 -76 -130 -84 -136 -5 -4 -6 -12 -2 -19 5 -8 4 -11 -2 -7 -5 4 -16 -6 -24
-21 -7 -15 -42 -75 -77 -134 -35 -60 -60 -113 -56 -119 4 -7 3 -9 -3 -6 -8 5
-57 -67 -57 -83 0 -3 -8 -13 -17 -24 -10 -10 -34 -48 -54 -85 -64 -120 -96
-175 -124 -221 -68 -109 -131 -220 -131 -230 0 -5 -5 -10 -11 -10 -6 0 -8 -7
-5 -16 3 -8 2 -13 -2 -10 -5 3 -16 -8 -26 -25 l-17 -29 -599 0 c-329 0 -605 3
-614 6 -13 5 -11 12 13 47 15 23 31 49 35 57 4 8 17 31 29 52 41 68 114 193
140 238 14 25 47 82 74 127 57 97 58 99 163 278 45 77 82 145 83 150 1 6 5 12
8 15 3 3 19 28 34 55 16 28 32 52 35 55 3 3 14 21 24 40 20 41 48 90 59 105
51 70 137 231 129 241 -4 4 -2 4 4 1 6 -3 23 18 40 49 l29 54 618 0 619 0 -20
-32z m-1256 -10 c-9 -12 -16 -19 -16 -15 0 11 24 47 28 42 2 -2 -3 -14 -12
-27z m-493 -803 c-3 -9 -8 -14 -10 -11 -3 3 -2 9 2 15 9 16 15 13 8 -4z"/>
<path d="M4685 5759 c-32 -11 -73 -30 -90 -41 -37 -26 -94 -89 -95 -105 0 -6
-4 -13 -10 -15 -5 -1 -22 -34 -36 -73 -47 -128 -41 -293 17 -505 71 -257 96
-429 84 -595 -11 -163 -14 -193 -34 -340 -10 -77 -19 -147 -19 -155 0 -8 -6
-73 -12 -145 -10 -103 -10 -156 0 -255 15 -153 33 -254 43 -243 5 4 5 0 1 -10
-3 -10 -1 -17 6 -17 6 0 9 -4 6 -8 -8 -13 16 -82 25 -76 5 3 6 -2 3 -10 -3 -9
-1 -16 5 -16 6 0 8 -6 6 -12 -2 -7 2 -22 11 -33 13 -17 16 -18 24 -5 6 9 10
10 10 3 0 -6 -4 -15 -10 -18 -10 -6 9 -43 43 -81 18 -22 18 -24 -61 -245 -159
-448 -194 -586 -223 -879 -12 -131 -6 -431 10 -505 6 -27 7 -10 3 55 -10 143
-7 372 8 490 23 191 88 471 146 620 7 19 45 125 85 235 39 110 77 205 83 210
7 6 12 16 10 23 -1 7 0 8 3 2 2 -5 9 -10 15 -10 13 0 161 70 168 79 3 4 18 12
33 19 15 7 25 17 22 22 -4 6 1 7 12 3 10 -3 15 -3 11 2 -4 4 7 16 25 26 17 9
31 22 29 29 -1 6 3 8 9 5 6 -4 39 20 76 56 70 69 213 254 213 276 0 7 4 13 9
13 13 0 114 208 106 220 -3 5 -2 10 3 10 16 0 98 281 88 306 -3 7 -1 14 4 16
5 2 15 69 22 150 9 114 9 183 0 309 -6 89 -16 167 -22 174 -5 6 -7 15 -4 18
14 14 -75 357 -111 430 -14 26 -20 45 -15 42 6 -4 -1 20 -15 52 -14 32 -31 70
-38 85 -6 15 -15 24 -21 21 -5 -3 -6 -1 -3 4 11 18 -71 152 -137 223 -72 79
-185 156 -212 146 -8 -3 -12 -2 -9 4 9 14 -62 31 -155 36 -69 4 -96 1 -145
-17z m222 -1571 c-3 -8 -6 -5 -6 6 -1 11 2 17 5 13 3 -3 4 -12 1 -19z"/>
<path d="M16590 3675 l0 -818 2387 6 c1312 4 3219 8 4237 9 1018 2 1716 4
1551 5 -178 2 -303 7 -309 13 -6 6 -2 20 12 40 12 16 22 31 22 34 0 2 22 40
48 83 27 43 46 85 44 93 -3 8 -1 12 3 8 8 -8 55 53 55 70 0 5 9 21 21 36 11
14 17 31 13 38 -4 7 -4 10 1 6 6 -6 85 113 85 129 0 2 34 60 75 128 41 68 75
128 75 134 0 6 5 11 11 11 6 0 8 7 5 16 -3 8 -2 13 3 10 13 -8 60 91 49 102
-7 7 -4 10 6 9 11 -1 27 17 44 48 15 28 30 52 33 55 7 7 79 137 81 147 1 5 8
14 15 21 13 13 34 48 90 148 15 28 48 85 73 127 l45 77 58 0 57 0 1 -127 c1
-71 5 -384 8 -698 l7 -570 2 708 2 707 -3877 0 c-2133 0 -4138 3 -4455 7
l-578 6 0 -818z m5505 775 c3 -6 -7 -29 -22 -53 -46 -68 -48 -71 -32 -63 10 6
10 4 -1 -6 -17 -15 -34 -41 -52 -78 -7 -14 -15 -27 -19 -30 -3 -3 -43 -70 -88
-150 -46 -80 -103 -179 -128 -220 -53 -89 -49 -82 -112 -192 -28 -49 -51 -90
-51 -93 0 -3 -7 -13 -17 -24 -14 -17 -54 -85 -103 -177 -9 -16 -26 -44 -39
-62 -12 -18 -19 -32 -14 -32 4 0 3 -4 -3 -8 -19 -13 -85 -132 -79 -141 3 -5
-2 -14 -11 -19 -9 -5 -42 -54 -73 -108 l-56 -99 -613 -3 c-529 -2 -612 0 -612
12 0 8 5 18 11 21 6 4 8 14 5 22 -3 8 -1 11 4 8 6 -3 10 -1 10 5 0 6 5 16 10
23 11 12 158 262 231 392 43 76 49 85 95 160 17 27 38 64 46 80 22 46 42 79
52 86 5 4 5 12 1 19 -5 8 -4 11 2 7 9 -6 22 10 27 33 1 3 14 25 30 50 15 25
35 55 43 68 7 12 11 28 7 34 -4 6 -3 8 3 5 5 -3 21 13 34 36 13 23 34 60 47
82 13 22 28 52 35 68 6 15 15 27 19 27 4 0 8 4 8 9 0 4 27 53 60 109 33 55 60
105 60 111 0 6 4 11 8 11 5 0 17 18 27 40 l18 40 241 3 c661 7 985 7 991 -3z
m2237 -22 c-11 -18 -34 -60 -52 -93 -18 -32 -59 -103 -91 -157 -33 -53 -59
-102 -59 -108 0 -5 -4 -10 -9 -10 -11 0 -26 -40 -22 -55 1 -5 -1 -7 -5 -3 -4
4 -14 -6 -23 -22 -9 -16 -52 -92 -96 -167 -44 -76 -78 -140 -76 -142 1 -2 -1
-7 -6 -10 -13 -9 -46 -59 -80 -121 -38 -69 -132 -232 -156 -268 -9 -15 -23
-38 -30 -52 -7 -14 -24 -43 -38 -65 -14 -22 -39 -65 -56 -95 -17 -30 -45 -81
-64 -112 l-33 -58 -617 0 -617 0 35 59 c19 33 34 63 33 67 -1 4 2 10 7 13 8 5
27 34 70 106 7 11 18 31 25 45 7 14 25 44 41 68 15 23 24 42 20 42 -4 0 -3 4
3 8 6 4 33 45 59 92 26 47 55 96 65 110 9 14 30 50 47 80 16 30 52 93 80 140
28 47 90 154 139 237 49 84 98 168 109 187 11 19 39 66 63 106 23 39 42 76 42
81 0 5 4 9 8 9 5 0 16 17 26 38 10 20 24 47 32 60 l14 22 616 0 616 0 -20 -32z
m-6709 15 c-12 -2 -29 -19 -38 -36 -38 -71 -54 -100 -79 -137 -14 -22 -23 -40
-19 -40 5 0 3 -4 -3 -8 -6 -4 -22 -27 -36 -52 -14 -25 -46 -81 -73 -125 -84
-141 -115 -202 -107 -210 4 -5 2 -5 -4 -2 -10 6 -20 -7 -27 -33 0 -3 -8 -13
-16 -22 -9 -9 -27 -39 -41 -65 -13 -26 -41 -75 -62 -109 -21 -34 -38 -64 -38
-68 0 -4 -13 -26 -28 -49 -16 -23 -32 -49 -36 -57 -4 -8 -17 -31 -29 -52 -38
-62 -228 -388 -259 -443 -13 -24 -24 -31 -57 -33 l-41 -3 0 775 0 776 508 -1
c279 -1 497 -4 485 -6z m2187 -75 c-26 -46 -57 -98 -69 -116 -12 -19 -18 -39
-14 -45 3 -7 3 -9 -2 -5 -9 8 -20 -8 -72 -102 -17 -30 -58 -103 -92 -161 -33
-58 -61 -111 -61 -118 0 -6 -4 -11 -8 -11 -5 0 -15 -12 -23 -27 -8 -16 -27
-47 -42 -71 -25 -37 -27 -45 -15 -60 11 -15 11 -15 -2 -5 -13 10 -19 6 -35
-25 -11 -20 -24 -41 -28 -47 -9 -11 -169 -285 -228 -390 -46 -81 -54 -95 -92
-153 -15 -24 -24 -48 -21 -54 4 -6 2 -8 -3 -5 -6 4 -13 -3 -17 -16 -3 -12 -15
-32 -26 -45 l-21 -22 -603 0 c-331 0 -606 3 -609 6 -7 7 36 93 62 125 13 16
56 91 101 175 9 16 25 43 36 60 12 16 19 36 16 44 -3 8 -1 12 3 8 5 -5 14 0
21 11 23 32 75 131 70 131 -4 0 2 8 12 18 9 10 26 35 37 57 11 22 23 42 28 43
4 2 7 7 7 12 0 4 34 65 75 135 41 69 75 131 75 136 0 5 5 9 10 9 6 0 10 4 10
9 0 5 27 55 60 110 33 56 60 105 60 110 0 5 4 11 8 13 8 3 81 130 84 145 1 5
10 17 20 28 10 11 31 44 46 75 16 30 35 65 43 78 l14 22 616 0 617 0 -48 -82z
m-2797 -999 c-8 -8 -13 -7 -18 2 -6 8 -4 10 5 4 10 -6 12 -4 6 11 -6 15 -5 17
5 7 9 -10 10 -16 2 -24z m6647 -155 c0 -8 -19 -13 -24 -6 -3 5 1 9 9 9 8 0 15
-2 15 -3z m-1306 -40 c3 -8 2 -12 -4 -9 -6 3 -10 10 -10 16 0 14 7 11 14 -7z"/>
<path d="M3480 3820 c-125 -16 -156 -21 -239 -41 -132 -31 -254 -90 -356 -173
-53 -44 -108 -96 -101 -96 2 0 -11 -16 -30 -37 -18 -20 -31 -40 -28 -45 3 -4
1 -8 -3 -8 -5 0 -27 -35 -49 -77 -51 -99 -58 -193 -24 -305 34 -113 86 -178
189 -236 56 -31 75 -36 147 -40 72 -4 89 -1 135 20 67 31 135 91 191 168 24
32 68 93 98 134 56 76 73 89 84 60 3 -8 11 -12 17 -8 8 5 9 3 4 -5 -4 -8 4
-25 22 -44 16 -18 42 -50 58 -72 69 -94 166 -182 257 -234 79 -44 212 -63 288
-41 24 7 36 6 41 -1 7 -12 33 -234 49 -414 11 -132 29 -479 39 -780 l8 -220 1
220 c3 350 -21 791 -58 1080 -17 130 -17 141 -1 149 47 26 161 176 134 176 -5
0 -2 4 4 8 7 5 18 45 24 91 9 68 8 103 -6 198 -16 115 -48 237 -67 261 -6 6
-8 12 -4 12 11 0 -51 114 -82 149 -19 22 -34 31 -42 26 -9 -5 -11 -4 -6 4 14
22 -90 91 -144 96 -14 1 -36 8 -50 16 -29 16 -389 23 -500 9z m305 -290 c10
-11 16 -20 13 -20 -3 0 -13 9 -23 20 -10 11 -16 20 -13 20 3 0 13 -9 23 -20z"/>
<path d="M4402 1310 c0 -14 2 -19 5 -12 2 6 2 18 0 25 -3 6 -5 1 -5 -13z"/>
<path d="M4411 1254 c0 -11 3 -14 6 -6 3 7 2 16 -1 19 -3 4 -6 -2 -5 -13z"/>
</g>
</svg>
